<svg width="452" height="506" fill="none" xmlns="http://www.w3.org/2000/svg"><path d="M48.037 381.063H18.612v12.435h29.425v-12.435Zm-16.412 15.68H2.2v12.434h29.425v-12.434Zm32.825 0H35.025v12.434H64.45v-12.434ZM432.578 48.715h-29.424v12.434h29.424V48.715Zm16.413 15.679h-29.425v12.434h29.425V64.394ZM31.625 48.737H2.2v12.434h29.425V48.738Zm387.952 344.661h29.425v-12.435h-29.425v12.435Zm-70.26-143.267h29.424v-12.434h-29.424v12.434Zm16.412-15.679h29.424v-12.434h-29.424v12.434Z" fill="#EBEBEB"/><path d="M51.337 0h-1.11v118.909h1.11V0Z" fill="#C7C7C7"/><path d="m92.074 158.713-3.322 7.3h-75.95l-3.312-7.3 32.336-22.38h17.912l32.336 22.38Z" fill="#EBEBEB"/><path d="m61.982 114.776-2.244 21.557H41.825l-2.244-21.557h22.401Zm30.081 43.948-3.323 7.3H12.79l-3.3-7.3h82.573Z" fill="#DBDBDB"/><path d="M130.366 0h-1.111v95.363h1.111V0Z" fill="#C7C7C7"/><path d="m171.102 135.166-3.322 7.301H91.83l-3.312-7.301 32.336-22.379h17.912l32.336 22.379Z" fill="#EBEBEB"/><path d="m141.011 91.218-2.244 21.569h-17.913l-2.245-21.569h22.402Zm30.091 43.948-3.322 7.301H91.83l-3.312-7.301h82.584Z" fill="#DBDBDB"/><path d="M445.958 479.016c0 14.601-98.653 26.424-220.362 26.424-121.71 0-220.362-11.823-220.362-26.424 0-14.602 98.652-26.425 220.362-26.425 121.709 0 220.362 11.823 220.362 26.425Z" fill="#EBEBEB"/><path d="M399.188 330.837a43.68 43.68 0 0 1-.856 16.846 46.062 46.062 0 0 1-2.578 7.445c-1.344 3.089-2.745 6.089-2.4 9.468.322.211-.789.177-.834-.145-9.011-5.134-20.568-6.078-27.502-14.445a28.89 28.89 0 0 1-5.722-14.046c-.856-5.489-1.112-11.557.322-16.957 1.189-4.534 3.867-8.978 8.212-11.201 4.344-2.222 10.245-2.111 14.912-.667 10.012 3.101 15.023 14.002 16.446 23.702Z" fill="#6D55F1"/><path d="M403.81 397.543c-1.222-4.097-2.463-8.19-3.723-12.279-2.466-8.012-5.033-15.99-7.889-23.88a372.782 372.782 0 0 0-5.389-14.034 85.642 85.642 0 0 1 1.111-8.712c.755-3.489 1.844-6.867 2.867-10.279.066-.211-.278-.322-.367-.122-2.022 4.712-4.667 10.734-4.723 16.313a301.867 301.867 0 0 0-7.089-15.502 66.105 66.105 0 0 1 .333-12.912.152.152 0 0 0-.036-.098.16.16 0 0 0-.091-.053.16.16 0 0 0-.103.017.155.155 0 0 0-.07.079 45.925 45.925 0 0 0-.889 11.389 222.392 222.392 0 0 0-6.145-11.323c-.2-.333-.655 0-.489.345 3.39 6.522 6.523 13.179 9.479 19.924a43.247 43.247 0 0 0-14.134-8.179c-.223-.089-.389.245-.167.333a51.426 51.426 0 0 1 15.29 10.123 422.599 422.599 0 0 1 6.056 14.935c-5.645-5.556-13.334-9.167-20.824-11.112-.255-.067-.322.322-.078.389 8.645 2.6 15.346 7.501 21.924 13.334.756 2.034 1.512 4.067 2.223 6.101a714.426 714.426 0 0 1 7.945 23.335 673.553 673.553 0 0 1 3.578 11.245c1.255 4.045 2.222 8.312 3.889 12.224.156.366.822.288.733-.167a115.535 115.535 0 0 0-3.222-11.434Z" fill="#263238"/><path d="M388.864 322.948a22.557 22.557 0 0 0-3.244 8.089c0 .078.1.123.133 0a69.252 69.252 0 0 1 3.511-7.934c.145-.222-.244-.389-.4-.155Zm-16.079 18.779a23.638 23.638 0 0 0-8.078-2.722c-.078 0-.122.1 0 .133 1.3.533 2.667.911 3.978 1.422 1.311.511 2.611 1.111 3.945 1.589a.233.233 0 0 0 .145-.035.233.233 0 0 0 .097-.266.23.23 0 0 0-.087-.121Zm-4.522-22.58a15.93 15.93 0 0 0-2.6-1.611.147.147 0 0 0-.095-.001.14.14 0 0 0-.074.057.14.14 0 0 0-.024.091.142.142 0 0 0 .037.087 16.26 16.26 0 0 0 2.567 1.655c.167.1.356-.178.189-.278Z" fill="#263238"/><path d="M429.568 361.451c-6.49 1.922-13.012 3.7-19.502 5.611-.566.167-11.534-20.857-7.567-31.691a35.296 35.296 0 0 1 22.057-20.902c4.634-1.578 10.323-2.9 15.224-1.822 4.356.967 7.423 4.523 8.889 8.623 1.923 5.556 1.278 12.223.234 17.879a31.22 31.22 0 0 1-6.39 14.59c-3.489 4.067-7.889 6.212-12.945 7.712Z" fill="#6D55F1"/><path d="M438.946 341.46a85.328 85.328 0 0 1-12.734 5.012 53.537 53.537 0 0 0-8.49 3.078c2.745-6.112 5.745-12.09 8.945-18.024 4.189-1.211 8.601-3.1 11.757-6.067a.181.181 0 0 0-.033-.3.205.205 0 0 0-.068-.02.19.19 0 0 0-.133.042c-3.455 2.445-7.278 3.912-11.112 5.556.867-1.6 1.734-3.189 2.623-4.778.244-.444-.356-.878-.656-.455a136.938 136.938 0 0 0-9.223 15.49c-.7-4.696-.923-9.45-.666-14.19 0-.123-.167-.134-.189 0a47.358 47.358 0 0 0 .155 15.556c-2.222 4.545-4.345 9.201-6.211 13.913-.734-2.834-1.701-5.623-2.345-8.479a39.05 39.05 0 0 1-.933-12.49c0-.122-.167-.133-.189 0a44.105 44.105 0 0 0 2.833 22.958 167.178 167.178 0 0 0-3.067 8.534 170.03 170.03 0 0 0-8.623 45.025.28.28 0 0 0 .475.197.278.278 0 0 0 .081-.197 223.148 223.148 0 0 1 9.667-44.447c1.878-5.656 4.045-11.112 6.423-16.546 3.834-1.111 7.656-2.667 11.423-3.967a35.981 35.981 0 0 0 10.523-5.167.166.166 0 0 0 .049-.117.166.166 0 0 0-.282-.117Z" fill="#263238"/><path d="M445.024 335.36c-3.967 1.411-7.778 3.389-11.689 4.823-.189.066-.078.355.1.322 4.2-.867 8.356-2.167 11.745-4.923.122-.1-.011-.278-.156-.222Zm-32.414-8.567c.056-.212-.255-.334-.322-.112-1.111 3.656-1.833 7.546-.778 11.279 0 .145.278.156.278 0 .189-3.789-.022-7.456.822-11.167Zm16.402-8.446a9.755 9.755 0 0 0-1.722 6.223c0 .134.233.211.266.056.489-2.1 1.3-4.001 1.945-6.034a.28.28 0 0 0-.143-.326.277.277 0 0 0-.346.081Z" fill="#263238"/><path d="M352.372 370.718c1.901 6.045 6.423 14.39 13.579 14.446 4.645 0 9.312-.511 13.968-.578 4.978-.078 10.001-.067 14.946.233.411 0-.6-14.923-12.568-22.224-3.334-2.044-7.456-2.689-11.267-3.511a52.13 52.13 0 0 0-13.335-1.389c-2.756.111-5.045.689-6.023 3.511-.977 2.823-.222 6.601.7 9.512Z" fill="#6D55F1"/><path d="M357.518 363.162c2.911.745 5.845 1.611 8.767 2.534a32.29 32.29 0 0 0-2.411-2.356c-1.256-1.034-2.634-1.867-3.978-2.789-.111-.067 0-.289.1-.234a16.38 16.38 0 0 1 7.056 5.623 144.308 144.308 0 0 1 10.712 3.889 41.1 41.1 0 0 1 6.867 3.612 27.79 27.79 0 0 0-2.489-4.312c-1.589-2.067-3.734-3.211-5.812-4.667a.188.188 0 0 1 .058-.325.185.185 0 0 1 .131.003 17.033 17.033 0 0 1 9.334 10.123 40.228 40.228 0 0 1 6.79 6.167c7.923 9.001 14.167 20.98 14.19 33.192 0 .289-.467.377-.523.066a67.783 67.783 0 0 0-15.112-32.447c-.567-.666-1.111-1.289-1.744-1.9a53.494 53.494 0 0 0-6.545-.489c-2.545 0-5.079.378-7.612.578-4.178.345-8.801.389-12.579-1.711-.167-.089 0-.378.133-.311 8.412 3.055 17.224-.823 25.647 1a39.33 39.33 0 0 0-12.423-8.012l-.778-.311c-5.389.644-11.112 2.056-16.335.3a.122.122 0 0 1-.076-.059.12.12 0 0 1-.016-.047.14.14 0 0 1 .003-.05.14.14 0 0 1 .022-.044.13.13 0 0 1 .038-.032.11.11 0 0 1 .047-.016.135.135 0 0 1 .049.003c5.078 1.267 9.945-.333 14.957-.589-5.456-2.122-11.023-3.811-16.491-5.922-.466-.178-.477-.6.023-.467Z" fill="#263238"/><path d="M355.14 368.474a74.54 74.54 0 0 0 7.856.6c.056 0 .078.089 0 .1a16.25 16.25 0 0 1-7.923-.5c-.122-.034-.055-.223.067-.2Zm17.734-5.179a12.812 12.812 0 0 1 3.889 2.701.162.162 0 0 1-.2.255 35.793 35.793 0 0 0-2.022-1.367 21.355 21.355 0 0 1-1.889-1.2.232.232 0 0 1-.035-.277.235.235 0 0 1 .257-.112Z" fill="#263238"/><path d="M415.155 382.741c-.088.189.2.378.312.167a.272.272 0 0 0 .082.08.271.271 0 0 0 .106.042 121.148 121.148 0 0 0 14.624 2.556c3.956.356 8.523.567 11.99-1.722 4.7-3.123 7.778-11.446 5.245-16.735-3.001-6.278-12.057-2.867-16.602-.633a33.338 33.338 0 0 0-15.757 16.245Z" fill="#6D55F1"/><path d="M411.644 385.642a46.403 46.403 0 0 1 8.734-6.668 30 30 0 0 1 8.89-9.034c.177-.122.322.156.166.278a40.268 40.268 0 0 0-7.467 7.845 81.824 81.824 0 0 1 10.956-4.978 14.61 14.61 0 0 1 5.89-5.9s.111 0 .066.077a24.14 24.14 0 0 0-5.322 5.556 183.51 183.51 0 0 1 6.723-2.344c.2-.067.277.244.088.311-4 1.567-8.089 3.211-12.056 5.111 4.836.773 9.765.773 14.601 0 .133 0 .189.167 0 .2a28.756 28.756 0 0 1-15.49.234 72.62 72.62 0 0 0-7.345 4.111 18.27 18.27 0 0 1 5.934.489 45.236 45.236 0 0 0 10.434 1.178c.133 0 .167.222 0 .244-6.056 1.034-11.779-1.711-17.779-1a45.905 45.905 0 0 0-6.245 5.112 46.677 46.677 0 0 0-9.112 12.856c-2.534 5.145-3.9 10.59-5.945 15.902a.19.19 0 1 1-.367-.1c1.801-10.468 7.012-22.013 14.646-29.48Z" fill="#263238"/><path d="M429.901 371.274a7.016 7.016 0 0 1 1.556-1.878 5.85 5.85 0 0 1 1.789-1.334c.055 0 .089 0 .056.1-.501.556-1.19.978-1.723 1.512-.533.533-.989 1.178-1.533 1.711a.093.093 0 0 1-.061.035.094.094 0 0 1-.067-.018.093.093 0 0 1-.035-.061.09.09 0 0 1 .018-.067Zm9.99 3.256c.9-.223 1.844-.211 2.756-.4a24.734 24.734 0 0 0 2.678-.8.103.103 0 0 1 .075.008c.024.011.042.03.053.054a.112.112 0 0 1-.04.138 8.885 8.885 0 0 1-5.555 1.277c-.112-.022-.101-.244.033-.277Z" fill="#263238"/><path d="m386.698 402.221.789 9.023 2.7 30.469h23.868l3.367-30.469.989-9.023h-31.713Z" fill="#455A64"/><path d="m386.698 402.221.789 9.023h29.935l.989-9.023h-31.713Z" fill="#263238"/><path d="M384.342 407.077h36.448v-7.323h-36.448v7.323Z" fill="#455A64"/><path d="m0 441.635 56.404-.267 56.394-.1 112.798-.178 112.797.178 56.394.1 56.393.267-56.393.278-56.394.1-112.797.177-112.798-.177-56.394-.1L0 441.635Z" fill="#263238"/><path d="M375.863 82.562v360.095c0 10.179-7.623 18.413-17.024 18.413H190.782c-9.423 0-17.046-8.234-17.046-18.413V82.562c0-20.735 7.623-21.746 17.046-21.746h33.702c1.956 0 3.556 2.222 3.556 4.978v1.189c0 6.456 3.534 6.478 7.867 6.478h77.851c4.378 0 7.89 0 7.89-6.478v-1.189c0-2.756 1.577-4.978 3.566-4.978h33.659c9.367 0 16.99 2.756 16.99 21.746Z" fill="#fff"/><path d="M375.863 82.562v360.095c0 10.179-7.623 18.413-17.024 18.413H190.782c-9.423 0-17.046-8.234-17.046-18.413V82.562c0-20.735 7.623-21.746 17.046-21.746h33.702c1.956 0 3.556 2.222 3.556 4.978v1.189c0 6.456 3.534 6.478 7.867 6.478h77.851c4.378 0 7.89 0 7.89-6.478v-1.189c0-2.756 1.577-4.978 3.566-4.978h33.659c9.367 0 16.99 2.756 16.99 21.746Z" fill="#fff"/><path d="m375.863 82.562.278 298.468v60.638a25.821 25.821 0 0 1-.345 4.712 19.55 19.55 0 0 1-3.878 8.556 19.19 19.19 0 0 1-3.411 3.334 18.308 18.308 0 0 1-4.189 2.222 15.915 15.915 0 0 1-4.656.944c-1.589.1-3.123 0-4.679.056h-55.915l-74.606.078h-32.647a20.31 20.31 0 0 1-4.756-.422 16.9 16.9 0 0 1-8.256-4.667 19.261 19.261 0 0 1-4.812-8.179 20.63 20.63 0 0 1-.755-4.722c-.089-1.601 0-3.123 0-4.69v-9.323l.278-298.468V84.451a77.184 77.184 0 0 1 .422-9.334l.355-2.322.534-2.29c.222-.744.5-1.489.755-2.222.333-.72.704-1.42 1.112-2.1a11.103 11.103 0 0 1 3.233-3.434 12.987 12.987 0 0 1 4.445-1.7 52.728 52.728 0 0 1 9.345-.444h30.214c.402-.03.806 0 1.2.089.402.103.779.284 1.111.533a5.635 5.635 0 0 1 1.922 4.334 15.303 15.303 0 0 0 .411 4.578c.191.723.575 1.38 1.112 1.9a4.441 4.441 0 0 0 1.978 1.011c1.521.274 3.068.374 4.611.3h79.273a6.803 6.803 0 0 0 4.334-1.255 4.262 4.262 0 0 0 1.278-1.912c.225-.72.356-1.468.389-2.222v-2.323a6.556 6.556 0 0 1 .477-2.3 4.553 4.553 0 0 1 1.378-1.889c.311-.246.665-.43 1.045-.544a4.22 4.22 0 0 1 1.178-.09h32.647c1.556-.02 3.111.066 4.656.257 3.117.25 6.04 1.615 8.234 3.844a17.317 17.317 0 0 1 3.889 8.423c.55 3.043.821 6.13.811 9.223Zm0 0a51.012 51.012 0 0 0-.833-9.278 17.352 17.352 0 0 0-3.867-8.346 13.014 13.014 0 0 0-8.246-3.822 34.126 34.126 0 0 0-4.644-.233h-32.67a4.35 4.35 0 0 0-1.111.1c-.365.113-.707.29-1.011.522a4.435 4.435 0 0 0-1.333 1.833c-.645 1.434-.4 3.023-.5 4.578a9.167 9.167 0 0 1-.401 2.312 4.437 4.437 0 0 1-1.2 2 6.887 6.887 0 0 1-4.444 1.3h-79.296a21.339 21.339 0 0 1-4.678-.311 4.812 4.812 0 0 1-2.133-1.111 4.45 4.45 0 0 1-1.234-2.034 16.234 16.234 0 0 1-.444-4.511 5.312 5.312 0 0 0-1.8-3.99 3.258 3.258 0 0 0-.989-.477 4.521 4.521 0 0 0-1.111-.078h-30.303a53.583 53.583 0 0 0-9.267.456 12.81 12.81 0 0 0-4.245 1.644 10.729 10.729 0 0 0-3.1 3.334c-.4.644-.689 1.366-1.034 2.044-.344.678-.511 1.456-.722 2.223l-.533 2.222-.334 2.29a74.108 74.108 0 0 0-.411 9.278v46.637l.278 298.468v13.956c.067 1.504.305 2.996.711 4.445a18.125 18.125 0 0 0 4.523 7.779 15.918 15.918 0 0 0 7.778 4.444c1.483.312 2.997.45 4.512.412h32.713l74.606.077h60.605a15.258 15.258 0 0 0 4.445-.9 16.808 16.808 0 0 0 4.022-2.122 18.409 18.409 0 0 0 3.278-3.167 18.886 18.886 0 0 0 3.767-8.245c.245-1.517.357-3.053.334-4.589v-60.616l.322-298.524Z" fill="#263238"/><path d="M375.863 82.562v43.17H173.736v-43.17c0-20.735 7.623-21.746 17.046-21.746h33.702c1.956 0 3.556 2.222 3.556 4.978v1.189c0 6.456 3.534 6.478 7.867 6.478h77.851c4.378 0 7.89 0 7.89-6.478v-1.189c0-2.756 1.577-4.978 3.566-4.978h33.659c9.367 0 16.99 2.756 16.99 21.746Z" fill="#6D55F1"/><path d="m218.64 68.894-.334.322-.177.19a4.448 4.448 0 0 0-6.279 0l-.166-.19-.323-.322c.134-.122.267-.244.411-.355a5.046 5.046 0 0 1 2.223-1.034c.211 0 .422 0 .633-.089h.978a5.145 5.145 0 0 1 1.889.645c.265.155.517.33.756.522l.344.311h.045Z" fill="#fff"/><path d="m212.884 70.439-.511-.511a3.68 3.68 0 0 1 2.616-1.09 3.694 3.694 0 0 1 2.617 1.09l-.511.51a2.977 2.977 0 0 0-4.211 0Z" fill="#fff"/><path d="m216.584 70.95-.511.511a1.503 1.503 0 0 0-1.111-.444 1.495 1.495 0 0 0-1.112.444l-.511-.511a2.218 2.218 0 0 1 1.623-.704 2.222 2.222 0 0 1 1.622.704Z" fill="#fff"/><path d="M215.45 71.928a.457.457 0 0 1-.455.456.47.47 0 0 1-.496-.267.47.47 0 0 1 .12-.55.464.464 0 0 1 .376-.106.46.46 0 0 1 .326.138.45.45 0 0 1 .129.33Zm-28.535-2.045a1.343 1.343 0 0 1 1.607-1.318 1.342 1.342 0 0 1 1.056 1.056 1.341 1.341 0 0 1-1.318 1.607 1.344 1.344 0 0 1-1.345-1.345Zm4.233 0a1.347 1.347 0 0 1 2.3-.947 1.351 1.351 0 0 1 .284 1.47 1.345 1.345 0 0 1-1.25.822 1.336 1.336 0 0 1-1.334-1.345Zm4.212 0a1.343 1.343 0 0 1 1.607-1.318 1.342 1.342 0 0 1 1.056 1.056 1.342 1.342 0 0 1-1.319 1.607 1.331 1.331 0 0 1-1.344-1.345Zm4.211 0a1.343 1.343 0 0 1 1.607-1.318 1.345 1.345 0 1 1-1.607 1.318Zm4.222 0a1.343 1.343 0 0 1 1.607-1.318 1.345 1.345 0 1 1-1.607 1.318Zm156.913 2.923h-10.912v-5.023h10.912v5.023Zm-10.356-.556h9.8v-3.933h-9.8v3.933Z" fill="#fff"/><path d="M357.739 68.617h-7.033v3.333h7.033v-3.334Zm3.934.322h-.967v2.7h.967v-2.7ZM192.16 113.865l-5.968-5.59 5.968-5.589.922.978-4.912 4.611 4.912 4.612-.922.978Zm56.237-4.823h-1.289v2.278a.585.585 0 0 1-.583.508.586.586 0 0 1-.584-.508v-6.189a.575.575 0 0 1 .578-.578h1.878a2.222 2.222 0 1 1 0 4.444v.045Zm-1.289-1.111h1.289a1.111 1.111 0 1 0 0-2.156h-1.289v2.156Zm7.956 2.233h-2.544l-.512 1.367a.608.608 0 0 1-.544.367.56.56 0 0 1-.2 0 .588.588 0 0 1-.345-.756l2.312-6.178a.6.6 0 0 1 1.111 0l2.367 6.156a.588.588 0 0 1-.345.755.518.518 0 0 1-.2 0 .586.586 0 0 1-.533-.366l-.567-1.345Zm-.433-1.111-.845-2.222-.855 2.222h1.7Zm3.056 1.011a.552.552 0 0 1 .37-.187.55.55 0 0 1 .397.121c.559.48 1.263.762 2 .8.465.006.921-.125 1.311-.378a.963.963 0 0 0 .445-.756.692.692 0 0 0-.089-.344 1.1 1.1 0 0 0-.323-.311 3.991 3.991 0 0 0-1.433-.489 5.978 5.978 0 0 1-1.345-.412 2.215 2.215 0 0 1-.977-.811 1.635 1.635 0 0 1-.245-.866 1.92 1.92 0 0 1 .845-1.523 3.099 3.099 0 0 1 1.811-.555 4.112 4.112 0 0 1 2.222.833.546.546 0 0 1 .156.745.541.541 0 0 1-.34.233.53.53 0 0 1-.405-.078 3.056 3.056 0 0 0-1.689-.667 2.006 2.006 0 0 0-1.178.356.846.846 0 0 0-.4.656.507.507 0 0 0 .078.3.979.979 0 0 0 .289.266c.399.238.841.397 1.3.467.498.081.984.227 1.445.433.427.188.793.492 1.055.878.164.268.249.576.245.889a2.043 2.043 0 0 1-.9 1.623c-.565.4-1.242.61-1.934.6a4.513 4.513 0 0 1-2.689-1.112.567.567 0 0 1-.022-.711Zm6.889 0a.546.546 0 0 1 .756-.066 3.452 3.452 0 0 0 2.011.8 2.28 2.28 0 0 0 1.3-.378.945.945 0 0 0 .456-.756.594.594 0 0 0-.1-.344 1.014 1.014 0 0 0-.311-.311 3.996 3.996 0 0 0-1.434-.489 5.803 5.803 0 0 1-1.344-.411 2.226 2.226 0 0 1-.978-.812c-.16-.26-.245-.56-.244-.866a1.92 1.92 0 0 1 .844-1.523 3.075 3.075 0 0 1 1.811-.555c.826.042 1.62.333 2.278.833a.54.54 0 0 1-.214.942.543.543 0 0 1-.386-.042 3.026 3.026 0 0 0-1.678-.667 2 2 0 0 0-1.177.356.84.84 0 0 0-.401.656.507.507 0 0 0 .078.3c.077.104.171.194.278.266.404.236.849.394 1.311.467.498.083.984.228 1.445.433.426.185.789.49 1.044.878.172.264.261.574.256.889a2.043 2.043 0 0 1-.9 1.623c-.564.4-1.242.61-1.934.6a4.513 4.513 0 0 1-2.689-1.112.555.555 0 0 1-.078-.711Zm16.579-4.634-2.566 6.101a.28.28 0 0 1 0 .1l-.056.067h-.078a.184.184 0 0 1-.089.066h-.411a.262.262 0 0 1-.089-.066h-.078v-.067a.28.28 0 0 1 0-.1l-1.366-3.245-1.378 3.245v.1l-.056.067h-.066l-.078.066h-.422a.253.253 0 0 1-.089-.066h-.078l-.056-.067a.557.557 0 0 0 0-.1l-3.044-6.101a.598.598 0 1 1 1.111-.444l2.056 4.856 1.355-3.223a.562.562 0 0 1 .545-.355.61.61 0 0 1 .489.411l1.344 3.223 2.045-4.856a.568.568 0 0 1 .32-.311.563.563 0 0 1 .446.011.55.55 0 0 1 .289.688Zm7.346.034a3.868 3.868 0 0 1 0 5.311 3.461 3.461 0 0 1-2.501 1.112 3.54 3.54 0 0 1-2.566-1.112 3.898 3.898 0 0 1 0-5.311 3.46 3.46 0 0 1 2.566-1.111 3.395 3.395 0 0 1 2.501 1.111Zm-.134 2.656a2.764 2.764 0 0 0-.711-1.834 2.214 2.214 0 0 0-1.667-.752 2.216 2.216 0 0 0-1.667.752 2.663 2.663 0 0 0-.711 1.834 2.59 2.59 0 0 0 .711 1.822 2.231 2.231 0 0 0 2.582.556c.287-.13.544-.32.752-.556a2.687 2.687 0 0 0 .711-1.822Zm8.112 2.9a.586.586 0 0 1-.031.443.576.576 0 0 1-.336.29.827.827 0 0 1-.233 0 .836.836 0 0 1-.411-.111 1.173 1.173 0 0 1-.334-.367 2.91 2.91 0 0 1-.211-1.255.845.845 0 0 0-.133-.456.902.902 0 0 0-.311-.3 1.817 1.817 0 0 0-.589-.255h-1.233v2.278a.59.59 0 0 1-.589.577.578.578 0 0 1-.578-.577v-6.157a.578.578 0 0 1 .578-.577h1.878a2.217 2.217 0 0 1 2.153 1.473 2.223 2.223 0 0 1-.731 2.505c.144.107.268.239.367.389.224.327.345.714.344 1.111a2.403 2.403 0 0 0 0 .611.58.58 0 0 1 .4.378Zm-1.467-4.212a1.111 1.111 0 0 0-1.111-1.111h-1.289v2.156h1.289a1.108 1.108 0 0 0 1.111-1.045Zm3.167 4.512v-6.189a.578.578 0 0 1 .578-.578h1.289a3.674 3.674 0 0 1 3.476 3.672 3.678 3.678 0 0 1-3.476 3.673h-1.233a.575.575 0 0 1-.585-.343.576.576 0 0 1-.049-.235Zm1.167-.589h.7a2.51 2.51 0 0 0 1.667-4.221 2.511 2.511 0 0 0-1.667-.791h-.644l-.056 5.012Z" fill="#fff"/><path d="M201.938 301.135v-4.589a.41.41 0 0 1 .124-.31.41.41 0 0 1 .31-.124h2.544a.432.432 0 0 1 .296.733.438.438 0 0 1-.296.134h-2.111v1.422h1.811a.447.447 0 0 1 .401.268.45.45 0 0 1 0 .332.442.442 0 0 1-.235.234.431.431 0 0 1-.166.033h-1.811v1.434h2.111a.432.432 0 0 1 0 .855h-2.544a.415.415 0 0 1-.401-.258.421.421 0 0 1-.033-.164Zm7.79-1.811v1.866c0 .055-.011.11-.033.16a.415.415 0 0 1-.677.128.42.42 0 0 1-.124-.288v-1.866a.811.811 0 0 0-.811-.778.778.778 0 0 0-.555.239.785.785 0 0 0-.223.561v1.844a.523.523 0 0 1 0 .056v.056a.436.436 0 0 1-.389.244h-.078a.421.421 0 0 1-.333-.411v-3a.42.42 0 0 1 .116-.298.41.41 0 0 1 .295-.125.378.378 0 0 1 .367.234c.253-.148.54-.229.833-.234.232-.005.461.041.672.136.212.094.4.233.551.409a1.57 1.57 0 0 1 1.222-.545 1.623 1.623 0 0 1 1.622 1.634v1.844a.408.408 0 0 1-.411.412.423.423 0 0 1-.422-.412v-1.844a.8.8 0 0 0-1.589 0l-.033-.022Zm7.434.344v1.522a.413.413 0 0 1-.676.317.423.423 0 0 1-.147-.239 1.8 1.8 0 0 1-2.355-.233 1.976 1.976 0 0 1-.534-1.367 1.967 1.967 0 0 1 .534-1.367 1.787 1.787 0 0 1 1.322-.589 1.78 1.78 0 0 1 1.033.345.438.438 0 0 1 .412-.345.422.422 0 0 1 .411.423v1.533Zm-.834 0a1.096 1.096 0 0 0-.3-.8.951.951 0 0 0-.722-.322.92.92 0 0 0-.397.081.92.92 0 0 0-.325.241 1.096 1.096 0 0 0-.3.8 1.096 1.096 0 0 0 .3.8c.092.1.203.179.328.232a.954.954 0 0 0 .394.079.99.99 0 0 0 .394-.079.985.985 0 0 0 .328-.232 1.096 1.096 0 0 0 .3-.8Zm3.2-2.922a.399.399 0 0 1-.029.163.4.4 0 0 1-.23.23.431.431 0 0 1-.163.029.42.42 0 0 1-.422-.422v-.167c0-.112.044-.219.123-.299a.425.425 0 0 1 .299-.123.396.396 0 0 1 .163.029.4.4 0 0 1 .23.23.393.393 0 0 1 .029.163v.167Zm0 1.4v3.044a.415.415 0 0 1-.124.295.413.413 0 0 1-.298.117.421.421 0 0 1-.298-.117.405.405 0 0 1-.124-.295v-3.044a.4.4 0 0 1 .12-.302.416.416 0 0 1 .302-.121.416.416 0 0 1 .422.423Zm1.623-1.989a.433.433 0 0 1 .433.433v4.545a.429.429 0 0 1-.428.364.432.432 0 0 1-.427-.364v-4.589a.428.428 0 0 1 .422-.389Z" fill="#263238"/><path d="M348.461 307.146H201.138v13.046h147.323v-13.046Z" fill="#EBEBEB"/><path d="M204.916 314.292a1.933 1.933 0 0 1 1.9-1.945 1.869 1.869 0 0 1 1.878 1.889.379.379 0 0 1-.4.311h-2.478a.957.957 0 0 0 .267.511c.198.201.463.324.745.345.283.026.568-.04.811-.189a.41.41 0 0 1 .578 0 .357.357 0 0 1 0 .5 1.975 1.975 0 0 1-2.144.392 1.963 1.963 0 0 1-1.19-1.826l.033.012Zm.845-.378h2.222a1.283 1.283 0 0 0-1.111-.823 1.111 1.111 0 0 0-1.111.823Zm7.423.044v1.867a.413.413 0 0 1-.706.291.42.42 0 0 1-.128-.291v-1.867a.811.811 0 0 0-.8-.778.793.793 0 0 0-.732.495.798.798 0 0 0-.057.305v1.845a.427.427 0 0 1-.389.244h-.078a.424.424 0 0 1-.333-.411v-3.056a.419.419 0 0 1 .117-.297.402.402 0 0 1 .294-.125.416.416 0 0 1 .378.234 1.644 1.644 0 0 1 1.504-.095c.211.094.399.232.552.406a1.575 1.575 0 0 1 1.222-.545 1.63 1.63 0 0 1 1.144.483 1.622 1.622 0 0 1 .467 1.151v1.844a.412.412 0 0 1-.411.411.426.426 0 0 1-.295-.119.428.428 0 0 1-.127-.292v-1.844a.803.803 0 0 0-.223-.562.804.804 0 0 0-.555-.238.814.814 0 0 0-.824.584.797.797 0 0 0-.02.36Zm7.434.345v1.522a.413.413 0 0 1-.412.411.433.433 0 0 1-.411-.333c-.3.218-.662.335-1.033.333a1.803 1.803 0 0 1-.721-.144 1.797 1.797 0 0 1-.601-.423 1.975 1.975 0 0 1-.523-1.366 1.956 1.956 0 0 1 .523-1.367 1.804 1.804 0 0 1 1.322-.589c.372.001.734.122 1.033.344a.448.448 0 0 1 .411-.344.423.423 0 0 1 .412.422v1.534Zm-.823 0a1.1 1.1 0 0 0-.311-.8.976.976 0 0 0-.722-.325.965.965 0 0 0-.722.325 1.086 1.086 0 0 0-.23.37 1.086 1.086 0 0 0-.07.43 1.096 1.096 0 0 0 .3.8.982.982 0 0 0 .722.313.994.994 0 0 0 .722-.313 1.098 1.098 0 0 0 .311-.8Zm3.189-2.923a.425.425 0 0 1-.094.342.434.434 0 0 1-.5.11.417.417 0 0 1-.239-.452v-.166a.43.43 0 0 1 .095-.342.43.43 0 0 1 .322-.149.419.419 0 0 1 .322.149.441.441 0 0 1 .085.16.43.43 0 0 1 .009.182v.166Zm0 1.4v3.045a.424.424 0 0 1-.416.354.424.424 0 0 1-.417-.354v-3.045a.426.426 0 0 1 .239-.451.423.423 0 0 1 .594.451Zm1.656-1.989a.443.443 0 0 1 .445.434v4.589a.447.447 0 0 1-.135.303.438.438 0 0 1-.31.119.422.422 0 0 1-.422-.422v-4.589a.432.432 0 0 1 .422-.434Zm4.744 3.512v1.522a.393.393 0 0 1-.117.294.39.39 0 0 1-.294.117.409.409 0 0 1-.4-.333 1.8 1.8 0 0 1-2.355-.234 1.974 1.974 0 0 1-.534-1.366 1.965 1.965 0 0 1 .534-1.367 1.787 1.787 0 0 1 1.322-.589c.372.004.733.124 1.033.344a.425.425 0 0 1 .4-.344.415.415 0 0 1 .295.124.423.423 0 0 1 .116.298v1.534Zm-.822 0a1.104 1.104 0 0 0-.3-.8.967.967 0 0 0-.722-.323.935.935 0 0 0-.722.323 1.086 1.086 0 0 0-.23.37 1.086 1.086 0 0 0-.07.43 1.096 1.096 0 0 0 .3.8.965.965 0 0 0 .722.311 1.003 1.003 0 0 0 .722-.311 1.112 1.112 0 0 0 .3-.8Zm5.923 1.522a.423.423 0 0 1-.688.319.41.41 0 0 1-.145-.241 1.837 1.837 0 0 1-1.056.333c-.515 0-1.01-.205-1.375-.569a1.949 1.949 0 0 1 0-2.751c.365-.364.86-.569 1.375-.569.371 0 .733.116 1.034.333v-1.467a.432.432 0 0 1 .855 0v4.612Zm-1.889-2.622a.976.976 0 0 0-.733.311 1.108 1.108 0 0 0-.311.789 1.054 1.054 0 0 0 .311.766.974.974 0 0 0 1.126.24.968.968 0 0 0 .33-.24 1.04 1.04 0 0 0 .311-.766 1.108 1.108 0 0 0-.66-1.03.965.965 0 0 0-.418-.07h.044Zm5.845-.445a.423.423 0 0 1-.411.422.753.753 0 0 0-.467.145 1.109 1.109 0 0 0-.355.366 2.6 2.6 0 0 0-.323.656v1.478a.42.42 0 0 1-.124.295.413.413 0 0 1-.298.116.393.393 0 0 1-.294-.117.393.393 0 0 1-.117-.294v-3.067c0-.053.011-.106.031-.156a.409.409 0 0 1 .224-.217.414.414 0 0 1 .156-.027.424.424 0 0 1 .158.027.406.406 0 0 1 .264.373v.056c.05-.058.106-.11.167-.156.287-.198.629-.303.978-.3a.414.414 0 0 1 .29.113.409.409 0 0 1 .09.131c.02.05.031.103.031.156Zm.356 1.534a1.937 1.937 0 0 1 1.9-1.945 1.869 1.869 0 0 1 1.878 1.889.379.379 0 0 1-.4.311h-2.478c.039.192.131.37.267.511.2.199.463.321.744.345.284.026.568-.04.811-.189a.434.434 0 0 1 .589 0 .353.353 0 0 1 0 .5 1.967 1.967 0 0 1-1.4.511 1.917 1.917 0 0 1-1.356-.571 1.917 1.917 0 0 1-.555-1.362Zm.856-.378h2.222a1.283 1.283 0 0 0-1.111-.823 1.11 1.11 0 0 0-1.111.823Zm3.966 1.211a.415.415 0 0 1 .455-.092c.05.021.096.053.134.092.243.201.542.321.856.344a.995.995 0 0 0 .522-.155.308.308 0 0 0 .145-.234.167.167 0 0 0 0-.077.267.267 0 0 0-.1-.089 1.852 1.852 0 0 0-.623-.222 3.013 3.013 0 0 1-.677-.201 1.242 1.242 0 0 1-.534-.455.907.907 0 0 1-.133-.489 1.102 1.102 0 0 1 .455-.856c.282-.191.615-.292.956-.289.426.012.837.164 1.167.434a.435.435 0 0 1 .133.578.423.423 0 0 1-.578.1 1.398 1.398 0 0 0-.722-.278.805.805 0 0 0-.467.133.245.245 0 0 0-.083.074.244.244 0 0 0-.039.104v.067c0 .066 0 0 .078.077.178.092.369.156.567.189.249.048.492.126.722.234.23.086.426.246.555.455.092.155.142.331.145.511a1.105 1.105 0 0 1-.489.9c-.296.207-.65.316-1.011.312a2.223 2.223 0 0 1-1.389-.534.412.412 0 0 1-.141-.483.433.433 0 0 1 .096-.15Zm3.756 0a.39.39 0 0 1 .289-.123.39.39 0 0 1 .289.123c.242.201.541.322.856.344.188-.002.372-.056.533-.155a.293.293 0 0 0 .133-.234.085.085 0 0 0 0-.077s0-.056-.1-.089a1.839 1.839 0 0 0-.622-.222 3.088 3.088 0 0 1-.678-.2 1.338 1.338 0 0 1-.544-.456 1 1 0 0 1-.134-.489 1.118 1.118 0 0 1 .467-.856c.281-.193.615-.294.956-.289.425.014.835.166 1.166.434a.423.423 0 0 1 .123.578.42.42 0 0 1-.578.1 1.362 1.362 0 0 0-.711-.278.774.774 0 0 0-.467.133.236.236 0 0 0-.122.178.127.127 0 0 0 0 .067.328.328 0 0 0 .089.077 1.8 1.8 0 0 0 .566.189c.25.048.492.126.723.234.23.086.426.246.555.455a.936.936 0 0 1 .145.511 1.118 1.118 0 0 1-.489.901c-.296.207-.65.316-1.011.311a2.224 2.224 0 0 1-1.378-.534.389.389 0 0 1-.123-.132.4.4 0 0 1-.031-.35.41.41 0 0 1 .098-.151Zm9.134-1.611c.005.433-.098.861-.3 1.244a1.701 1.701 0 0 1-.189.278 1.248 1.248 0 0 1-.611.367.61.61 0 0 1-.2 0 .67.67 0 0 1-.589-.289.627.627 0 0 1-.133-.234 1.491 1.491 0 0 1-.7.178 1.437 1.437 0 0 1-1.112-.467 1.632 1.632 0 0 1-.433-1.111 1.602 1.602 0 0 1 .937-1.471c.192-.082.399-.122.608-.118a1.498 1.498 0 0 1 1.111.478c.279.302.43.7.422 1.111v1.011a.586.586 0 0 0 .1-.122 1.859 1.859 0 0 0-.943-2.558 1.86 1.86 0 0 0-2.021.398 1.851 1.851 0 0 0 .269 2.853 1.85 1.85 0 0 0 1.028.318c.155.018.312.018.467 0a.422.422 0 0 1 .522.3.443.443 0 0 1-.311.534 2.725 2.725 0 0 1-2.952-1.14 2.719 2.719 0 0 1 1.489-4.104 2.726 2.726 0 0 1 3.508 2.599l.033-.055Zm-2.078 0a.756.756 0 0 0-.189-.523.636.636 0 0 0-.9 0 .815.815 0 0 0 0 1.045.628.628 0 0 0 .9 0 .761.761 0 0 0 .245-.522h-.056Zm7.834.444v1.867a.412.412 0 0 1-.706.291.42.42 0 0 1-.127-.291v-1.867a.816.816 0 0 0-.8-.778.798.798 0 0 0-.562.235.786.786 0 0 0-.227.565v1.845a.437.437 0 0 1-.389.244h-.078a.419.419 0 0 1-.333-.411v-3.056a.417.417 0 0 1 .251-.39.419.419 0 0 1 .383.029.418.418 0 0 1 .155.173 1.641 1.641 0 0 1 1.504-.095c.211.093.399.232.551.406a1.55 1.55 0 0 1 1.211-.545 1.632 1.632 0 0 1 1.152.479c.15.152.27.332.351.53.08.198.121.411.12.625v1.844a.409.409 0 0 1-.411.411.424.424 0 0 1-.423-.411v-1.844a.78.78 0 0 0-.484-.739.776.776 0 0 0-.305-.061.814.814 0 0 0-.813.587.813.813 0 0 0-.02.357Zm7.434.345v1.522a.412.412 0 0 1-.411.411.425.425 0 0 1-.262-.097.428.428 0 0 1-.149-.236c-.3.218-.662.335-1.033.333a1.791 1.791 0 0 1-1.323-.567 1.977 1.977 0 0 1-.533-1.366 1.969 1.969 0 0 1 .533-1.367 1.808 1.808 0 0 1 1.323-.589c.372.001.734.122 1.033.344a.448.448 0 0 1 .411-.344c.11.003.215.049.292.127a.426.426 0 0 1 .119.295v1.534Zm-.822 0a1.118 1.118 0 0 0-.311-.8.97.97 0 0 0-1.118-.24 1.118 1.118 0 0 0-.627 1.04 1.13 1.13 0 0 0 .07.43c.052.137.13.263.23.37a.996.996 0 0 0 1.116.231.996.996 0 0 0 .329-.231 1.122 1.122 0 0 0 .367-.8h-.056Zm3.189-2.923a.417.417 0 0 1-.239.452.435.435 0 0 1-.355 0 .436.436 0 0 1-.145-.11.425.425 0 0 1-.094-.342v-.166a.43.43 0 0 1 .009-.182.423.423 0 0 1 .824.182v.166Zm0 1.4v3.045a.424.424 0 0 1-.69.254.424.424 0 0 1-.143-.254v-3.045a.426.426 0 0 1 .094-.341.419.419 0 0 1 .644 0c.04.046.069.101.085.16a.41.41 0 0 1 .01.181Zm1.656-1.989a.443.443 0 0 1 .444.434v4.589a.427.427 0 0 1-.278.393.413.413 0 0 1-.166.029.42.42 0 0 1-.423-.422v-4.589a.432.432 0 0 1 .423-.434Zm1.944 4.345a.591.591 0 0 1 .589.589.58.58 0 0 1-.215.285.583.583 0 0 1-.681 0 .593.593 0 0 1-.215-.285.592.592 0 0 1 .522-.589Zm.878-.833a1.988 1.988 0 0 1 1.978-1.956c.448.005.881.158 1.234.433a.41.41 0 0 1 .158.273.428.428 0 0 1-.08.305.428.428 0 0 1-.121.107.436.436 0 0 1-.152.052.413.413 0 0 1-.305-.081 1.178 1.178 0 0 0-.734-.256c-.294 0-.577.117-.785.326a1.108 1.108 0 0 0 0 1.571c.208.209.491.326.785.326.264-.003.521-.089.734-.245a.417.417 0 0 1 .305-.081.418.418 0 0 1 .343.303.41.41 0 0 1-.148.434 2.101 2.101 0 0 1-1.234.411 1.968 1.968 0 0 1-1.978-1.922Zm4.956 1.366a1.879 1.879 0 0 1-.545-1.366 1.975 1.975 0 0 1 .545-1.367 1.825 1.825 0 0 1 1.333-.589 1.771 1.771 0 0 1 1.301.589c.354.366.55.857.544 1.367a1.84 1.84 0 0 1-.544 1.366 1.74 1.74 0 0 1-1.301.6 1.806 1.806 0 0 1-1.333-.6Zm.311-1.366c-.009.298.09.59.278.822a1.018 1.018 0 0 0 .744.289.984.984 0 0 0 .712-.289 1.224 1.224 0 0 0 0-1.634 1.114 1.114 0 0 0-.712-.288c-.275 0-.54.103-.744.288a1.237 1.237 0 0 0-.278.812Zm7.445-.345v1.867a.412.412 0 0 1-.706.291.424.424 0 0 1-.127-.291v-1.867a.811.811 0 0 0-.8-.778.798.798 0 0 0-.562.235.802.802 0 0 0-.227.565v1.845a.437.437 0 0 1-.389.244h-.078a.419.419 0 0 1-.333-.411v-3.056a.417.417 0 0 1 .251-.39.42.42 0 0 1 .16-.032.416.416 0 0 1 .378.234 1.644 1.644 0 0 1 1.504-.095c.211.093.399.232.552.406.148-.175.334-.315.544-.409a1.53 1.53 0 0 1 .667-.136 1.623 1.623 0 0 1 1.622 1.634v1.844a.412.412 0 0 1-.411.411.423.423 0 0 1-.422-.411v-1.844a.8.8 0 0 0-.227-.565.779.779 0 0 0-.562-.235.816.816 0 0 0-.642.273.813.813 0 0 0-.192.671Z" fill="#C7C7C7"/><path d="m207.805 265.065 16.746-.133 16.746-.044 33.502-.1 33.492.1 16.746.044 16.745.133-16.745.134-16.746.055-33.492.089-33.502-.089-16.746-.055-16.746-.134Zm12.368 7.423 13.656-.133 13.657-.045 27.313-.1 27.314.1 13.645.045 13.657.133-13.657.133-13.645.056-27.314.089-27.313-.089-13.657-.056-13.656-.133Z" fill="#263238"/><path d="m201.138 344.849 18.413-.144 18.412-.044 36.837-.089 36.825.089 18.423.044 18.413.144-18.413.134-18.423.044-36.825.089-36.837-.089-18.412-.044-18.413-.134Z" fill="#EBEBEB"/><path d="M332.437 364.151H217.15v17.901h115.287v-17.901Z" fill="#6D55F1"/><path d="M241.008 374.741a1.276 1.276 0 0 0-.566-1.056 2.013 2.013 0 0 0-.812-.344h-1.755v2.766a.25.25 0 0 1-.072.173.244.244 0 0 1-.417-.173v-6.522a.234.234 0 0 1 .222-.234h2a2 2 0 0 1 .845 3.801h.1a1.762 1.762 0 0 1 .933 1.555c-.009.274.021.547.089.812a.407.407 0 0 0 .111.177.266.266 0 0 1 .158.036c.048.027.086.07.109.12a.278.278 0 0 1-.167.322h-.133a.552.552 0 0 1-.456-.322 2.46 2.46 0 0 1-.189-1.111Zm-1.4-4.923h-1.733v3.023h1.778a1.513 1.513 0 0 0 0-3.023h-.045Zm3.611 4.067a2.379 2.379 0 0 1 4.745-.178.229.229 0 0 1-.076.162.223.223 0 0 1-.078.047.253.253 0 0 1-.09.014h-4.023a1.935 1.935 0 0 0 1.9 1.889 1.822 1.822 0 0 0 1.578-.9.253.253 0 0 1 .322-.078.266.266 0 0 1 .089.344c-.21.339-.503.618-.851.812a2.338 2.338 0 0 1-1.138.299 2.41 2.41 0 0 1-2.378-2.411Zm.511-.389h3.712a1.882 1.882 0 0 0-1.856-1.59 1.883 1.883 0 0 0-1.856 1.59Zm5.589 1.811a.248.248 0 0 1 .173-.071c.064 0 .126.026.172.071.425.349.951.551 1.5.578.335.01.662-.1.922-.311a.728.728 0 0 0 .378-.6.768.768 0 0 0-.356-.6 2.456 2.456 0 0 0-1.044-.356 2.709 2.709 0 0 1-1.111-.377 1.02 1.02 0 0 1-.534-.878 1.234 1.234 0 0 1 .534-.967 2.106 2.106 0 0 1 1.2-.322 2.643 2.643 0 0 1 1.455.522.264.264 0 0 1 .078.344.238.238 0 0 1-.152.106.234.234 0 0 1-.181-.039 2.226 2.226 0 0 0-1.2-.489 1.5 1.5 0 0 0-.934.278.767.767 0 0 0-.311.567.61.61 0 0 0 .278.489c.307.179.647.293 1 .333.417.062.82.198 1.189.4a1.23 1.23 0 0 1 .556 1 1.261 1.261 0 0 1-.567 1 1.999 1.999 0 0 1-1.211.389 2.946 2.946 0 0 1-1.811-.7.228.228 0 0 1-.101-.178.24.24 0 0 1 .017-.103.25.25 0 0 1 .061-.086Zm4.912-1.422a2.379 2.379 0 0 1 4.745-.178.248.248 0 0 1-.022.089.233.233 0 0 1-.223.134h-4.022a1.93 1.93 0 0 0 1.9 1.889 1.822 1.822 0 0 0 1.578-.9.244.244 0 0 1 .468.07.271.271 0 0 1-.012.106.248.248 0 0 1-.056.09 2.327 2.327 0 0 1-1.978 1.111 2.41 2.41 0 0 1-2.378-2.411Zm.511-.389h3.712a1.882 1.882 0 0 0-1.856-1.59 1.881 1.881 0 0 0-1.856 1.59Zm7.234-1.833a.252.252 0 0 1-.233.244h-.589v3.567a.391.391 0 0 0 .113.254.391.391 0 0 0 .254.113c.065 0 .127.026.173.071a.245.245 0 0 1-.173.418.835.835 0 0 1-.867-.856v-3.567h-.611c-.233 0-.233-.122-.233-.244s0-.234.233-.234h.611v-1.822a.265.265 0 0 1 .245-.244.27.27 0 0 1 .171.076.271.271 0 0 1 .084.168v1.822h.634a.247.247 0 0 1 .188.234Zm5.4-2.101a.24.24 0 0 1 .073-.169.245.245 0 0 1 .172-.064h1.978a2.001 2.001 0 0 1 1.317 3.355c-.343.37-.814.597-1.317.634l-1.778.045v2.744a.232.232 0 0 1-.019.094.224.224 0 0 1-.053.079.224.224 0 0 1-.079.053.232.232 0 0 1-.094.019.231.231 0 0 1-.093-.019.224.224 0 0 1-.079-.053.224.224 0 0 1-.053-.079.232.232 0 0 1-.019-.094l.044-6.545Zm2.223 3.279a1.51 1.51 0 0 0 0-3.023h-1.778v3.023h1.778Zm7.612-1.178v4.444a.267.267 0 0 1-.001.109.26.26 0 0 1-.048.097.24.24 0 0 1-.296.067.245.245 0 0 1-.133-.273v-.733a2.22 2.22 0 0 1-1.845.978 2.458 2.458 0 0 1-2.29-2.45 2.456 2.456 0 0 1 2.29-2.45 2.275 2.275 0 0 1 1.845.955v-.722c0-.032.006-.063.019-.092a.226.226 0 0 1 .133-.127.222.222 0 0 1 .092-.014.23.23 0 0 1 .158.06c.043.039.07.093.076.151Zm-.478 2.222a1.843 1.843 0 0 0-2.279-1.658 1.844 1.844 0 0 0 .434 3.636 1.909 1.909 0 0 0 1.823-1.989l.022.011Zm2.201 1.422a.221.221 0 0 1 .076-.051.23.23 0 0 1 .257.051c.427.345.952.547 1.5.578a1.44 1.44 0 0 0 .933-.311.712.712 0 0 0 .367-.6.798.798 0 0 0-.344-.6 2.53 2.53 0 0 0-1.045-.356 2.848 2.848 0 0 1-1.111-.377 1.03 1.03 0 0 1-.522-.878c.008-.19.059-.376.149-.544.091-.167.218-.312.373-.423a2.225 2.225 0 0 1 1.211-.322 2.683 2.683 0 0 1 1.456.522.248.248 0 0 1 .106.158.244.244 0 0 1-.04.187.208.208 0 0 1-.062.067.219.219 0 0 1-.176.037.22.22 0 0 1-.084-.038 2.223 2.223 0 0 0-1.2-.489 1.484 1.484 0 0 0-.933.278.761.761 0 0 0-.311.567.606.606 0 0 0 .277.489c.307.179.648.293 1 .333.417.064.819.199 1.189.4a1.239 1.239 0 0 1 .556 1 1.273 1.273 0 0 1-.567 1 2.029 2.029 0 0 1-1.222.389 2.975 2.975 0 0 1-1.833-.789.222.222 0 0 1 0-.278Zm4.833 0a.247.247 0 0 1 .172-.071c.065 0 .127.026.173.071.426.347.951.55 1.5.578a1.44 1.44 0 0 0 .933-.311.741.741 0 0 0 .367-.6.798.798 0 0 0-.345-.6 2.506 2.506 0 0 0-1.044-.356 2.848 2.848 0 0 1-1.111-.377 1.015 1.015 0 0 1-.523-.878 1.227 1.227 0 0 1 .523-.967 2.108 2.108 0 0 1 1.2-.322 2.721 2.721 0 0 1 1.467.522.253.253 0 0 1 .101.159.251.251 0 0 1-.1.254.232.232 0 0 1-.268-.002 2.226 2.226 0 0 0-1.2-.489 1.45 1.45 0 0 0-.922.278.758.758 0 0 0-.312.567.599.599 0 0 0 .278.489c.306.181.647.295 1 .333.417.064.819.199 1.189.4a1.228 1.228 0 0 1 .545 1 1.254 1.254 0 0 1-.556 1 2.053 2.053 0 0 1-1.222.389 2.974 2.974 0 0 1-1.811-.7.24.24 0 0 1-.074-.075.23.23 0 0 1-.018-.204.233.233 0 0 1 .058-.088Zm6.756.978a.161.161 0 0 1-.1-.111l-1.845-4.378a.243.243 0 0 1 .123-.311.226.226 0 0 1 .184 0 .226.226 0 0 1 .127.133l1.633 3.856 1.111-2.689a.265.265 0 0 1 .089-.11.266.266 0 0 1 .134-.046.291.291 0 0 1 .244.156l1.111 2.689 1.612-3.856a.241.241 0 0 1 .128-.129.246.246 0 0 1 .183-.004.235.235 0 0 1 .133.311l-1.833 4.356a.259.259 0 0 1-.089.122.179.179 0 0 1-.123.056.238.238 0 0 1-.115-.053.255.255 0 0 1-.074-.103l-1.111-2.711-1.111 2.7a.253.253 0 0 1-.211.156h-.089l-.111-.034Zm8.812-4.856a2.46 2.46 0 0 1 2.363 1.423 2.455 2.455 0 1 1-4.686 1.022 2.391 2.391 0 0 1 2.323-2.445Zm0 4.445a1.98 1.98 0 0 0 1.919-1.124 1.976 1.976 0 0 0-2.509-2.69 1.976 1.976 0 0 0-1.255 1.836 1.92 1.92 0 0 0 1.845 1.956v.022Zm3.956-4.2a.24.24 0 0 1 .158-.229.247.247 0 0 1 .097-.016.248.248 0 0 1 .089.022.227.227 0 0 1 .133.223v1.111l.078-.122a2.37 2.37 0 0 1 1.956-1.2.244.244 0 0 1 .173.417.245.245 0 0 1-.173.072 1.782 1.782 0 0 0-1.423.8 4.845 4.845 0 0 0-.588 1.111.15.15 0 0 0 0 .089v2.144a.233.233 0 0 1-.32.229.246.246 0 0 1-.139-.132.25.25 0 0 1-.019-.097l-.022-4.422Zm8.067 3.7a2.348 2.348 0 0 1-1.878.956 2.454 2.454 0 0 1-1.629-4.128 2.459 2.459 0 0 1 1.629-.773 2.349 2.349 0 0 1 1.878.956v-2.822a.244.244 0 1 1 .488 0v6.522a.244.244 0 1 1-.488 0v-.711Zm0-1.411v-.156a1.957 1.957 0 0 0-3.91.078 1.952 1.952 0 0 0 1.916 1.955 1.96 1.96 0 0 0 1.994-1.877Z" fill="#fff"/><path d="M304.935 205.45c14.22 0 25.747-11.528 25.747-25.747s-11.527-25.746-25.747-25.746c-14.219 0-25.746 11.527-25.746 25.746s11.527 25.747 25.746 25.747Z" fill="#455A64"/><path d="M236.497 234.43c9.714 0 17.59-7.876 17.59-17.591s-7.876-17.59-17.59-17.59c-9.715 0-17.591 7.875-17.591 17.59s7.876 17.591 17.591 17.591Z" fill="#EBEBEB"/><path d="M289.234 174.903v18.446h-5.223v-18.446c0-7.023-5.334-12.735-11.89-12.735-6.556 0-11.89 5.712-11.89 12.735v18.446h-5.222v-18.446c0-10.057 7.678-18.235 17.112-18.235 9.434 0 17.113 8.178 17.113 18.235Z" fill="#C7C7C7"/><path d="m255.009 179.703 5.222.211v13.457h-5.222v-13.668Zm34.225 1.4v12.268h-5.223v-12.49l5.223.222Z" fill="#A6A6A6"/><path d="M295.923 182.859h-47.604v43.181h47.604v-43.181Z" fill="#6D55F1"/><path opacity=".1" d="M295.923 182.859h-23.801v43.181h23.801v-43.181Z" fill="#000"/><path d="m274.133 206.027 2 9.457h-8.467l2-9.457a4.233 4.233 0 1 1 4.445 0h.022Z" fill="#263238"/><path d="M261.921 423.822a2.811 2.811 0 1 1-5.622-.021 2.811 2.811 0 0 1 5.622.021Z" fill="#DBDBDB"/><path d="M279.055 423.822a4.255 4.255 0 1 1-6.619-3.55 4.258 4.258 0 0 1 2.363-.717 4.265 4.265 0 0 1 4.256 4.267Z" fill="#C7C7C7"/><path d="M293.301 423.822c0 .559-.165 1.104-.476 1.568a2.817 2.817 0 0 1-2.897 1.201 2.825 2.825 0 0 1-2.057-3.849 2.822 2.822 0 0 1 5.43 1.08Z" fill="#DBDBDB"/><path d="M232.074 251.609v-5.912a.548.548 0 0 1 .163-.389.542.542 0 0 1 .392-.155h3.267a.552.552 0 0 1 .387.937.568.568 0 0 1-.387.174h-2.711v1.833h2.333a.556.556 0 0 1 0 1.112h-2.333v2.4a.554.554 0 0 1-.556.544.558.558 0 0 1-.513-.333.548.548 0 0 1-.042-.211Zm5.667-.189a2.513 2.513 0 0 1-.689-1.756c.008-.65.253-1.274.689-1.756a2.37 2.37 0 0 1 1.723-.755 2.219 2.219 0 0 1 1.678.755c.449.475.699 1.103.7 1.756a2.427 2.427 0 0 1-.7 1.756 2.25 2.25 0 0 1-.756.566c-.29.132-.604.2-.922.201a2.331 2.331 0 0 1-1.723-.767Zm.4-1.756c-.01.385.12.76.367 1.056a1.334 1.334 0 0 0 .956.378 1.303 1.303 0 0 0 .922-.378 1.612 1.612 0 0 0 0-2.1 1.397 1.397 0 0 0-.922-.378 1.418 1.418 0 0 0-.956.378 1.59 1.59 0 0 0-.367 1.044Zm8.278-1.978a.53.53 0 0 1-.533.522.993.993 0 0 0-.6.189 1.492 1.492 0 0 0-.456.489c-.181.254-.32.536-.411.834v1.9a.544.544 0 0 1-.556.533.534.534 0 0 1-.533-.533v-3.934a.534.534 0 0 1 .533-.522.544.544 0 0 1 .556.522v.111c.058-.075.125-.142.2-.2a2.228 2.228 0 0 1 1.267-.389.526.526 0 0 1 .533.478Zm5.779 2v1.856a2.407 2.407 0 0 1-2.277 2.397 2.403 2.403 0 0 1-1.179-.241.534.534 0 0 1-.233-.722.552.552 0 0 1 .722-.256c.173.098.368.148.567.144a1.341 1.341 0 0 0 1.311-1.111 2.38 2.38 0 0 1-1.311.4 2.267 2.267 0 0 1-1.7-.767 2.456 2.456 0 0 1-.7-1.755 2.596 2.596 0 0 1 .7-1.778 2.354 2.354 0 0 1 1.7-.745c.482-.008.954.14 1.344.423a.526.526 0 0 1 .523-.423.535.535 0 0 1 .533.534v2.044Zm-1.111 0a1.57 1.57 0 0 0-.389-1.022 1.25 1.25 0 0 0-.945-.433 1.213 1.213 0 0 0-.922.433 1.47 1.47 0 0 0-.4 1.022 1.447 1.447 0 0 0 .4 1.034 1.23 1.23 0 0 0 .922.4 1.26 1.26 0 0 0 .945-.4c.281-.276.445-.651.456-1.045l-.067.011Zm3.7 1.734a2.472 2.472 0 0 1-.52-.809 2.473 2.473 0 0 1-.169-.947 2.604 2.604 0 0 1 .689-1.756 2.344 2.344 0 0 1 1.722-.755 2.218 2.218 0 0 1 1.667.755 2.51 2.51 0 0 1 .7 1.756 2.362 2.362 0 0 1-.7 1.756 2.22 2.22 0 0 1-1.667.767 2.316 2.316 0 0 1-1.722-.767Zm.4-1.756c-.009.383.117.756.356 1.056.26.248.607.384.966.378.345-.001.676-.137.923-.378a1.612 1.612 0 0 0 0-2.1 1.43 1.43 0 0 0-.923-.378c-.357.005-.7.139-.966.378a1.639 1.639 0 0 0-.356 1.044Zm7.445-1.967a.566.566 0 0 1-.555.556h-.245v2.789a.55.55 0 0 1 .507.353.579.579 0 0 1 .038.214.54.54 0 0 1-.335.506.518.518 0 0 1-.21.038 1.114 1.114 0 0 1-1.111-1.111v-2.789h-.3a.558.558 0 0 1-.545-.556.546.546 0 0 1 .545-.544h.3v-1.456a.553.553 0 0 1 .556-.555.554.554 0 0 1 .555.555v1.456h.245a.556.556 0 0 1 .555.544Zm7.201 1.734h-1.223v2.222a.553.553 0 0 1-.566.545.544.544 0 0 1-.545-.545v-5.911a.544.544 0 0 1 .545-.545h1.789a2.147 2.147 0 0 1 2.12 2.995 2.144 2.144 0 0 1-2.12 1.283v-.044Zm-1.223-1.111h1.223a1.03 1.03 0 0 0 .798-.261 1.032 1.032 0 0 0-.371-1.75c-.138-.045-.283-.06-.427-.045h-1.223v2.056Zm8.834 1.344v1.956a.525.525 0 0 1-1.045.1 2.227 2.227 0 0 1-1.333.433 2.305 2.305 0 0 1-1.701-.733 2.624 2.624 0 0 1 0-3.523 2.322 2.322 0 0 1 1.701-.744c.48 0 .948.156 1.333.444a.523.523 0 0 1 .572-.472.525.525 0 0 1 .473.572v1.967Zm-1.112 0a1.504 1.504 0 0 0-.389-1.033 1.255 1.255 0 0 0-.933-.411 1.23 1.23 0 0 0-.933.411 1.502 1.502 0 0 0-.378 1.033c-.005.379.129.747.378 1.034a1.293 1.293 0 0 0 .933.388c.35 0 .686-.14.933-.388.272-.277.431-.646.445-1.034h-.056Zm2.835 1.056a.525.525 0 0 1 .361-.197.529.529 0 0 1 .394.119c.309.27.701.427 1.111.444.239-.002.473-.067.678-.188a.436.436 0 0 0 .178-.3.118.118 0 0 0 0-.1.248.248 0 0 0-.122-.123 2.31 2.31 0 0 0-.8-.277 4.26 4.26 0 0 1-.878-.267 1.71 1.71 0 0 1-.689-.578 1.205 1.205 0 0 1-.167-.633 1.418 1.418 0 0 1 .589-1.112 2.224 2.224 0 0 1 1.234-.366 2.644 2.644 0 0 1 1.5.544.558.558 0 0 1 .155.745.52.52 0 0 1-.733.144 1.73 1.73 0 0 0-.922-.378 1.013 1.013 0 0 0-.6.189c-.134.089-.167.178-.167.223v.077a.245.245 0 0 0 .111.1c.224.134.474.218.733.245.319.055.629.153.923.289.292.118.54.323.711.589.122.2.188.431.189.666a1.433 1.433 0 0 1-.623 1.112c-.38.265-.835.405-1.3.4a2.91 2.91 0 0 1-1.789-.689.547.547 0 0 1-.077-.678Zm4.822 0a.509.509 0 0 1 .356-.196.515.515 0 0 1 .389.118c.31.268.701.425 1.111.444.242 0 .48-.065.689-.188a.446.446 0 0 0 .177-.3.118.118 0 0 0 0-.1s0-.078-.133-.123a2.155 2.155 0 0 0-.8-.277 4.278 4.278 0 0 1-.878-.267 1.641 1.641 0 0 1-.689-.578 1.195 1.195 0 0 1-.166-.633 1.404 1.404 0 0 1 .589-1.112 2.22 2.22 0 0 1 1.233-.366 2.644 2.644 0 0 1 1.5.544.554.554 0 0 1 .156.745.552.552 0 0 1-.149.148.53.53 0 0 1-.596-.004 1.692 1.692 0 0 0-.911-.378.993.993 0 0 0-.6.189c-.133.089-.167.178-.167.223v.077a.25.25 0 0 0 .111.1c.224.134.474.218.734.245.322.054.636.151.933.289.291.121.538.326.711.589.123.2.188.431.189.666a1.405 1.405 0 0 1-.633 1.112 2.236 2.236 0 0 1-1.3.4 2.903 2.903 0 0 1-1.778-.689.536.536 0 0 1-.078-.678Zm11.445-2.767-1.655 3.878v.089l-.056.067h-.455a.11.11 0 0 0-.067 0h-.089a.132.132 0 0 1-.056 0v-.067a.66.66 0 0 1 0-.089l-.733-1.722-.711 1.722v.089l-.067.067v.055c0 .056-.066 0-.089 0h-.311a.112.112 0 0 1-.089 0h-.055v-.155l-1.645-3.878a.526.526 0 0 1 .489-.728.51.51 0 0 1 .363.163.507.507 0 0 1 .104.176l1.178 2.689.7-1.667a.526.526 0 0 1 .489-.322.51.51 0 0 1 .489.322l.711 1.667 1.178-2.689a.494.494 0 0 1 .274-.296.515.515 0 0 1 .403-.004.521.521 0 0 1-.3.633Zm2.389 3.467a2.487 2.487 0 0 1-.525-.808 2.483 2.483 0 0 1-.175-.948 2.616 2.616 0 0 1 .7-1.756 2.336 2.336 0 0 1 1.712-.755 2.211 2.211 0 0 1 1.677.755c.45.475.7 1.103.701 1.756a2.41 2.41 0 0 1-.701 1.756c-.208.24-.466.433-.755.566a2.241 2.241 0 0 1-1.86 0 2.292 2.292 0 0 1-.774-.566Zm.4-1.756c-.013.384.113.759.356 1.056.256.247.6.383.956.378a1.297 1.297 0 0 0 .922-.378 1.612 1.612 0 0 0 0-2.1 1.376 1.376 0 0 0-.922-.378 1.441 1.441 0 0 0-.956.378c-.24.294-.366.665-.356 1.044Zm8.267-1.978a.53.53 0 0 1-.533.522c-.215 0-.424.066-.6.189-.185.129-.34.296-.456.489-.181.254-.32.536-.411.834v1.9a.544.544 0 0 1-.929.376.51.51 0 0 1-.149-.376v-3.934a.522.522 0 0 1 .522-.522.544.544 0 0 1 .556.522v.111a.912.912 0 0 1 .211-.2c.37-.253.808-.389 1.256-.389a.526.526 0 0 1 .533.478Zm5.59 3.923a.524.524 0 0 1-.152.384.545.545 0 0 1-.174.119.546.546 0 0 1-.207.041.537.537 0 0 1-.534-.433c-.401.28-.877.431-1.366.433a2.5 2.5 0 1 1 0-5c.481-.001.95.146 1.344.422v-1.889a.556.556 0 0 1 .168-.382.541.541 0 0 1 .388-.151.534.534 0 0 1 .533.533v5.923Zm-2.433-3.334a1.307 1.307 0 0 0-.934.411 1.42 1.42 0 0 0-.4 1.011 1.379 1.379 0 0 0 .4.989 1.278 1.278 0 0 0 1.878 0 1.452 1.452 0 0 0 0-2 1.306 1.306 0 0 0-.944-.444v.033Zm6.378 1.022v.645a.487.487 0 0 1-.14.349.476.476 0 0 1-.349.14.492.492 0 0 1-.489-.489v-1.033a.506.506 0 0 1 .489-.489c.294 0 .577-.117.785-.326a1.109 1.109 0 0 0 0-1.571 1.108 1.108 0 0 0-.785-.326 1.106 1.106 0 0 0-.956.556.501.501 0 0 1-.678.178.488.488 0 0 1-.178-.667 2.097 2.097 0 0 1 1.699-1.04 2.102 2.102 0 0 1 1.512 3.666 2.091 2.091 0 0 1-.91.474v-.067Zm0 2.223v.178a.476.476 0 0 1-.489.489.489.489 0 0 1-.489-.489v-.178a.488.488 0 0 1 .489-.489.477.477 0 0 1 .489.456v.033Z" fill="#263238"/><path d="m113.897 366.151 2.634 15.813 17.868 96.474h2.878l-12.99-96.474-1.922-15.813h-8.468Z" fill="#DBDBDB"/><path d="M122.365 366.151h-8.468l2.634 15.813h7.756l-1.922-15.813Z" fill="#A6A6A6"/><path d="M57.793 478.438h2.878l17.868-96.474 2.634-15.813h-8.468l-1.922 15.813-12.99 96.474Z" fill="#DBDBDB"/><path d="m72.706 366.151-1.923 15.813h7.756l2.634-15.813h-8.467Z" fill="#A6A6A6"/><path d="M4.211 478.438H7.09l17.868-96.474 2.634-15.813h-8.467L17.2 381.964 4.21 478.438Z" fill="#DBDBDB"/><path d="M17.201 381.964h7.756l2.634-15.813h-8.468l-1.922 15.813Z" fill="#A6A6A6"/><path d="M8.778 373.574h130.9v-13.79H90.674l-16.468-71.828H13.768l-4.99 85.618Z" fill="#DBDBDB"/><path d="M8.778 373.574h7.134l4.656-85.618h-6.8l-4.99 85.618Z" fill="#A6A6A6"/><path d="M66.616 473.115c2.222 2.123 69.594 17.846 72.061 17.535 2.467-.311 1.767-7.345-.366-9.912a98.186 98.186 0 0 0-9.134-7.301c-7.212-5.422-15.613-11.112-15.613-11.112l4.134-8.956-42.692-10.401c-3.234 8.057-5.89 14.99-6.279 16.924 0-.044-2.378 12.99-2.11 13.223Z" fill="#EBEBEB"/><path d="M138.922 490.839c-2.544.266-70.494-14.957-72.706-17.179-.855-.834.79-10.846 3.123-22.891 0-.122 0-.256.078-.378l43.937 9.334-.178.745s23.39 17.446 25.557 20.146c2.167 2.7 2.689 9.967.189 10.223Z" fill="#6D55F1"/><path d="M138.688 488.039c-11.389-2.845-57.593-13.257-69.072-15.213-.089 0-.1 0 0 .067 11.223 3.078 57.516 13.112 69.05 15.334.256.045.256-.133.022-.188Zm-20.534-27.091c-4.323-1.856-10.001-2.401-14.146 0-.166.1 0 .322.134.311a65.004 65.004 0 0 1 13.867.222.298.298 0 0 0 .249-.219.3.3 0 0 0-.104-.314Zm2.811 2.689c-4.311-1.856-10.001-2.401-14.146 0-.166.1 0 .322.134.311a65.741 65.741 0 0 1 13.868.211.291.291 0 0 0 .254-.211.286.286 0 0 0-.11-.311Zm2.811 2.678c-4.311-1.845-10-2.389-14.145 0-.167.1 0 .322.133.311a65.013 65.013 0 0 1 13.868.211.302.302 0 0 0 .15-.073.303.303 0 0 0 .085-.309.293.293 0 0 0-.091-.14Z" fill="#263238"/><path d="M126.221 452.447c-1.223-2.834-4.768-2.478-7.001-1.322a24.568 24.568 0 0 0-9.256 8.756.106.106 0 0 0-.017.107.116.116 0 0 0 .032.046.116.116 0 0 0 .051.025.574.574 0 0 0 .102.51.57.57 0 0 0 .476.212c4.034-.533 8.412-.622 12.157-2.378 2.178-1.034 4.611-3.278 3.456-5.956Zm-9.668 6.267c-1.978.311-3.956.533-5.923.922a73.5 73.5 0 0 1 5.556-5 27.029 27.029 0 0 1 2.967-2.034c1.612-.922 7.501-2.322 5.556 2.434-1.033 2.622-5.789 3.3-8.156 3.678Z" fill="#263238"/><path d="M98.764 456.136c3.333 2.411 7.656 3.334 11.512 4.556a.578.578 0 0 0 .711-.6c.066 0 .133-.078.1-.167a24.623 24.623 0 0 0-7.501-10.301c-1.989-1.544-5.411-2.533-7.134 0-1.722 2.534.356 5.101 2.312 6.512Zm-1.312-3.667c-1-5.023 4.534-2.578 5.956-1.378a26.353 26.353 0 0 1 2.545 2.556 72.446 72.446 0 0 1 4.511 5.912c-1.855-.745-3.766-1.312-5.644-1.978-2.256-.8-6.812-2.334-7.368-5.112Z" fill="#263238"/><path opacity=".2" d="M119.054 486.939c10.678 2.333 18.957 4 19.812 3.911 2.556-.256 1.989-7.545-.177-10.234a97.216 97.216 0 0 0-8.89-7.445l-10.745 13.768Z" fill="#000"/><path d="m116.487 460.814-46.77-11.023s39.025-89.462 35.558-94.007c-1.722-2.278-45.27-2.945-59.116-14.679-17.99-15.246-5.922-38.537-5.922-38.537l48.681-1.433s-.589 10.156 1.311 11.679c1.245 1.022 59.194 5.9 65.561 25.424 7.801 23.946-39.303 122.576-39.303 122.576Z" fill="#37474F"/><path d="M116.465 453.58c-1.223-.577-13.335-4.133-16.057-4.822-5.467-1.4-10.957-2.778-16.457-4.034-2.878-.656-9.034-2.078-9.412-2.011-.178 0-.21.333 0 .389 5.334 1.755 10.745 3.244 16.157 4.756 5.412 1.511 24.046 5.989 25.68 6.1.122.011.322-.3.089-.378Zm-2.834-101.83a7.49 7.49 0 0 0-3.667-1.111l-21.113-3.523c-6.567-1.111-13.179-2.078-19.712-3.333-5.412-1.045-10.923-2.456-15.557-5.39a22.577 22.577 0 0 1-9.568-12.501 40.412 40.412 0 0 1-1.233-16.023c.122-1.311.367-2.611.611-3.9 0-.1-.144-.134-.156 0-1.788 10-1.944 21.512 5.556 29.457 3.645 3.867 8.646 6.134 13.746 7.612a156.403 156.403 0 0 0 17.69 3.434l21.113 3.511c3.334.567 6.812 1 10.168 1.7.673.088 1.306.37 1.822.812a2.584 2.584 0 0 1 .3 2.433c-.333 1.656-.789 3.334-1.256 4.912-3.833 13.078-32.124 79.784-32.88 81.217a.133.133 0 0 0 .064.161.132.132 0 0 0 .17-.039c6.444-11.467 27.613-63.971 31.868-76.339a78.947 78.947 0 0 0 2.756-9.623c.122-1.267.311-2.589-.722-3.467Z" fill="#263238"/><path d="M208.239 493.595c-2.356.789-69.806-.156-72.373-1.801-2.811-2.678-4.011-66.316-4.011-66.316l43.392-.356 2.712 45.693s9.367 3.9 17.523 7.778a98.18 98.18 0 0 1 10.401 5.345c2.634 2.1 4.712 8.879 2.356 9.657Z" fill="#C95F50"/><path d="M133.032 463.125c.645 14.302 1.567 27.492 2.823 28.669 2.567 1.645 70.005 2.601 72.383 1.801s.278-7.545-2.333-9.635a97.592 97.592 0 0 0-10.412-5.344c-8.156-3.878-17.524-7.779-17.524-7.779l-.455-7.689-44.482-.023Z" fill="#EBEBEB"/><path d="M209.627 493.639c-2.444.811-72.072.478-74.706-1.222-1.022-.623-1.566-10.757-1.866-23.024v-.389l44.914-.278v.756s26.591 12.034 29.303 14.201c2.711 2.167 4.789 9.167 2.355 9.956Z" fill="#6D55F1"/><path d="M208.85 490.939c-11.735-.345-59.105-.622-70.728-.078-.1 0-.1.078 0 .078 11.623.6 58.993.489 70.728.2.244.011.244-.189 0-.2Zm-25.88-22.013c-4.612-.878-10.268-.2-13.812 3.067-.134.133 0 .322.2.278a65.041 65.041 0 0 1 13.601-2.756.3.3 0 0 0 .011-.589Zm3.334 1.967c-4.623-.878-10.268-.2-13.813 3.067-.144.133 0 .322.189.278a65.054 65.054 0 0 1 13.601-2.756.303.303 0 0 0 .255-.286.294.294 0 0 0-.062-.193.29.29 0 0 0-.17-.11Zm3.322 2.022c-4.623-.878-10.268-.2-13.812 3.067-.145.133 0 .322.189.278a65.041 65.041 0 0 1 13.601-2.756.295.295 0 0 0 .178-.097.301.301 0 0 0-.156-.492Z" fill="#263238"/><path d="M189.026 458.847c-1.8-2.511-5.189-1.4-7.123.212a24.598 24.598 0 0 0-7.167 10.523.118.118 0 0 0 .012.112.124.124 0 0 0 .099.054.57.57 0 0 0 .455.589c.088.018.18.014.267-.011 3.823-1.389 8.079-2.4 11.357-4.922 1.911-1.478 3.811-4.19 2.1-6.557Zm-8.09 8.19c-1.866.733-3.755 1.367-5.556 2.167a70.418 70.418 0 0 1 4.323-6.056 26.252 26.252 0 0 1 2.456-2.634c1.378-1.244 6.834-3.878 6 1.178-.5 2.789-5.011 4.478-7.223 5.345Z" fill="#263238"/><path d="M163.013 468.326c3.789 1.633 8.167 1.578 12.223 1.989.423 0 .634-.4.567-.745a.114.114 0 0 0 .033-.042.117.117 0 0 0 0-.104.114.114 0 0 0-.033-.042 24.623 24.623 0 0 0-9.534-8.446c-2.278-1.111-5.823-1.322-6.956 1.545-1.134 2.867 1.478 4.889 3.7 5.845Zm-2.078-3.334c-2.056-4.7 3.878-3.489 5.556-2.622 1.053.58 2.067 1.23 3.034 1.944a73.362 73.362 0 0 1 5.678 4.812c-1.978-.322-3.956-.467-5.945-.722-2.4-.267-7.189-.789-8.323-3.378v-.034Z" fill="#263238"/><path d="M180.37 469.248h-48.893s.611-88.307-3.223-93.196c-5.111-6.534-76.672-6.389-92.018-27.68-13.779-19.135-2.145-46.204-2.145-46.204l54.194-1.611a113.006 113.006 0 0 1-5.023 17.046s65.272 12.034 83.562 32.025c12.29 13.512 13.546 119.62 13.546 119.62Z" fill="#37474F"/><path d="M92.74 313.903a26.71 26.71 0 0 0-4.59 1.466 57.696 57.696 0 0 0-4.588 2.001 91.603 91.603 0 0 0-8.568 4.844c-.089 0 0 .167.09.123 2.922-1.523 5.955-2.889 8.989-4.19l4.378-1.889c1.516-.571 3-1.224 4.445-1.955a.222.222 0 0 0-.156-.4Z" fill="#263238"/><path d="M89.496 300.546c-.622 2.467-1.111 4.956-1.878 7.412-.322 1.111-.645 2.222-1.111 3.333-.356.912-.9 1.967-1.967 2.167-1.067.2-1.578-.811-1.478-1.822.1-1.011.4-2.223.622-3.334.256-1.278.522-2.567.756-3.845.11-.644.233-1.289.344-1.933 0-.167.145-1.4.234-1.756 0 0 0 .067.066.056 0 0 .078 0 .078-.067s0-.122-.067-.189c-.066-.066-.066 0-.11 0-.234.134-.245.456-.323.689-.2.622-.4 1.256-.589 1.878a99.157 99.157 0 0 0-.978 3.556c-.3 1.189-.589 2.378-.878 3.567a5.557 5.557 0 0 0-.244 2.745 2.111 2.111 0 0 0 1.945 1.589l-.134.233c-.11.244-.189.5-.278.756-.088.255-.177.511-.255.766a2.386 2.386 0 0 0-.067.389v.422c0 .145.278.356.39.145a3.96 3.96 0 0 1 .232-.356 2.2 2.2 0 0 0 .178-.411c.078-.244.156-.489.211-.744.056-.256.145-.5.19-.756a3.018 3.018 0 0 0 0-.456 2.777 2.777 0 0 0 1.433-.544 4.776 4.776 0 0 0 1.478-2.222c.366-1.023.655-2.089.944-3.145a45.233 45.233 0 0 0 1.578-7.956c.144-.356-.256-.456-.322-.167Zm-32.226 6.045c-.221 1.222-.366 2.467-.655 3.678a40.382 40.382 0 0 1-.989 3.534 12.542 12.542 0 0 1-1.51 3.189 11.916 11.916 0 0 1-2.401 2.444 20.385 20.385 0 0 1-5.812 3.223c-1.053.382-2.13.697-3.222.944-.567.134-1.111.234-1.722.312a3.6 3.6 0 0 0-1.39.311.287.287 0 0 0-.099.384.295.295 0 0 0 .1.105 5.144 5.144 0 0 0 2.566.077 20.575 20.575 0 0 0 2.745-.477 19.99 19.99 0 0 0 5.19-2.223 16.27 16.27 0 0 0 4.4-3.511 12.224 12.224 0 0 0 2.322-5.078c.573-2.25.827-4.569.756-6.89-.056-.133-.256-.155-.278-.022Z" fill="#263238"/><path d="M138.466 407.999a566.007 566.007 0 0 0-1.911-23.013c-.2-1.889-.389-3.789-.622-5.667a17.462 17.462 0 0 0-.956-4.312c-1.111-2.878-3.522-4.333-6.423-5.056-3.422-.866-6.967-1.389-10.445-1.944a425.69 425.69 0 0 0-10.712-1.589c-7.234-1.011-14.446-1.945-21.68-3.156a171.678 171.678 0 0 1-21.279-4.778c-6.4-1.934-12.968-4.323-18.09-8.756-11.034-9.546-11.434-25.558-10.09-38.892.19-1.889.422-3.767.656-5.656 0-.1-.145-.134-.156 0-.867 7.534-1.889 15.123-1.111 22.713a37.146 37.146 0 0 0 6.023 17.601c3.733 5.345 9.267 8.801 15.234 11.212a120.146 120.146 0 0 0 20.302 5.834c14.301 3 28.891 4.267 43.281 6.723 1.778.3 3.545.622 5.312.966a22.4 22.4 0 0 1 4.8 1.289c3.267 1.456 4.167 4.634 4.567 7.923.945 7.623 1.578 15.29 2.133 22.958 1.112 15.434 1.701 30.958 1.678 46.437v10.256c0 .167.256.144.256 0 .411-15.601.211-35.614-.767-51.093Zm39.615 53.571c-11.112-.756-42.959-.445-43.337-.289-.166.078-.122.378.056.389 5.556.4 41.614.589 43.225.3.178-.033.245-.389.056-.4Zm-94.53-143.767a182.367 182.367 0 0 1 29.558 6.056 207.025 207.025 0 0 1 28.524 10.323c5.19 2.322 10.212 4.923 15.179 7.656.1.056 0 .2-.089.156a229.051 229.051 0 0 0-27.78-12.101 224.781 224.781 0 0 0-28.891-8.379c-5.556-1.2-11.112-2.133-16.668-3.055-.31-.123-.21-.756.167-.656Z" fill="#263238"/><path d="M131.221 395.798c-.344-5.312-.9-10.623-1.766-15.89-.356-2.123-.445-4.867-2.678-5.923-1.034-.5-21.769-4.1-24.747-4.045a.145.145 0 0 0-.124.199.142.142 0 0 0 .058.068c.277.122 20.001 3.845 22.49 4.445a3.935 3.935 0 0 1 2.767 1.444 10.09 10.09 0 0 1 .833 3.412 218.93 218.93 0 0 1 2.756 31.213c.082 2.904.13 5.797.145 8.679 0 2.978-.1 5.989.122 8.945a.245.245 0 0 0 .489 0c.222-2.689.144-5.434.155-8.134.012-2.7 0-5.423 0-8.145-.011-5.434-.133-10.857-.5-16.268Z" fill="#263238"/><path d="M85.762 251.72c14.013 18.635 47.293 44.837 55.105 38.736 9.6-7.489 7.778-35.047 8.023-38.592.211-3.789-31.27-2.833-30.003 1.034.745 2.289 1.111 4.745.5 4.511-1.856-.733-5.978-4.445-23.857-14.445-9.945-5.59-19.046-3.578-9.768 8.756Z" fill="#C95F50"/><path d="m114.476 252.787-7.367 7.234-9.246 9.067s-10.523-10.201-15.079-18.613c-3.333-6.189-3.444-11.412-.133-12.545a7.42 7.42 0 0 1 4.934.467c11.923 4.456 26.891 14.39 26.891 14.39Z" fill="#6D55F1"/><path d="M110.175 250.898c-2.945 2.689-13.612 12.656-14.445 14.445 0 0 .077.134.122.122 1.733-.844 11.801-11.412 14.501-14.334.044-.111-.122-.278-.178-.233Z" fill="#263238"/><path d="m107.109 260.021-9.246 9.067s-10.523-10.201-15.079-18.613c-3.333-6.189-3.444-11.412-.133-12.545l24.458 22.091Z" fill="#263238"/><path d="M148.923 235.008c1.778 6.033.589 19.801-.967 23.012-1.555 3.212-25.046 1.978-27.135-1.044-2.089-3.023-6.512-23.802-4.078-29.747 2.433-5.945 30.313 1.522 32.18 7.779Z" fill="#C95F50"/><path d="M121.976 213.706c-1.011-2.734-5.945-10.568-8.323-9.656-2.378.911-.256 7.111.678 9.6 1.944 5.123 1.878 12.69 1.789 16.357-.089 3.667 8.478 0 8.478 0s.023-9.201-2.622-16.301Z" fill="#C95F50"/><path d="M118.521 235.185s-.334 6.456 3.1 7.779c3.433 1.322 4.633-3.845 4.733-4.201 0 .334-.166 6.279 3.434 7.268 3.6.988 4.178-4.334 4.2-4.679.089.323 1.323 4.634 4.212 4.767 4.989.223 2.144-10.878 4.345-14.267 0 0 6.167 3.078 6.356 3.133 0 0-2.489-10.623-7.212-13.334a3.479 3.479 0 0 0-4.323.611s-.422-3.511-3.233-4.378c-1.434-.445-3.423 1.467-3.423 1.467a4.355 4.355 0 0 0-3-3.412c-2.022-.5-3.978 1.456-4.445 2.323-3.878 6.678-4.744 16.923-4.744 16.923Z" fill="#C95F50"/><path d="M130.71 219.273c0-.056-.078-.111-.122 0a29.038 29.038 0 0 0-4.445 19.679c0 .245.322.411.289.134-.411-4.734 1.867-14.546 4.278-19.813Zm3.523 22.557c-.822-6.734.589-13.056 2.978-19.335 0-.088-.089-.122-.134-.066-2 2.767-3.111 6.923-3.689 10.245a17.784 17.784 0 0 0 .611 9.19c.045.111.256.111.234-.034Z" fill="#263238"/><path d="M118.52 235.185c.051 1.242.214 2.477.489 3.689a6.875 6.875 0 0 0 1.545 3.223c.384.399.903.641 1.455.678a3.239 3.239 0 0 0 1.623-.322 3.97 3.97 0 0 0 1.878-2.645l.655-2.667.311 2.722c.126 1.213.452 2.396.967 3.501a4.036 4.036 0 0 0 2.334 2.289 2.29 2.29 0 0 0 2.711-.956 6.882 6.882 0 0 0 .956-3.333l.2-3.234.866 3.1c.244.867.595 1.699 1.045 2.478a4.298 4.298 0 0 0 1.767 1.767 2.034 2.034 0 0 0 2.155-.222 4.438 4.438 0 0 0 1.178-2.223c.401-1.828.653-3.686.756-5.556.089-.944.178-1.889.311-2.833a6.68 6.68 0 0 1 .822-2.723 7.286 7.286 0 0 0-.566 2.756 58.777 58.777 0 0 0-.078 2.834 31.358 31.358 0 0 1-.478 5.722 5.375 5.375 0 0 1-1.333 2.756 2.935 2.935 0 0 1-3.178.445 5.303 5.303 0 0 1-2.223-2.145 11.375 11.375 0 0 1-1.2-2.734l1.111-.122a8.014 8.014 0 0 1-1.111 3.945 3.332 3.332 0 0 1-1.767 1.389 3.742 3.742 0 0 1-2.222 0 5.047 5.047 0 0 1-2.967-2.889 12.637 12.637 0 0 1-1-3.867l.967.067a4.767 4.767 0 0 1-2.489 3.155 4.13 4.13 0 0 1-2.034.3 2.932 2.932 0 0 1-1.822-.955 7.04 7.04 0 0 1-1.434-3.567 17.052 17.052 0 0 1-.2-3.823Z" fill="#263238"/><path d="M119.421 253.576s-17.024-20.58-5.723-23.336c3.334-.811 18.113-.111 18.035 2.856-.111 3.823-6.323 4.69-10.312 4.601 0 0 6.778 6.189 3.878 12.223a6.663 6.663 0 0 1-5.878 3.656Z" fill="#C95F50"/><path d="M112.775 230.563a13.866 13.866 0 0 1 3.978-.834 31.543 31.543 0 0 1 4.09-.089c2.734.09 5.456.417 8.134.978a7.17 7.17 0 0 1 2.033.745c.372.196.694.473.945.811.134.186.239.393.311.611.057.218.083.442.078.667a3.48 3.48 0 0 1-.923 2.222 6.566 6.566 0 0 1-1.811 1.311 12.464 12.464 0 0 1-4.067 1.112 28.52 28.52 0 0 1-4.122.155l.311-.833a16.389 16.389 0 0 1 2.022 2.4c.595.852 1.105 1.76 1.522 2.711.402.958.664 1.968.778 3.001a8.079 8.079 0 0 1-.255 3.055 9.048 9.048 0 0 0-.067-3 10.651 10.651 0 0 0-1-2.8 14.833 14.833 0 0 0-1.6-2.511 16.753 16.753 0 0 0-2.023-2.145l-.922-.789h1.245a29.417 29.417 0 0 0 3.967-.278 12.215 12.215 0 0 0 3.711-1.044c1.111-.556 2.089-1.467 2.1-2.512.011-1.044-1.278-1.466-2.5-1.789a37.848 37.848 0 0 0-3.923-.766c-1.322-.211-2.655-.411-3.989-.534a25.888 25.888 0 0 0-8.023.145Zm6.612 26.846.923 2.634.888 2.644 1.801 5.256c.6 1.756 1.211 3.501 1.855 5.234.323.867.645 1.734 1 2.589.356.856.723 1.712 1.112 2.578a35.424 35.424 0 0 1-2.678-4.911c-.778-1.7-1.434-3.456-2.056-5.212-.622-1.755-1.111-3.544-1.611-5.345-.5-1.8-.945-3.622-1.234-5.467Z" fill="#263238"/><path d="M95.519 315.38c-1.667 1.334-67.661 2.078-67.939 1.612-.755-1.267 17.146-61.472 45.282-80.184 4.956-3.334 12.512-1.012 15.779 1.544 1.644 1.289 6.411 11.034 7.067 19.002.655 7.967.867 57.171-.19 58.026Z" fill="#6D55F1"/><path d="M96.252 290.645v.489c-.311-.189-.633-.4-.933-.622a27.444 27.444 0 0 1-6.112-6.667c-1.733-2.456-3.333-5.023-4.867-7.556a68.917 68.917 0 0 0-7.356-10.201l-.345-.367a28.076 28.076 0 0 0-3.555-3.145 19.203 19.203 0 0 0-16.813-2.922 18.268 18.268 0 0 0-6.667 3.911l.811-1.355a18.14 18.14 0 0 1 5.678-3.067 19.753 19.753 0 0 1 9.001-.556 19.4 19.4 0 0 1 8.267 3.656 28.17 28.17 0 0 1 3.867 3.489c.123.133.245.256.356.389a69.9 69.9 0 0 1 7.134 10.001c1.578 2.545 3.122 5.1 4.834 7.545a27.276 27.276 0 0 0 5.989 6.523c.255.155.478.311.711.455Zm-6.223 2.845a22.692 22.692 0 0 1-9.056-2.223c-5.723-2.722-10.323-7.222-14.912-11.567-1.667-1.578-3.334-3.156-5.078-4.645l-.278-.244c-.578-.489-1.111-.967-1.778-1.434a22.015 22.015 0 0 0-8.49-4.333 13.784 13.784 0 0 0-3.7-.334l-.256.445a13.3 13.3 0 0 1 3.867.311 21.681 21.681 0 0 1 8.301 4.278c.578.444 1.111.9 1.69 1.367.1.075.197.157.288.244 1.756 1.489 3.434 3.1 5.112 4.689 4.567 4.356 9.19 8.89 15 11.69a22.948 22.948 0 0 0 9.28 2.311 24.002 24.002 0 0 0 6.233-.655v-.556c-2.037.49-4.129.71-6.223.656Zm6.179-15.557a92.373 92.373 0 0 0-2.123-3.333 24.977 24.977 0 0 0-6.245-6.501 14.748 14.748 0 0 0-8.612-2.489c-.655 0-1.3 0-1.955.111l-.623.078c-.646.085-1.288.204-1.922.355-1.461.386-2.88.918-4.233 1.589a51.547 51.547 0 0 0-9.79 7.045c-.122.1-.245.212-.367.3a101.332 101.332 0 0 1-4.19 3.456 36.89 36.89 0 0 1-7.589 4.69 24.628 24.628 0 0 1-8.634 2.066h-1.377c0 .1-.09.2-.123.3l1.523-.055a24.972 24.972 0 0 0 8.734-2.067 37.91 37.91 0 0 0 7.678-4.7c1.456-1.112 2.867-2.301 4.267-3.49l.356-.3a50.092 50.092 0 0 1 9.69-6.933 21.46 21.46 0 0 1 4.155-1.545 17.612 17.612 0 0 1 2.223-.389h.633a20.643 20.643 0 0 1 1.6-.089 14.447 14.447 0 0 1 8.367 2.445 24.454 24.454 0 0 1 6.112 6.4 65.444 65.444 0 0 1 2.511 3.934c-.066-.311-.066-.622-.078-.922l.012.044Z" fill="#fff"/><path d="M88.185 249.786c-3.867-.166-8.523-7.478-9.712-12.656-.078-.356 4.69-12.301 5.39-14.768.144-.5 14.445 8.156 14.445 8.156a40.657 40.657 0 0 0-4.178 9.034c-.133.356-2.2 10.401-5.945 10.234Z" fill="#C95F50"/><path d="M84.35 222.495c-.344 4.19-.433 15.324 7.924 17.913a9.701 9.701 0 0 0 1.544.333 22.91 22.91 0 0 0 .278-1.2 40.732 40.732 0 0 1 4.178-9.023 1.122 1.122 0 0 0-.233-.144c-.1-.078-.234-.145-.39-.245l-.166-.1c-.089-.066-.2-.122-.311-.189l-.4-.244-.667-.389-.244-.156-.511-.311-2.023-1.2-.766-.455a18.036 18.036 0 0 1-.99-.589l-.988-.567-.123-.067-1.678-.978-.555-.322-1.111-.6-.723-.4-1.422-.756-.322-.155-.3-.156Z" fill="#263238"/><path d="M88.84 203.794c-3.644 4.711-6.667 21.113-4.167 26.035 3.612 7.056 12.435 10.946 19.169 5.945 6.533-4.845 10.089-26.357 7.033-31.113-4.5-6.868-16.645-7.823-22.035-.867Z" fill="#C95F50"/><path d="M99.796 219.551s-.1 0-.1.077c-.244 1.112-.71 2.378-1.81 2.501v.066c1.266.134 1.866-1.533 1.91-2.644Z" fill="#263238"/><path d="M99.097 218.139c-1.767-.577-2.8 2.99-1.111 3.534 1.688.545 2.589-3.045 1.11-3.534Zm7.034 2.745s.078.078 0 .122c-.356 1.112-.589 2.401.3 3.067 0 0 0 .078 0 0-1.145-.478-.845-2.211-.3-3.189Z" fill="#263238"/><path d="M107.464 220.017c1.811.4.889 4.001-.789 3.634-1.678-.367-.734-3.956.789-3.634Zm-10.767 8.623c.177.345.322.778.7.945.407.134.84.176 1.266.122 0 0 .067.056 0 .078a1.558 1.558 0 0 1-1.588.122 1.236 1.236 0 0 1-.53-1.286.08.08 0 0 1 .04-.045.077.077 0 0 1 .06-.004.07.07 0 0 1 .025.015.078.078 0 0 1 .027.053Z" fill="#263238"/><path d="M103.031 225.573s-.234 1.723-.445 2.501a17.543 17.543 0 0 0-4.7-.589c-.378 0-.3-.267.155-.389a6.874 6.874 0 0 1 4.056.111c.123-.2.311-2.656.434-2.623.593.22 1.154.519 1.666.889.578-3.567.589-7.211 1.223-10.756a.11.11 0 0 1 .105-.076.11.11 0 0 1 .106.076 58.054 58.054 0 0 1-.822 11.634c-.056.478-1.445-.555-1.778-.778Zm-5.223-10.4c.51-.078.988-.078 1.5-.112a2.495 2.495 0 0 1 1.555.189.783.783 0 0 1 .256.912 1.938 1.938 0 0 1-1.7.944 2.845 2.845 0 0 1-1.978-.467.82.82 0 0 1-.059-1.26.817.817 0 0 1 .425-.206Zm12.778.955a13.553 13.553 0 0 0-1.189-.933 2.413 2.413 0 0 0-1.378-.722.757.757 0 0 0-.722.6 1.91 1.91 0 0 0 .867 1.744 2.8 2.8 0 0 0 1.9.722.816.816 0 0 0 .721-.535.818.818 0 0 0-.199-.876Z" fill="#263238"/><path d="M92.651 217.795c1.367.522 1.623-2.333 1.69-3.334a17.68 17.68 0 0 1 .766-3.022 16.756 16.756 0 0 1-1.467 2.756c-.633.766-2.355 3.056-.989 3.6Z" fill="#fff"/><path d="M83.44 219.573s-2.612-11.579-.212-16.968c1.112-2.434 5.079-2.978 5.079-2.978a6 6 0 0 1 3.711-5.123c3.912-1.811 10.912 1.234 10.912 1.234s6.923-5.19 12.634-.311c5.712 4.878-1.111 10.945-1.111 10.945s1.278 4.245-5.556 4.956c-6.667.7-17.579-5.823-17.579-5.823a43.24 43.24 0 0 1-4.267 12.157 3.924 3.924 0 0 1-3.611 1.911Z" fill="#263238"/><path d="M104.042 196.204a12.237 12.237 0 0 0-4.368-2.4 12.988 12.988 0 0 0-4.444-.744 7.32 7.32 0 0 0-6.667 3.578 5.132 5.132 0 0 0-.3 3.967c0 .055.1 0 .077 0-.889-2.412.9-5.078 3-6.134a11.003 11.003 0 0 1 7.779-.245 21.348 21.348 0 0 1 4.7 2.134.14.14 0 0 0 .141.055.123.123 0 0 0 .048-.022.134.134 0 0 0 .055-.14.143.143 0 0 0-.021-.049Zm15.19 4.001a5.987 5.987 0 0 0-2.712-4.923 10.148 10.148 0 0 0-6.334-1.867 12.713 12.713 0 0 0-6.378 2.078v.078a11.247 11.247 0 0 1 11.49-.389 5.558 5.558 0 0 1 1.478 9.168 11.522 11.522 0 0 1-5.678 2.833v.078a11.666 11.666 0 0 0 5.444-2.223 6.663 6.663 0 0 0 2.69-4.833Zm-8.979 11.923a21.165 21.165 0 0 1-8.79-1.345 42.96 42.96 0 0 1-8.356-4.122 93.794 93.794 0 0 1-4.511-3.023s-.09 0 0 .078a47.187 47.187 0 0 0 8.022 5.756 23.656 23.656 0 0 0 8.668 2.8c1.671.186 3.358.159 5.022-.077 0 0-.011-.078-.055-.067Z" fill="#263238"/><path d="M87.384 217.584s-1.722-6.267-4.444-5.823c-2.723.445-2.678 8.645-.356 10.59a2.886 2.886 0 0 0 2.08.809 2.889 2.889 0 0 0 2.031-.92l.69-4.656Z" fill="#C95F50"/><path d="M83.006 214.106v.067c1.6 1.433 1.967 3.511 2.023 5.556a1.603 1.603 0 0 0-1.431-1.299c-.23-.02-.463.009-.68.087v.111a1.79 1.79 0 0 1 1.633 1.245c.18.586.3 1.189.355 1.8 0 .2.356.222.367 0 .878-2.411.211-6.412-2.267-7.567Z" fill="#263238"/><path d="M67.272 248.542c-3.256 18.179-1.3 56.293 6.978 62.683 9.59 7.389 51.571 8.889 60.905 6.156 3.723-1.112-5.134-25.702-9.267-25.669-17.368.122-31.992-1.878-33.48-3.934-2.29-3.144-8.28-25.313-12.368-39.203-5.123-17.446-11.312-8.189-12.768-.033Z" fill="#C95F50"/><path d="M172.525 266.177 145.856 283.6a1.111 1.111 0 0 0-.167 1.867l12.401 9.312a2.502 2.502 0 0 0 2.678 0l26.669-17.424a1.114 1.114 0 0 0 .604-.892 1.106 1.106 0 0 0-.437-.986l-12.401-9.3a2.502 2.502 0 0 0-2.678 0Z" fill="#263238"/><path d="m171.38 265.399-26.668 17.423a1.114 1.114 0 0 0-.507 1.433c.075.171.192.32.34.434l12.401 9.312a2.5 2.5 0 0 0 2.678 0l26.669-17.424a1.104 1.104 0 0 0 .604-.892 1.104 1.104 0 0 0-.438-.985l-12.401-9.301a2.497 2.497 0 0 0-2.678 0Z" fill="#37474F"/><path d="m170.825 266.854-24.447 15.979c-.755.489-.855 1.267-.233 1.734l11.112 8.323a2.368 2.368 0 0 0 2.489 0l24.446-15.99c1.534-.989 1.367-1.589.745-2.056l-2.223-1.667a.576.576 0 0 0-.6.067h-.089a.724.724 0 0 1-1-.078l-5.144-3.856c-.289-.222-.512-.4 0-.711l.077-.056c.211-.133.267-.311.134-.411l-2.223-1.666c-.678-.445-1.611-.523-3.044.388Z" fill="#fff"/><path d="m178.325 270.344 1.4 1.111a.194.194 0 0 0 .189 0 .105.105 0 0 0 .022-.03.095.095 0 0 0 .008-.037.097.097 0 0 0-.03-.067l-1.411-1.044a.144.144 0 0 0-.178 0c-.045-.022-.045.033 0 .067Z" fill="#fff"/><path d="m158.357 277.744 9.423 7.067 10.512-6.845-9.434-7.078-10.501 6.856Z" fill="#6D55F1"/><path d="m160.557 281.811 5.501 4.134.622-.411-5.501-4.123-.622.4Zm-2.022-.1 6.511 4.889.311-.2-6.522-4.889-.3.2Zm-.567.367 6.511 4.889.312-.2-6.523-4.889-.3.2Zm-.567.378 6.512 4.878.311-.2-6.511-4.889-.312.211ZM180.314 275l1.178.877.245-.166-1.167-.878-.256.167Zm-.466.3 1.166.877.256-.166-1.167-.878-.255.167Zm-.468.3 1.178.889.245-.167-1.167-.889-.256.167Z" fill="#A6A6A6"/><path d="M156.913 278.833a.84.84 0 0 0 0 .434c.21.032.423.032.633 0 .411 0 .722-.267.5-.445-.222-.178-.522 0-.522 0s.255-.211.066-.344c-.188-.134-.6.066-.677.355Zm-6.623 5.445 7.6 5.712 2.434-1.578-7.612-5.712-2.422 1.578Z" fill="#6D55F1"/><path d="M133.822 317.458c2.044 0 19.246-4.267 24.446-7.189a58.267 58.267 0 0 0 14.957-11.423c6.8-7.29 10.812-12.979 10.945-16.124.145-3.656 0-4.3-13.745 6.912-7.779 6.334-12.779 5.556-16.78 4.045-16.445-6.267-32.291-1.989-32.291-1.989s4.6 25.746 12.468 25.768Z" fill="#C95F50"/><path d="M155.679 294.334c-4.189-1.433 12.412-5.011 14.323-9.689 1.911-4.678-3.3-4.845-7.856-3.512-16.001 4.745-25.391.856-35.003 7.434-1.022.689-4.033 2.223-4.089 2.712-.456 4.6 32.625 3.055 32.625 3.055Z" fill="#C95F50"/><path d="M145.156 284.011a35.087 35.087 0 0 0-8.889.256 21.516 21.516 0 0 0-7.534 3.245c-.1.055 0 .222.089.166 4.933-2.967 10.745-3.255 16.334-3.533a.063.063 0 0 0 .047-.02.063.063 0 0 0 .02-.047.063.063 0 0 0-.02-.047.063.063 0 0 0-.047-.02Z" fill="#263238"/><path d="m63.95 272.91 10.111-1.9 12.735-2.389s-2.99-14.179-6.668-23.024c-3.755-9.089-10-12.056-13.434.434-3.334 12.278-2.745 26.879-2.745 26.879Z" fill="#6D55F1"/><path d="M64.85 268.321c3.888-.878 18.167-3.922 20.067-3.622 0 0 .067.144 0 .166-1.677.945-16.112 3.156-20.057 3.69-.044.011-.089-.212-.01-.234Z" fill="#263238"/><path d="M65.783 272.566c-.6.178-1.2.333-1.8.489h-.167v-.189c-.156-1.589-.178-3.189-.178-4.778 0-1.589.078-3.189.19-4.778.11-1.589.255-3.178.477-4.756.222-1.578.455-3.145.789-4.712 0 1.6-.111 3.178-.19 4.767-.077 1.589-.177 3.167-.266 4.756-.166 3.156-.389 6.323-.522 9.49l-.178-.133c.6-.034 1.222-.112 1.845-.156Z" fill="#263238"/><path d="M63.116 257.409c.317.965.555 1.953.711 2.956.078.5.156 1 .2 1.5.054.51.08 1.021.078 1.534a11.986 11.986 0 0 1-.822-2.945 12.65 12.65 0 0 1-.167-3.045Zm22.835 11.368.822-.245-.066.111c-.434-1.322-.778-2.655-1.167-3.978l-1.034-4a235.511 235.511 0 0 1-1.866-8.045 32.745 32.745 0 0 1 1.5 3.867 36.554 36.554 0 0 1 1.111 3.978c.3 1.333.644 2.689.911 4.045.267 1.355.5 2.711.667 4.089v.1h-.089c-.211.044-.5.056-.789.078Z" fill="#263238"/><path d="M84.718 255.298c.246.746.373 1.526.378 2.311.007.394-.019.788-.078 1.178a4.131 4.131 0 0 1-.3 1.111 16.424 16.424 0 0 1-.178-2.311c-.02-.767.04-1.534.178-2.289Z" fill="#263238"/><path d="M143.7 183.848a6.858 6.858 0 0 1-3.676 6.674 6.857 6.857 0 1 1 3.676-6.674Z" fill="#fff"/><path d="M143.7 183.848a7.148 7.148 0 0 1-6.212 7.689 7.132 7.132 0 0 1-6.161-11.732 7.147 7.147 0 0 1 4.928-2.48 7.147 7.147 0 0 1 7.445 6.523Zm0 0a6.57 6.57 0 0 0-7.389-5.967 6.663 6.663 0 0 0-5.712 7.1 6.59 6.59 0 0 0 6.845 6.012 6.581 6.581 0 0 0 4.656-2.235 6.578 6.578 0 0 0 1.6-4.91Z" fill="#263238"/><path d="M128.922 196.482a3.813 3.813 0 0 1-7.459 1.382 3.808 3.808 0 0 1 1.274-4.035 3.806 3.806 0 0 1 2.051-.825 3.823 3.823 0 0 1 4.134 3.478Z" fill="#fff"/><path d="M128.921 196.482a4.12 4.12 0 0 1-3.456 4.445 4.102 4.102 0 0 1-1.891-7.953 4.104 4.104 0 0 1 4.423 1.284 4.11 4.11 0 0 1 .924 2.224Zm0 0a3.624 3.624 0 0 0-1.4-2.533 3.551 3.551 0 0 0-3.847-.262 3.545 3.545 0 1 0 4.303 5.529 3.643 3.643 0 0 0 .944-2.734Z" fill="#263238"/><path d="M194.971 151.967a20.002 20.002 0 0 1-27.647 20.858 16.789 16.789 0 0 1-26.668-.056 12.59 12.59 0 0 1-2.223.467 13.623 13.623 0 0 1-12.845-21.335 20 20 0 0 1 13.448-32.345 19.998 19.998 0 0 1 13.509 3.387 16.796 16.796 0 0 1 15.744-6.092 16.785 16.785 0 0 1 13.081 10.67 10.977 10.977 0 0 1 11.601 17.813 19.546 19.546 0 0 1 2 6.633Z" fill="#fff"/><path d="M194.971 151.968a20.317 20.317 0 0 1-1.434 10.245 21.384 21.384 0 0 1-2.633 4.522 20.683 20.683 0 0 1-3.723 3.656 20.217 20.217 0 0 1-19.924 2.589h.189a17.098 17.098 0 0 1-13.548 6.738 17.097 17.097 0 0 1-13.587-6.66l.4.134a13.853 13.853 0 0 1-4.267.588 13.197 13.197 0 0 1-4.256-.711 14.103 14.103 0 0 1-6.912-5.056 15.13 15.13 0 0 1-1.967-3.867 14.763 14.763 0 0 1-.711-4.278 14.107 14.107 0 0 1 2.545-8.212v.578a20.476 20.476 0 0 1 1.111-26.668 20.701 20.701 0 0 1 12.712-6.379 20.4 20.4 0 0 1 13.735 3.478l-.489.078a17.041 17.041 0 0 1 16.09-6.067 17.009 17.009 0 0 1 13.157 10.856l-.145-.066a11.18 11.18 0 0 1 7.156.089 11.029 11.029 0 0 1 7.02 7.734 11.04 11.04 0 0 1-2.575 10.123 19.542 19.542 0 0 1 2.056 6.556Zm0 0a19.599 19.599 0 0 0-2.034-6.668 10.918 10.918 0 0 0-.053-14.744 10.934 10.934 0 0 0-4.469-2.924 10.792 10.792 0 0 0-7.023 0h-.111v-.111a16.674 16.674 0 0 0-5.112-6.978 16.376 16.376 0 0 0-7.9-3.478 16.434 16.434 0 0 0-15.424 6.078l-.2.267-.289-.2a19.655 19.655 0 0 0-25.291 2.978 19.656 19.656 0 0 0-1.033 25.357l.233.3-.222.323a13.012 13.012 0 0 0-2.389 7.6 13.5 13.5 0 0 0 .633 3.989 13.936 13.936 0 0 0 1.812 3.612 13.42 13.42 0 0 0 6.411 4.789c1.285.457 2.637.701 4.001.722a12.701 12.701 0 0 0 4.033-.5l.245-.077.166.211a16.778 16.778 0 0 0 5.734 4.811 16.56 16.56 0 0 0 20.546-4.622l.078-.1h.111a19.714 19.714 0 0 0 19.724-2.378 20.997 20.997 0 0 0 3.734-3.623 21.23 21.23 0 0 0 2.644-4.445 20.248 20.248 0 0 0 1.445-10.189Z" fill="#263238"/><path d="m169.08 151.423-.633 3.034a2.235 2.235 0 0 1-.976 1.517 2.225 2.225 0 0 1-1.78.294 2.329 2.329 0 0 1-1.821-1.854 2.32 2.32 0 0 1 .01-.913l1.011-4.856.067-.078c.066-.078 0 0 0-.111a2.4 2.4 0 0 1 2.766-1.8 5.35 5.35 0 1 0 2.223-10.467 5.295 5.295 0 0 0-2.73.153 5.302 5.302 0 0 0-2.293 1.491 2.344 2.344 0 1 1-3.489-3.122 10.003 10.003 0 0 1 13.444-1.336 10 10 0 0 1-5.721 18.004l-.078.044Zm-2.122 10.223-.178.845a2.292 2.292 0 0 1-2.767 1.811 2.356 2.356 0 0 1-1.811-2.767l.178-.845a2.364 2.364 0 0 1 1.021-1.455 2.37 2.37 0 0 1 1.746-.334 2.336 2.336 0 0 1 1.811 2.745Zm-22.158-16.39-.322-3.023a2.208 2.208 0 0 1 .433-1.759 2.228 2.228 0 0 1 1.6-.852 2.346 2.346 0 0 1 2.6 2.034l.611 4.922v.1c0 .1 0 0 .056.089a2.39 2.39 0 0 1-2.033 2.6 5.349 5.349 0 0 0-4.856 5.982 5.346 5.346 0 0 0 6.167 4.619 5.232 5.232 0 0 0 2.536-1.009 5.234 5.234 0 0 0 1.686-2.147 2.36 2.36 0 0 1 1.293-1.278 2.357 2.357 0 0 1 1.819.023 2.328 2.328 0 0 1 1.2 3.067 10.001 10.001 0 1 1-12.701-13.335l-.089-.033Zm-1.278-10.356-.111-.856a2.21 2.21 0 0 1 .438-1.752 2.215 2.215 0 0 1 1.595-.848 2.328 2.328 0 0 1 1.725.474 2.338 2.338 0 0 1 .876 1.559l.111.845a2.382 2.382 0 0 1-2.034 2.611 2.314 2.314 0 0 1-2.321-1.164 2.303 2.303 0 0 1-.279-.869Z" fill="#6D55F1"/></svg>