<svg width="533" height="523" fill="none" xmlns="http://www.w3.org/2000/svg"><path d="M73.381 422.641H28.62v14.246h44.762v-14.246ZM217.928 74.552h-44.762v14.246h44.762V74.552ZM48.416 454.851l-22.229.382-11.241.152H3.081v-15.391h.636l22.381.089 11.19.114 11.191.14h.306v.293l-.37 14.221Zm0 0-.306-14.246.306.305-11.19.14-11.191.115-22.381.102.636-.637v14.246l-.585-.573h11.088l11.14.153 22.483.395Zm433.577-134.439-22.228.369-11.242.153h-11.878v-15.468h.637l22.381.076 11.19.115 11.191.14h.305v.305l-.356 14.31Zm0 0-.306-14.246.306.293-11.191.14-11.19.114-22.381.077.636-.624-.063 14.246-.573-.586h11.089l11.139.153 22.534.433Zm-24.978 17.951-22.216.382-11.254.152H411.68v-15.468h.649l22.381.077 11.178.114 11.19.14h.319v.382l-.382 14.221Zm0 0-.344-14.221.293.293-11.191.14-11.177.115-22.381.076.636-.624-.063 14.233-.573-.573h11.088l11.127.153 22.585.408Zm-24.864-32.197h-44.762v14.246h44.762v-14.246Zm98.156 134.439h-44.762v14.246h44.762v-14.246ZM505.341.687h-44.762v14.246h44.762V.687Zm24.965 32.21-22.228.382-11.241.152h-11.866v-.585l-.063-14.246v-.637h.636l22.381.09 11.191.114 11.19.14h.306v.293l-.306 14.297Zm0 0-.305-14.297.305.305-11.19.14-11.191.102-22.381.09.637-.637v14.246l-.586-.573h11.089l11.139.153 22.483.47ZM73.381 14.933l-22.228.382-11.241.153H28.046V0h.637l22.38.09 11.191.114 11.19.14h.306v.293l-.369 14.296Zm0 0L73.076.687l.305.306-11.19.14L51 1.235l-22.382.089.637-.637v14.246l-.586-.572H39.76l11.14.152 22.482.42Z" fill="#EBEBEB"/><path d="M21.744 4.354v226.178h147.017V4.354H21.744Zm141.594 220.754H27.117V9.778h136.221v215.33Z" fill="#EBEBEB"/><path d="M163.325 9.777H27.168v215.331h136.157V9.778Z" fill="#fff"/><path d="M27.168 120.155h136.157v-5.424H27.168v5.424Z" fill="#EBEBEB"/><path d="M11.764 246.102h166.978v-15.57H11.764v15.57ZM27.168 9.777h136.221v139.315H27.168V9.777Zm131.129 5.016h-126.1v129.27h126.112l-.012-129.27Z" fill="#DBDBDB"/><path d="M119.875 9.777h-2.712v134.286h2.712V9.777Zm-46.545 0h-2.71v134.286h2.711V9.777Z" fill="#DBDBDB"/><path d="M365.212 4.354v226.178h147.004V4.354H365.212Zm141.581 220.754H370.635V9.778h136.221l-.063 215.33Z" fill="#EBEBEB"/><path d="M506.793 9.777H370.635v215.331h136.158V9.778Z" fill="#fff"/><path d="M370.636 120.155h136.157v-5.424H370.636v5.424Z" fill="#EBEBEB"/><path d="M355.232 246.102H522.21v-15.57H355.232v15.57ZM370.635 9.777h136.221v139.315H370.635V9.777Zm131.129 5.016H375.651v129.27h126.113V14.793Z" fill="#DBDBDB"/><path d="M463.342 9.777h-2.711v134.286h2.711V9.777Zm-46.544 0h-2.712v134.286h2.712V9.777Z" fill="#DBDBDB"/><path d="M186.024 297.865H0v11.356h186.024v-11.356Zm-16.588 11.357H16.588v31.33h152.848v-31.33Z" fill="#EBEBEB"/><path d="m169.436 315.409-152.848 3.043v-9.23h152.848v6.187Z" fill="#C7C7C7"/><path d="M146.406 334.632H39.619v-19.478h106.787v19.478Zm-105.514-1.273h104.241v-16.932H40.892v16.932Z" fill="#DBDBDB"/><path d="M110.416 322.271H75.622v5.258h34.794v-5.258Z" fill="#DBDBDB"/><path d="M15.353 520.771h-5.067l14.73-180.206h12.91L15.352 520.771Z" fill="#EBEBEB"/><path d="m37.925 340.565-1.515 12.056H24.036l.98-12.056h12.91Z" fill="#C7C7C7"/><path d="M170.671 520.771h5.066l-14.729-180.206h-12.909l22.572 180.206Z" fill="#EBEBEB"/><path d="m148.099 340.565 1.515 12.056h12.374l-.98-12.056h-12.909Z" fill="#C7C7C7"/><path d="m1.477 520.771 66.379-.318 66.379-.102 132.745-.216 132.746.216 66.379.102 66.379.318-66.379.306-66.379.114-132.746.217-132.745-.217-66.38-.114-66.378-.306Z" fill="#263238"/><path d="M374.569 33.368H159.416a21.978 21.978 0 0 0-20.225 13.72 21.965 21.965 0 0 0-1.608 8.432v443.036a21.984 21.984 0 0 0 21.782 22.177h215.153a22.003 22.003 0 0 0 15.525-6.559 22.017 22.017 0 0 0 6.334-15.618V55.52a21.997 21.997 0 0 0-21.808-22.152Zm8.186 451.528c0 11.661-8.733 21.095-19.491 21.095H170.721c-10.808 0-19.529-9.434-19.529-21.095V72.337c0-23.756 8.721-24.914 19.529-24.914h38.562c2.241 0 4.074 2.546 4.074 5.703v1.362c0 7.397 4.049 7.397 9.065 7.397h89.116c5.093 0 9.026 0 9.026-7.422v-1.337c0-3.157 1.808-5.703 4.1-5.703h38.575c10.757 0 19.491 3.157 19.491 24.914l.025 412.559Z" fill="#263238"/><path d="M279.138 52.668H254.81a1.504 1.504 0 0 1-1.063-2.565c.282-.281.664-.44 1.063-.44h24.328a1.504 1.504 0 0 1 1.063 2.565c-.282.282-.664.44-1.063.44Z" fill="#fff"/><path d="M382.832 72.337v412.559c0 11.661-8.734 21.095-19.504 21.095H170.722c-10.796 0-19.529-9.434-19.529-21.095V72.337c0-23.756 8.733-24.914 19.529-24.914h38.562c2.24 0 4.074 2.546 4.074 5.703v1.363c0 7.396 4.048 7.396 9.064 7.396h89.117c5.016 0 9.026 0 9.026-7.422v-1.337c0-3.157 1.808-5.703 4.086-5.703h38.575c10.809 0 19.606 3.157 19.606 24.914Z" fill="#fff"/><path d="m174.63 99.874-6.849-6.403 6.849-6.417 1.057 1.133-5.627 5.284 5.627 5.27-1.057 1.133Zm190.2-10.401a1.351 1.351 0 0 1-1.612 1.324 1.346 1.346 0 0 1-1.061-1.06 1.351 1.351 0 0 1 1.842-1.514 1.337 1.337 0 0 1 .831 1.25Zm0 4.787a1.351 1.351 0 0 1-1.612 1.323 1.346 1.346 0 0 1-1.061-1.06 1.351 1.351 0 0 1 1.842-1.513 1.336 1.336 0 0 1 .831 1.25Zm0 4.787a1.351 1.351 0 0 1-.833 1.246 1.343 1.343 0 0 1-1.47-.292 1.349 1.349 0 0 1 .954-2.304 1.336 1.336 0 0 1 1.349 1.35Zm-116.068-1.515a.472.472 0 0 1 .649 0 2.8 2.8 0 0 0 1.706.687 1.87 1.87 0 0 0 1.108-.33.783.783 0 0 0 .382-.637.513.513 0 0 0-.077-.28.864.864 0 0 0-.267-.268 3.231 3.231 0 0 0-1.273-.42 5.25 5.25 0 0 1-1.146-.356 1.834 1.834 0 0 1-.827-.688 1.347 1.347 0 0 1-.204-.738 1.655 1.655 0 0 1 .713-1.273c.452-.314.99-.479 1.54-.471a3.538 3.538 0 0 1 1.948.713.47.47 0 0 1 .196.291.47.47 0 0 1-.069.345.454.454 0 0 1-.471.196.457.457 0 0 1-.165-.069 2.544 2.544 0 0 0-1.439-.572 1.71 1.71 0 0 0-.993.305.732.732 0 0 0-.343.56c-.009.09.014.18.063.255.065.092.147.17.242.229.34.204.716.338 1.108.395.438.069.866.193 1.273.369.359.159.668.414.891.738.144.229.219.494.216.764a1.753 1.753 0 0 1-.763 1.388 2.791 2.791 0 0 1-1.643.496 3.817 3.817 0 0 1-2.291-.89.474.474 0 0 1-.212-.355.468.468 0 0 1 .148-.384Zm6.2-4.24a.483.483 0 0 1 .484-.484.51.51 0 0 1 .509.484v5.27a.51.51 0 0 1-.509.485.485.485 0 0 1-.484-.484v-5.27Zm2.381 2.559a3.24 3.24 0 0 1 .973-2.292 3.26 3.26 0 0 1 2.312-.929 3.337 3.337 0 0 1 2.037.688.522.522 0 0 1 .182.546.511.511 0 0 1-.806.269 2.305 2.305 0 0 0-3.017.165 2.094 2.094 0 0 0-.498 2.38c.116.266.285.504.498.701a2.232 2.232 0 0 0 1.604.65c.446.006.886-.108 1.273-.332v-1.273h-1.273a.508.508 0 0 1-.36-.865.503.503 0 0 1 .36-.14h1.769a.494.494 0 0 1 .522.496v2.126a.43.43 0 0 1-.165.216c-.58.448-1.292.69-2.025.688a3.234 3.234 0 0 1-3.386-3.094Zm8.504 2.712a.486.486 0 0 1-.483.484.485.485 0 0 1-.484-.484V93.38a.47.47 0 0 1 .191-.407.496.496 0 0 1 .687.102l2.877 3.985v-3.667a.483.483 0 0 1 .826-.342c.091.09.142.214.142.342v5.182a.483.483 0 0 1-.689.438.449.449 0 0 1-.164-.133l-2.852-3.96-.051 3.642Zm11.152.484a2.547 2.547 0 0 1-2.546-2.546v-3.183a.48.48 0 0 1 .138-.346.464.464 0 0 1 .346-.138.497.497 0 0 1 .497.484V96.5a1.589 1.589 0 0 0 1.591 1.59 1.59 1.59 0 0 0 1.591-1.59v-3.183a.486.486 0 0 1 .497-.484.47.47 0 0 1 .484.484V96.5a2.55 2.55 0 0 1-2.598 2.546Zm6.748-2.419h-1.095v1.935a.501.501 0 0 1-.49.417.497.497 0 0 1-.49-.417v-5.27a.486.486 0 0 1 .483-.485h1.592a1.91 1.91 0 0 1 0 3.82Zm-1.095-.993h1.095a.917.917 0 0 0 0-1.833h-1.095v1.833ZM202.626 56.69l-.37.37-.216.204a5.092 5.092 0 0 0-7.18 0l-.204-.217-.369-.369.471-.42a6.538 6.538 0 0 1 1.095-.687 5.257 5.257 0 0 1 1.451-.484c.229 0 .471 0 .713-.102h1.133c.435.06.862.166 1.273.318a6.3 6.3 0 0 1 .891.42c.302.173.588.374.853.599l.395.356.064.013Z" fill="#C7C7C7"/><path d="m196.043 58.435-.598-.586a4.266 4.266 0 0 1 6.009 0l-.598.586a3.414 3.414 0 0 0-4.813 0Z" fill="#C7C7C7"/><path d="m200.27 59.033-.585.586a1.716 1.716 0 0 0-2.47 0c-.191-.204-.395-.395-.586-.586a2.561 2.561 0 0 1 1.821-.766 2.541 2.541 0 0 1 1.82.766Z" fill="#C7C7C7"/><path d="M198.984 60.141a.532.532 0 0 1-.908.377.527.527 0 0 1-.149-.377.522.522 0 0 1 .522-.522.522.522 0 0 1 .535.522Zm-32.693-2.33a1.54 1.54 0 0 1 1.846-1.51 1.542 1.542 0 0 1 1.114 2.109 1.537 1.537 0 0 1-1.432.942 1.531 1.531 0 0 1-1.415-.952 1.54 1.54 0 0 1-.113-.589Zm4.826 0a1.534 1.534 0 0 1 .942-1.432 1.54 1.54 0 1 1-.942 1.432Zm4.837 0a1.543 1.543 0 0 1 1.833-1.525 1.543 1.543 0 0 1 1.218 1.207 1.546 1.546 0 0 1-.653 1.585 1.542 1.542 0 0 1-2.398-1.267Zm4.838 0a1.545 1.545 0 0 1 1.838-1.524 1.544 1.544 0 0 1 1.214 1.214 1.542 1.542 0 0 1-2.109 1.722 1.534 1.534 0 0 1-.827-.827 1.542 1.542 0 0 1-.116-.585Zm4.838 0a1.539 1.539 0 0 1 2.629-1.102 1.543 1.543 0 0 1 .332 1.685 1.541 1.541 0 0 1-1.434.945 1.525 1.525 0 0 1-1.527-1.528Zm179.773 3.361h-12.514v-5.805h12.514v5.805Zm-11.852-.65h11.203v-4.506h-11.203v4.507Z" fill="#C7C7C7"/><path d="M361.991 56.36h-8.059v3.82h8.059v-3.82Zm4.519.356h-1.107v3.094h1.107v-3.094Z" fill="#C7C7C7"/><path d="M180.69 483.699h-1.133v5.194h-2.113v-2.648h-3.743v2.648h-2.126v-5.194h-1.121l5.118-5.283 5.118 5.283Zm183.3-5.283h-12.336v1.756h12.336v-1.756Zm0 4.354h-12.336v1.769h12.336v-1.769Zm0 4.366h-12.336v1.77h12.336v-1.77Zm-93.14-3.297-3.513 3.743-3.501-3.743.611-.586 2.89 3.081 2.89-3.081.623.586Z" fill="#EBEBEB"/><path d="M267.336 491.452a6.363 6.363 0 0 1-4.501-10.866 6.369 6.369 0 0 1 6.937-1.38 6.363 6.363 0 0 1-2.436 12.246Zm0-11.903a5.54 5.54 0 0 0-5.117 3.421 5.536 5.536 0 0 0 4.045 7.55 5.542 5.542 0 0 0 5.683-2.366c.607-.912.93-1.984.927-3.08 0-.727-.143-1.446-.421-2.118a5.517 5.517 0 0 0-5.117-3.407Z" fill="#EBEBEB"/><path d="M193.765 215.025a2.471 2.471 0 0 1-2.47-2.469v-2.992a.487.487 0 0 1 .477-.406.488.488 0 0 1 .478.406v3.043a1.527 1.527 0 0 0 3.042 0v-3.043a.479.479 0 0 1 .143-.338.465.465 0 0 1 .341-.133.462.462 0 0 1 .329.139.458.458 0 0 1 .13.332v3.043a2.471 2.471 0 0 1-2.47 2.418Zm4.188-1.222a.446.446 0 0 1 .304-.172.432.432 0 0 1 .333.109c.267.22.596.349.942.369a1.13 1.13 0 0 0 .585-.166c.115-.102.153-.178.153-.254a.144.144 0 0 0 0-.077s0-.063-.114-.114a2.123 2.123 0 0 0-.688-.229 3.59 3.59 0 0 1-.738-.23 1.46 1.46 0 0 1-.586-.496.974.974 0 0 1-.153-.535 1.285 1.285 0 0 1 .51-.942c.311-.211.68-.322 1.056-.318.464.014.911.18 1.273.471a.48.48 0 0 1 .14.636.443.443 0 0 1-.636.115 1.451 1.451 0 0 0-.777-.318.88.88 0 0 0-.522.165.274.274 0 0 0-.127.191.088.088 0 0 0 0 .064l.089.089c.193.106.405.176.624.204.272.046.538.127.789.242.25.105.462.283.611.509.101.169.153.363.153.56a1.27 1.27 0 0 1-.535.993 1.904 1.904 0 0 1-1.107.344 2.548 2.548 0 0 1-1.528-.586.471.471 0 0 1-.051-.624Zm4.1-.916a2.098 2.098 0 0 1 2.075-2.139 2.039 2.039 0 0 1 2.062 1.986v.076a.395.395 0 0 1-.433.344h-2.724c.039.216.141.415.293.573.216.222.505.358.814.382.314.032.628-.045.892-.217a.485.485 0 0 1 .649 0 .407.407 0 0 1 0 .561 2.19 2.19 0 0 1-1.541.56 2.112 2.112 0 0 1-2.087-2.126Zm.929-.42h2.419a1.403 1.403 0 0 0-1.273-.904 1.18 1.18 0 0 0-1.133.904h-.013Zm7.04-1.261a.457.457 0 0 1-.458.446.786.786 0 0 0-.509.165 1.272 1.272 0 0 0-.395.408 2.996 2.996 0 0 0-.356.725v1.617a.467.467 0 0 1-.292.427.457.457 0 0 1-.625-.427v-3.361c0-.118.047-.231.13-.315a.449.449 0 0 1 .316-.13.433.433 0 0 1 .331.121.449.449 0 0 1 .14.324v.064a1.07 1.07 0 0 1 .178-.178 1.841 1.841 0 0 1 1.082-.331.429.429 0 0 1 .174.03.42.42 0 0 1 .149.096.432.432 0 0 1 .135.319Zm4.672 1.324v2.037a.439.439 0 0 1-.121.319.433.433 0 0 1-.311.139.46.46 0 0 1-.459-.458v-2.037a.879.879 0 0 0-1.499-.611.85.85 0 0 0-.245.611v2.037c.005.03.005.06 0 .089a.486.486 0 0 1-.458.369.433.433 0 0 1-.32-.135.455.455 0 0 1-.096-.148.474.474 0 0 1-.03-.175v-3.361a.469.469 0 0 1 .03-.174.46.46 0 0 1 .242-.249.449.449 0 0 1 .423.037.455.455 0 0 1 .171.195c.27-.173.583-.266.904-.267.47.003.92.193 1.252.526.331.334.517.786.517 1.256Zm5.296.369v1.668a.448.448 0 0 1-.891.089 1.987 1.987 0 0 1-1.146.37 2.02 2.02 0 0 1-1.451-.624 2.208 2.208 0 0 1-.586-1.503 2.13 2.13 0 0 1 .586-1.502 1.937 1.937 0 0 1 2.546-.267.448.448 0 0 1 .891.089l.051 1.68Zm-.904 0a1.267 1.267 0 0 0-.331-.878 1.06 1.06 0 0 0-.802-.356 1 1 0 0 0-.434.09 1 1 0 0 0-.355.266c-.218.24-.337.554-.331.878-.006.325.113.639.331.879a1.043 1.043 0 0 0 .789.331 1.097 1.097 0 0 0 .802-.331c.219-.24.337-.554.331-.879Zm6.15-.382v2.05a.46.46 0 0 1-.446.458.47.47 0 0 1-.471-.458v-2.05a.877.877 0 0 0-.262-.608.874.874 0 0 0-.616-.245.883.883 0 0 0-.866.879v2.113a.497.497 0 0 1-.433.28h-.089a.458.458 0 0 1-.357-.445v-3.298a.452.452 0 0 1 .126-.327.458.458 0 0 1 .32-.144.446.446 0 0 1 .407.255c.28-.159.595-.247.917-.255a1.794 1.794 0 0 1 1.35.599 1.738 1.738 0 0 1 1.273-.599 1.795 1.795 0 0 1 1.782 1.795v2.025a.459.459 0 0 1-.917 0v-2.025a.877.877 0 0 0-.865-.878.891.891 0 0 0-.853.878Zm4.252.37a2.121 2.121 0 0 1 .605-1.498 2.12 2.12 0 0 1 1.483-.641 2.039 2.039 0 0 1 2.062 1.986v.076a.395.395 0 0 1-.433.344h-2.724c.039.216.141.415.293.573.216.222.505.358.814.382.313.03.627-.046.892-.217a.485.485 0 0 1 .649 0 .407.407 0 0 1 0 .561 2.19 2.19 0 0 1-1.541.56 2.14 2.14 0 0 1-2.1-2.126Zm.942-.42h2.419a1.403 1.403 0 0 0-1.273-.904 1.183 1.183 0 0 0-1.146.904Z" fill="#263238" fill-opacity=".4"/><path d="M344.104 221.544H189.856v18.32h154.248v-18.32Z" fill="#EBEBEB"/><path d="M191.295 258.463v-5.092a.454.454 0 0 1 .289-.439.454.454 0 0 1 .182-.032h2.788a.472.472 0 0 1 .471.471.486.486 0 0 1-.471.484h-2.317v1.553h1.999a.48.48 0 0 1 .329.142.48.48 0 0 1 .142.329.486.486 0 0 1-.471.484h-1.999v1.578h2.317a.483.483 0 0 1 .406.478.479.479 0 0 1-.116.313.477.477 0 0 1-.29.164h-2.788a.467.467 0 0 1-.471-.433Zm8.542-2.037v2.05a.461.461 0 0 1-.129.32.461.461 0 0 1-.316.138.47.47 0 0 1-.471-.458v-2.05a.873.873 0 0 0-.546-.792.885.885 0 0 0-.946.201.88.88 0 0 0-.252.617v2.113a.5.5 0 0 1-.433.28h-.089a.46.46 0 0 1-.37-.445v-3.298a.47.47 0 0 1 .459-.471.449.449 0 0 1 .407.255c.28-.159.595-.247.917-.255a1.804 1.804 0 0 1 1.349.599 1.75 1.75 0 0 1 1.337-.599 1.795 1.795 0 0 1 1.782 1.795v2.025a.459.459 0 0 1-.916 0v-2.025a.878.878 0 0 0-.866-.878.907.907 0 0 0-.346.059.902.902 0 0 0-.571.819Zm8.174.382v1.668a.464.464 0 0 1-.135.324.45.45 0 0 1-.324.134.47.47 0 0 1-.445-.369 1.91 1.91 0 0 1-1.133.369 1.991 1.991 0 0 1-1.452-.623 2.203 2.203 0 0 1-.585-1.503 2.154 2.154 0 0 1 .585-1.502 1.968 1.968 0 0 1 1.452-.649c.408.003.805.137 1.133.382a.468.468 0 0 1 .445-.382.458.458 0 0 1 .459.471v1.68Zm-.904 0a1.2 1.2 0 0 0-.344-.878 1.054 1.054 0 0 0-1.224-.266 1.018 1.018 0 0 0-.355.266 1.208 1.208 0 0 0-.331.878c-.005.325.113.639.331.879a1.043 1.043 0 0 0 .79.331 1.072 1.072 0 0 0 .789-.331c.237-.232.374-.547.382-.879h-.038Zm3.514-3.221a.48.48 0 0 1-.106.382.474.474 0 0 1-.557.123.474.474 0 0 1-.267-.505v-.178a.47.47 0 0 1 .769-.282.47.47 0 0 1 .161.282v.178Zm0 1.554v3.335a.47.47 0 0 1-.93 0v-3.335a.48.48 0 0 1 .106-.382.474.474 0 0 1 .557-.123.474.474 0 0 1 .267.505Zm1.82-2.19a.483.483 0 0 1 .471.471v5.092a.483.483 0 0 1-.471.471.467.467 0 0 1-.471-.471v-5.092a.467.467 0 0 1 .471-.471Z" fill="#263238" fill-opacity=".4"/><path d="M344.104 265.453H189.856v18.319h154.248v-18.319Z" fill="#EBEBEB"/><path d="M193.294 300.514h-1.057v1.858a.471.471 0 0 1-.471.471.482.482 0 0 1-.471-.471v-5.092a.472.472 0 0 1 .471-.471h1.528a1.824 1.824 0 0 1 1.393.478 1.824 1.824 0 0 1 .593 1.349 1.839 1.839 0 0 1-1.239 1.734c-.24.082-.495.114-.747.093v.051Zm-1.057-.942h1.057a.878.878 0 0 0 0-1.757h-1.057v1.757Zm7.562 1.145v1.681a.461.461 0 0 1-.138.316.461.461 0 0 1-.32.129.47.47 0 0 1-.446-.369c-.33.239-.726.368-1.133.369a1.983 1.983 0 0 1-1.451-.623 2.181 2.181 0 0 1-.586-1.503 2.15 2.15 0 0 1 .586-1.502 1.906 1.906 0 0 1 2.546-.267.468.468 0 0 1 .446-.382.472.472 0 0 1 .458.471l.038 1.68Zm-.904 0a1.276 1.276 0 0 0-.343-.878 1.064 1.064 0 0 0-.796-.355 1.074 1.074 0 0 0-.796.355 1.276 1.276 0 0 0-.318.878c-.009.323.105.637.318.879a1.117 1.117 0 0 0 1.227.245c.136-.057.26-.14.365-.245.222-.238.345-.553.343-.879Zm2.368.904a.446.446 0 0 1 .305-.172.426.426 0 0 1 .332.109c.267.219.597.349.942.369.207-.001.409-.058.586-.166.114-.102.152-.178.152-.254a.144.144 0 0 0 0-.077.227.227 0 0 0-.114-.102 1.665 1.665 0 0 0-.675-.241 3.115 3.115 0 0 1-.738-.23 1.27 1.27 0 0 1-.599-.496 1.09 1.09 0 0 1-.14-.535 1.284 1.284 0 0 1 .497-.942 1.88 1.88 0 0 1 1.056-.318c.464.02.909.184 1.274.471a.47.47 0 0 1 .127.636.426.426 0 0 1-.464.189.418.418 0 0 1-.16-.074 1.511 1.511 0 0 0-.789-.306.81.81 0 0 0-.51.153c-.114.077-.14.153-.14.191a.1.1 0 0 0 0 .064.25.25 0 0 0 .102.089c.193.108.405.178.624.204.273.045.538.127.789.241.253.101.467.279.611.51a1.1 1.1 0 0 1 .166.56 1.27 1.27 0 0 1-.535.993c-.33.225-.72.345-1.12.344a2.554 2.554 0 0 1-1.515-.586.456.456 0 0 1-.064-.624Zm4.125 0a.446.446 0 0 1 .304-.172.429.429 0 0 1 .333.109c.265.222.596.351.942.369a1.13 1.13 0 0 0 .585-.166c.115-.102.153-.178.153-.254a.144.144 0 0 0 0-.077.306.306 0 0 0-.115-.102 1.733 1.733 0 0 0-.687-.241 3.468 3.468 0 0 1-.751-.23 1.365 1.365 0 0 1-.586-.496.974.974 0 0 1-.153-.535 1.285 1.285 0 0 1 .51-.942c.311-.211.68-.322 1.056-.318.465.014.911.18 1.273.471a.48.48 0 0 1 .14.636.452.452 0 0 1-.293.195.455.455 0 0 1-.343-.08 1.434 1.434 0 0 0-.777-.306.885.885 0 0 0-.522.153.274.274 0 0 0-.127.191.088.088 0 0 0 0 .064l.089.089c.193.106.405.176.624.204.273.046.538.127.789.242.25.105.462.283.611.509.101.169.154.363.153.56a1.272 1.272 0 0 1-.535.993 1.904 1.904 0 0 1-1.107.344 2.548 2.548 0 0 1-1.528-.586.473.473 0 0 1-.038-.624Zm9.777-2.368-1.413 3.323v.064h-.497v-.064l-.623-1.489-.599 1.489v.064h-.433a.136.136 0 0 1-.089 0v-.064l-1.4-3.323a.429.429 0 0 1-.36-.176.437.437 0 0 1-.06-.397.408.408 0 0 1 .56.255l1.018 2.304.599-1.438a.438.438 0 0 1 .407-.268.437.437 0 0 1 .42.268l.611 1.438 1.006-2.304a.415.415 0 0 1 .088-.152.408.408 0 0 1 .313-.14c.06 0 .118.013.172.037a.45.45 0 0 1 .28.573Zm2.037 2.967a2.107 2.107 0 0 1-.585-1.503 2.213 2.213 0 0 1 .585-1.502 2.03 2.03 0 0 1 1.477-.649 1.917 1.917 0 0 1 1.426.649c.385.405.599.943.598 1.502.007.278-.043.554-.145.813a2.073 2.073 0 0 1-.453.69 1.881 1.881 0 0 1-1.426.649 1.973 1.973 0 0 1-1.477-.649Zm.344-1.503c-.006.328.102.647.306.904.223.211.52.325.827.319a1.098 1.098 0 0 0 .777-.319 1.27 1.27 0 0 0 .343-.904 1.27 1.27 0 0 0-.343-.891 1.159 1.159 0 0 0-.777-.318 1.266 1.266 0 0 0-.827.318 1.376 1.376 0 0 0-.306.891Zm7.066-1.693a.458.458 0 0 1-.445.458.912.912 0 0 0-.522.153 1.563 1.563 0 0 0-.395.42 2.318 2.318 0 0 0-.344.713v1.63a.47.47 0 0 1-.769.282.47.47 0 0 1-.16-.282v-3.374a.47.47 0 0 1 .769-.282.47.47 0 0 1 .16.282v.064c.053-.066.113-.126.178-.179a1.822 1.822 0 0 1 1.083-.33.451.451 0 0 1 .315.13c.041.041.074.09.096.145a.434.434 0 0 1 .034.17Zm4.774 3.361a.457.457 0 0 1-.904.089 2.06 2.06 0 0 1-1.171.369 2.138 2.138 0 1 1 0-4.277c.411.001.811.13 1.146.369v-1.617a.47.47 0 0 1 .769-.282.47.47 0 0 1 .16.282v5.067Zm-2.075-2.877a1.128 1.128 0 0 0-.802.344 1.27 1.27 0 0 0-.344.865 1.18 1.18 0 0 0 .344.841 1.101 1.101 0 0 0 1.242.265c.138-.061.262-.152.362-.265a1.18 1.18 0 0 0 .344-.841 1.27 1.27 0 0 0-.344-.865 1.076 1.076 0 0 0-.802-.344Z" fill="#263238" fill-opacity=".4"/><path d="M344.104 309.362H189.856v18.319h154.248v-18.319Z" fill="#EBEBEB"/><path d="M199.176 348.204a.165.165 0 0 1 .165-.166.152.152 0 0 1 .067.009.17.17 0 0 1 .098.09.17.17 0 0 1 .013.067v4.646a.182.182 0 0 1-.052.127.18.18 0 0 1-.126.052.166.166 0 0 1-.122-.053.191.191 0 0 1-.035-.058.174.174 0 0 1-.008-.068v-4.646Zm7.103 1.502v3.145a.165.165 0 0 1-.165.165.165.165 0 0 1-.166-.165v-.51a1.663 1.663 0 0 1-.557.491 1.665 1.665 0 0 1-.716.197 1.743 1.743 0 0 1-1.233-2.978c.327-.327.77-.511 1.233-.511a1.654 1.654 0 0 1 1.273.675v-.509c0-.044.018-.086.049-.117a.166.166 0 0 1 .117-.049.166.166 0 0 1 .165.166Zm-.331 1.579a1.27 1.27 0 0 0-1.59-1.104 1.266 1.266 0 0 0-.933 1.026 1.269 1.269 0 0 0 .558 1.269c.205.135.446.208.692.209a1.36 1.36 0 0 0 1.273-1.4Zm5.118 1.464a1.655 1.655 0 0 1-1.655 1.642 1.788 1.788 0 0 1-.726-.166.176.176 0 0 1-.075-.102.175.175 0 0 1 .012-.127.138.138 0 0 1 .037-.058.157.157 0 0 1 .127-.043.166.166 0 0 1 .065.025 1.278 1.278 0 0 0 1.833-1.146v-.433a1.568 1.568 0 0 1-1.273.688 1.734 1.734 0 0 1-1.731-1.732 1.73 1.73 0 0 1 1.731-1.731 1.614 1.614 0 0 1 1.273.675v-.51a.162.162 0 0 1 .097-.158.167.167 0 0 1 .096-.013.168.168 0 0 1 .087.044c.044 0 .086.018.117.049a.166.166 0 0 1 .049.117l-.064 2.979Zm-.344-1.477a1.277 1.277 0 0 0-1.59-1.104 1.272 1.272 0 0 0 .317 2.504 1.348 1.348 0 0 0 1.273-1.4Zm1.986-1.553a.178.178 0 0 1 .245-.165.167.167 0 0 1 .099.165v.764-.09a1.704 1.704 0 0 1 1.4-.853.171.171 0 0 1 .122.053.173.173 0 0 1 .035.058.158.158 0 0 1 .009.068.166.166 0 0 1-.166.165 1.27 1.27 0 0 0-1.018.573c-.18.249-.322.524-.42.815v1.528a.194.194 0 0 1-.009.067.163.163 0 0 1-.157.111.181.181 0 0 1-.126-.052.181.181 0 0 1-.052-.126l.038-3.081Zm2.521 1.566a1.694 1.694 0 0 1 3.387-.128.175.175 0 0 1-.058.114.147.147 0 0 1-.056.031.16.16 0 0 1-.065.008h-2.864a1.374 1.374 0 0 0 1.362 1.337 1.274 1.274 0 0 0 1.12-.637.169.169 0 0 1 .115-.046c.043 0 .084.017.115.046a.19.19 0 0 1 .063.242 1.696 1.696 0 0 1-1.413.789 1.73 1.73 0 0 1-1.706-1.756Zm.369-.281h2.648a1.333 1.333 0 0 0-1.324-1.152 1.334 1.334 0 0 0-1.324 1.152Zm3.972.281a1.697 1.697 0 0 1 1.628-1.624 1.696 1.696 0 0 1 1.746 1.496.153.153 0 0 1-.166.153h-2.902a1.372 1.372 0 0 0 1.349 1.337 1.276 1.276 0 0 0 1.133-.637.166.166 0 0 1 .229 0 .176.176 0 0 1 0 .242 1.665 1.665 0 0 1-1.413.79 1.72 1.72 0 0 1-1.604-1.757Zm.369-.28h2.636a1.318 1.318 0 1 0-2.636 0Zm7.575-1.299a.181.181 0 0 1-.051.114.181.181 0 0 1-.114.051h-.458v2.547a.279.279 0 0 0 .254.267.178.178 0 0 1 .207.251.176.176 0 0 1-.126.096.185.185 0 0 1-.081-.003.596.596 0 0 1-.611-.611v-2.547h-.433c-.165 0-.165-.076-.165-.165 0-.089 0-.166.165-.166h.433v-1.273c0-.047.019-.092.052-.126a.178.178 0 0 1 .305.126v1.273h.458a.183.183 0 0 1 .114.052c.03.031.048.071.051.114Zm3.017-.102a1.745 1.745 0 0 1 1.234 2.977 1.741 1.741 0 0 1-2.467 0 1.743 1.743 0 0 1 1.233-2.977Zm0 3.145a1.42 1.42 0 0 0 1.403-.772 1.416 1.416 0 0 0-1.775-1.952 1.413 1.413 0 0 0-.901 1.323 1.364 1.364 0 0 0 1.273 1.337v.064Zm8.021-3.043v3.144a.158.158 0 0 1-.009.068.158.158 0 0 1-.035.058.171.171 0 0 1-.122.053.178.178 0 0 1-.178-.179v-.509a1.625 1.625 0 0 1-1.273.688 1.743 1.743 0 0 1-1.233-2.978c.327-.327.77-.511 1.233-.511a1.627 1.627 0 0 1 1.273.675v-.509a.167.167 0 0 1 .111-.157.194.194 0 0 1 .067-.009c.044 0 .086.018.117.049a.166.166 0 0 1 .049.117Zm-.344 1.579a1.27 1.27 0 0 0-1.59-1.104 1.266 1.266 0 0 0-.933 1.026 1.269 1.269 0 0 0 .558 1.269c.206.135.446.208.692.209a1.362 1.362 0 0 0 1.273-1.4Zm2.037-3.081a.171.171 0 0 1 .053-.122.158.158 0 0 1 .058-.035.158.158 0 0 1 .068-.009.18.18 0 0 1 .178.166v4.646a.182.182 0 0 1-.052.127.178.178 0 0 1-.305-.127v-4.646Zm1.706 0a.178.178 0 1 1 .356 0v4.647a.177.177 0 0 1-.178.178.181.181 0 0 1-.126-.052.181.181 0 0 1-.052-.126v-4.647Zm3.628 4.099a.173.173 0 0 1 .055-.039.169.169 0 0 1 .187.039c.305.245.679.388 1.07.407.238.003.471-.073.662-.216a.49.49 0 0 0 .177-.672.495.495 0 0 0-.177-.181 1.71 1.71 0 0 0-.751-.255 1.987 1.987 0 0 1-.79-.267.724.724 0 0 1-.369-.624.877.877 0 0 1 .369-.687c.255-.16.552-.24.853-.229.377.015.741.144 1.044.369a.175.175 0 0 1 .047.121.175.175 0 0 1-.047.121.168.168 0 0 1-.114.046.169.169 0 0 1-.115-.046 1.618 1.618 0 0 0-.866-.344 1.114 1.114 0 0 0-.662.191.543.543 0 0 0-.216.407.4.4 0 0 0 .204.344c.214.137.459.22.713.242.296.043.581.142.84.293a.854.854 0 0 1 .394.713.884.884 0 0 1-.394.7 1.443 1.443 0 0 1-.866.28 2.17 2.17 0 0 1-1.273-.496.166.166 0 0 1 .025-.217Zm5.068-2.597a.183.183 0 0 1-.052.114.181.181 0 0 1-.114.051h-.458v2.547a.278.278 0 0 0 .254.267.185.185 0 0 1 .156.03.184.184 0 0 1 .07.142.184.184 0 0 1-.07.142.185.185 0 0 1-.156.03.606.606 0 0 1-.568-.375.598.598 0 0 1-.043-.236v-2.547h-.433c-.165 0-.165-.076-.165-.165 0-.089 0-.166.165-.166h.433v-1.273c0-.047.019-.092.052-.126a.178.178 0 0 1 .305.126v1.273h.407a.2.2 0 0 1 .077 0 .188.188 0 0 1 .07.033.186.186 0 0 1 .07.133Zm4.34 0v3.144a.174.174 0 0 1-.008.068.167.167 0 0 1-.157.111.176.176 0 0 1-.126-.053.174.174 0 0 1-.052-.126v-.509a1.634 1.634 0 0 1-1.273.688 1.745 1.745 0 1 1 0-3.489 1.62 1.62 0 0 1 1.273.675v-.509a.162.162 0 0 1 .111-.157.187.187 0 0 1 .067-.009.166.166 0 0 1 .165.166Zm-.343 1.579a1.279 1.279 0 0 0-.868-1.082 1.271 1.271 0 0 0-1.655 1.004 1.268 1.268 0 0 0 .557 1.269c.206.135.447.208.693.209a1.362 1.362 0 0 0 1.273-1.4Zm3.043-1.579a.183.183 0 0 1-.052.114.181.181 0 0 1-.114.051h-.458v2.547a.278.278 0 0 0 .267.267.178.178 0 0 1 .207.251.176.176 0 0 1-.126.096.185.185 0 0 1-.081-.003.594.594 0 0 1-.572-.373.587.587 0 0 1-.039-.238v-2.547h-.446c-.165 0-.165-.076-.165-.165 0-.089 0-.166.165-.166h.446v-1.273c0-.045.017-.088.048-.121a.175.175 0 0 1 .117-.057.19.19 0 0 1 .123.056.188.188 0 0 1 .056.122v1.273h.458a.183.183 0 0 1 .114.052c.03.031.049.071.052.114Zm1.094 1.579a1.699 1.699 0 0 1 1.63-1.757 1.693 1.693 0 0 1 1.757 1.629.196.196 0 0 1-.017.063.159.159 0 0 1-.097.082.157.157 0 0 1-.064.008h-2.865a1.375 1.375 0 0 0 1.362 1.337 1.274 1.274 0 0 0 1.121-.637.168.168 0 0 1 .114-.046c.043 0 .084.017.115.046a.18.18 0 0 1 0 .242 1.651 1.651 0 0 1-1.401.789 1.728 1.728 0 0 1-1.655-1.756Zm.37-.281h2.648a1.339 1.339 0 0 0-2.202-.824 1.338 1.338 0 0 0-.446.824Zm9.217-.038a1.082 1.082 0 0 0-2.165 0v1.923a.153.153 0 0 1-.089.089h-.203v-1.897a1.086 1.086 0 0 0-1.076-1.199 1.082 1.082 0 0 0-1.076 1.199v1.897a.172.172 0 0 1-.02.08.179.179 0 0 1-.056.06h-.115a.226.226 0 0 1-.092-.045.235.235 0 0 1-.061-.082v-3.196a.183.183 0 0 1 .052-.114.18.18 0 0 1 .181-.043.167.167 0 0 1 .111.157v.331a1.374 1.374 0 0 1 1.069-.496 1.423 1.423 0 0 1 1.274.738 1.468 1.468 0 0 1 1.273-.738 1.399 1.399 0 0 1 1.003.418 1.405 1.405 0 0 1 .41 1.007v1.897a.166.166 0 0 1-.049.117.166.166 0 0 1-.117.049.166.166 0 0 1-.165-.166l-.089-1.986Zm1.528.319a1.692 1.692 0 0 1 3.373-.128.146.146 0 0 1-.049.113.141.141 0 0 1-.054.032.146.146 0 0 1-.062.008h-2.865a1.377 1.377 0 0 0 1.35 1.337 1.279 1.279 0 0 0 1.133-.637.169.169 0 0 1 .115-.046c.042 0 .083.017.114.046a.175.175 0 0 1 .047.121.175.175 0 0 1-.047.121 1.665 1.665 0 0 1-1.413.79 1.719 1.719 0 0 1-1.642-1.757Zm.369-.28h2.635a1.318 1.318 0 1 0-2.635 0Zm6.709-.039a1.083 1.083 0 0 0-.309-.764 1.059 1.059 0 0 0-.761-.318 1.093 1.093 0 0 0-1.082 1.082v1.999a.178.178 0 0 1-.127.064.209.209 0 0 1-.115-.089v-3.183a.185.185 0 0 1 .001-.081.197.197 0 0 1 .037-.072.171.171 0 0 1 .122.053.158.158 0 0 1 .035.058.156.156 0 0 1 .009.067v.331a1.412 1.412 0 0 1 2.546.917v1.884a.152.152 0 0 1-.009.067.144.144 0 0 1-.035.058.156.156 0 0 1-.121.053.174.174 0 0 1-.126-.052.176.176 0 0 1-.053-.126l-.012-1.948Zm3.094-1.26a.184.184 0 0 1-.057.118.171.171 0 0 1-.122.047h-.445v2.547a.278.278 0 0 0 .254.267.183.183 0 0 1 .156.03.173.173 0 0 1 .051.063.17.17 0 0 1 0 .158.173.173 0 0 1-.125.096.19.19 0 0 1-.082-.003.608.608 0 0 1-.436-.175.606.606 0 0 1-.175-.436v-2.547h-.432c-.166 0-.166-.076-.166-.165 0-.089 0-.166.166-.166h.432v-1.273a.178.178 0 0 1 .179-.178c.047 0 .092.019.126.052a.181.181 0 0 1 .052.126v1.273h.445c.046 0 .089.017.122.048a.184.184 0 0 1 .057.118Zm1.387 2.597a.173.173 0 0 1 .055-.039.169.169 0 0 1 .187.039c.305.245.679.388 1.07.407.238.005.472-.071.662-.216a.559.559 0 0 0 .267-.42.59.59 0 0 0-.255-.433 1.65 1.65 0 0 0-.738-.255 1.848 1.848 0 0 1-.789-.267.711.711 0 0 1-.382-.624.848.848 0 0 1 .382-.687c.255-.16.552-.24.853-.229.376.02.738.148 1.044.369a.18.18 0 0 1 0 .242.169.169 0 0 1-.115.046.169.169 0 0 1-.115-.046 1.536 1.536 0 0 0-.853-.344 1.06 1.06 0 0 0-.662.191.51.51 0 0 0-.162.177.515.515 0 0 0-.067.23.41.41 0 0 0 .204.344c.216.134.46.217.713.242.3.043.59.142.853.293a.854.854 0 0 1 .394.713.855.855 0 0 1-.407.7c-.25.186-.554.285-.866.28a2.127 2.127 0 0 1-1.273-.496.18.18 0 0 1-.033-.05.152.152 0 0 1 .033-.167Zm5.895-3.743a.165.165 0 0 1 .165-.165.174.174 0 0 1 .068.008c.021.008.041.02.058.035a.166.166 0 0 1 .053.122v.166a.184.184 0 0 1 .003.081.185.185 0 0 1-.096.126.182.182 0 0 1-.158 0 .187.187 0 0 1-.063-.052.17.17 0 0 1-.033-.074.184.184 0 0 1 .003-.081v-.166Zm0 1.146a.165.165 0 0 1 .165-.166.196.196 0 0 1 .068.009c.021.008.041.02.058.035.016.016.03.035.039.056.009.02.014.043.014.066v3.144a.175.175 0 0 1-.053.126.175.175 0 0 1-.192.039.153.153 0 0 1-.055-.039.158.158 0 0 1-.035-.058.158.158 0 0 1-.009-.068v-3.144Zm4.481 1.26a1.064 1.064 0 0 0-.309-.764 1.055 1.055 0 0 0-.761-.318 1.095 1.095 0 0 0-1.082 1.082v1.999a.187.187 0 0 1-.127.064.203.203 0 0 1-.114-.089v-3.183c0-.047.018-.093.052-.126a.174.174 0 0 1 .192-.039c.021.009.04.023.055.04a.144.144 0 0 1 .035.058.152.152 0 0 1 .009.067v.331a1.399 1.399 0 0 1 2.082-.087c.265.267.413.628.413 1.004v1.884a.171.171 0 0 1-.008.067.167.167 0 0 1-.157.111.18.18 0 0 1-.126-.052.181.181 0 0 1-.052-.126l-.102-1.923Zm5.233-1.26a.184.184 0 0 1-.057.118.173.173 0 0 1-.122.047h-.445v2.547a.278.278 0 0 0 .254.267.185.185 0 0 1 .156.03.184.184 0 0 1 .07.142.184.184 0 0 1-.07.142.185.185 0 0 1-.156.03.606.606 0 0 1-.568-.375.598.598 0 0 1-.043-.236v-2.547h-.433c-.178 0-.178-.076-.178-.165 0-.089 0-.166.178-.166h.433v-1.273a.192.192 0 0 1 .166-.178c.048 0 .095.018.13.052a.191.191 0 0 1 .061.126v1.273h.445a.179.179 0 0 1 .179.166Zm1.094 1.579a1.698 1.698 0 0 1 1.628-1.624 1.694 1.694 0 0 1 1.746 1.496.153.153 0 0 1-.165.153h-2.865a1.35 1.35 0 0 0 1.996 1.171c.197-.112.361-.274.474-.471a.169.169 0 0 1 .115-.046c.042 0 .083.017.114.046a.164.164 0 0 1 .09.177.168.168 0 0 1-.026.065c-.151.239-.36.437-.606.575a1.705 1.705 0 0 1-.807.215 1.736 1.736 0 0 1-1.213-.526 1.718 1.718 0 0 1-.481-1.231Zm.357-.28h2.648a1.342 1.342 0 0 0-.446-.825 1.342 1.342 0 0 0-1.756 0 1.337 1.337 0 0 0-.446.825Zm4.112-1.286a.178.178 0 0 1 .244-.165c.021.009.04.023.056.039a.191.191 0 0 1 .035.058c.007.022.01.045.009.068v.764-.09a1.704 1.704 0 0 1 1.4-.853.166.166 0 0 1 .122.053.191.191 0 0 1 .035.058c.007.022.01.045.008.068a.165.165 0 0 1-.165.165 1.267 1.267 0 0 0-1.019.573 3.118 3.118 0 0 0-.42.815v1.528a.171.171 0 0 1-.008.067.167.167 0 0 1-.157.111.177.177 0 0 1-.178-.178l.038-3.081Zm8.084 1.247a1.078 1.078 0 0 0-.27-.839 1.077 1.077 0 0 0-1.247-.266 1.078 1.078 0 0 0-.634 1.105v1.923a.173.173 0 0 1-.035.054.167.167 0 0 1-.055.035h-.191v-1.897a1.084 1.084 0 0 0-.27-.84 1.082 1.082 0 0 0-1.881.84v1.897a.172.172 0 0 1-.02.08.179.179 0 0 1-.056.06h-.115a.206.206 0 0 1-.14-.127v-3.196a.165.165 0 0 1 .282-.117.166.166 0 0 1 .049.117v.331a1.418 1.418 0 0 1 1.082-.496 1.425 1.425 0 0 0 2.546 0 1.426 1.426 0 0 1 1.426 1.425v1.897a.171.171 0 0 1-.053.122.15.15 0 0 1-.058.035.154.154 0 0 1-.067.009.166.166 0 0 1-.117-.049.166.166 0 0 1-.049-.117l-.127-1.986Zm1.54 1.337a.163.163 0 0 1 .121-.052.165.165 0 0 1 .121.052c.305.245.679.388 1.069.407.239.005.473-.071.662-.216a.553.553 0 0 0 .268-.42.59.59 0 0 0-.255-.433 1.65 1.65 0 0 0-.738-.255 1.856 1.856 0 0 1-.79-.267.712.712 0 0 1-.381-.624.836.836 0 0 1 .107-.39.84.84 0 0 1 .274-.297c.255-.16.553-.24.853-.229a1.88 1.88 0 0 1 1.032.369.166.166 0 1 1-.23.242 1.536 1.536 0 0 0-.853-.344 1.06 1.06 0 0 0-.662.191.52.52 0 0 0-.229.407.41.41 0 0 0 .204.344c.216.134.46.217.713.242.3.043.59.142.853.293a.84.84 0 0 1 .382.713.848.848 0 0 1-.395.7c-.25.186-.554.285-.866.28a2.13 2.13 0 0 1-1.273-.496.18.18 0 0 1-.03-.052.148.148 0 0 1-.008-.059.155.155 0 0 1 .051-.106Zm7.372-2.699a1.739 1.739 0 0 1 1.673 1.013 1.741 1.741 0 0 1-2.229 2.349 1.747 1.747 0 0 1-1.099-1.618 1.704 1.704 0 0 1 1.655-1.744Zm0 3.145a1.414 1.414 0 1 0-.372-2.724 1.416 1.416 0 0 0-.901 1.323 1.359 1.359 0 0 0 1.273 1.337v.064Zm4.252-4.52a.171.171 0 0 1-.053.122.164.164 0 0 1-.125.044c-.242 0-.369 0-.433.14a.841.841 0 0 0-.14.573v.369h.484c.047 0 .092.019.126.052a.18.18 0 0 1 .052.126.166.166 0 0 1-.053.122.191.191 0 0 1-.058.035.194.194 0 0 1-.067.009h-.484v3.042a.19.19 0 0 1-.178.178.174.174 0 0 1-.126-.052.175.175 0 0 1-.053-.126v-3.042h-.458a.17.17 0 0 1-.125-.044.167.167 0 0 1-.053-.122.18.18 0 0 1 .052-.126.18.18 0 0 1 .126-.052h.458v-.369c-.01-.277.071-.55.23-.777a.941.941 0 0 1 .7-.242.18.18 0 0 1 .178.14Zm2.941 4.074a.165.165 0 0 1 .121-.052.165.165 0 0 1 .121.052c.306.243.679.385 1.069.407.239.007.473-.069.662-.216a.485.485 0 0 0 0-.853 1.6 1.6 0 0 0-.738-.255 1.908 1.908 0 0 1-.789-.267.738.738 0 0 1-.382-.624.892.892 0 0 1 .382-.687c.25-.147.537-.217.827-.204.377.018.74.147 1.044.369a.18.18 0 0 1 0 .242.175.175 0 0 1-.121.047.175.175 0 0 1-.121-.047 1.539 1.539 0 0 0-.853-.344 1.114 1.114 0 0 0-.662.191.553.553 0 0 0-.216.408.418.418 0 0 0 .191.344c.217.132.46.214.713.241.3.042.59.141.853.293a.856.856 0 0 1 .394.713.877.877 0 0 1-.114.397.875.875 0 0 1-.28.303 1.446 1.446 0 0 1-.879.28 2.12 2.12 0 0 1-1.273-.496.165.165 0 0 1 .051-.242Zm3.488-1.018a1.692 1.692 0 0 1 2.794-1.218c.323.278.53.667.58 1.09a.155.155 0 0 1-.166.153h-2.877a1.373 1.373 0 0 0 1.349 1.337 1.276 1.276 0 0 0 1.134-.637.165.165 0 0 1 .229 0 .18.18 0 0 1 0 .242 1.668 1.668 0 0 1-1.413.79 1.718 1.718 0 0 1-1.63-1.757Zm.356-.28h2.648a1.344 1.344 0 0 0-2.182-.825c-.256.208-.431.5-.491.825h.025Zm4.074-1.286a.192.192 0 0 1 .061-.127.19.19 0 0 1 .13-.052.175.175 0 0 1 .114.058.174.174 0 0 1 .032.056.178.178 0 0 1 .007.065v.764a.451.451 0 0 0 0-.09 1.704 1.704 0 0 1 1.401-.853.17.17 0 0 1 .121.053.158.158 0 0 1 .035.058.158.158 0 0 1 .009.068.165.165 0 0 1-.165.165 1.28 1.28 0 0 0-1.019.573c-.18.249-.321.524-.42.815v1.528a.157.157 0 0 1-.008.064.161.161 0 0 1-.082.096.175.175 0 0 1-.063.018.186.186 0 0 1-.13-.052.191.191 0 0 1-.061-.126l.038-3.081Zm4.252 3.284v-.076l-1.273-3.132a.16.16 0 0 1-.005-.123.162.162 0 0 1 .081-.093.18.18 0 0 1 .133-.002.18.18 0 0 1 .097.091l1.158 2.75 1.159-2.75a.142.142 0 0 1 .033-.057.136.136 0 0 1 .054-.038.147.147 0 0 1 .129.006.16.16 0 0 1 .089.089.16.16 0 0 1 0 .127l-1.273 3.094a.191.191 0 0 1 0 .089.139.139 0 0 1-.114 0h-.102l-.166.025Zm3.03-4.443a.166.166 0 0 1 .053-.122.191.191 0 0 1 .058-.035.174.174 0 0 1 .068-.008.18.18 0 0 1 .178.165v.166a.186.186 0 0 1-.052.13.191.191 0 0 1-.126.061.192.192 0 0 1-.127-.061.19.19 0 0 1-.052-.13v-.166Zm0 1.146a.167.167 0 0 1 .111-.157.196.196 0 0 1 .068-.009.194.194 0 0 1 .067.009.167.167 0 0 1 .111.157v3.144a.178.178 0 0 1-.178.179.175.175 0 0 1-.126-.053.175.175 0 0 1-.053-.126v-3.144Zm1.744 1.566a1.762 1.762 0 0 1 1.796-1.732c.405-.002.8.133 1.12.382a.165.165 0 0 1 0 .229.179.179 0 0 1-.229 0 1.436 1.436 0 0 0-1.278-.249 1.43 1.43 0 0 0-.948.893 1.422 1.422 0 0 0 .173 1.29 1.425 1.425 0 0 0 1.149.613c.326 0 .644-.108.904-.306a.168.168 0 0 1 .114-.046c.043 0 .084.017.115.046.017.017.03.036.039.058.01.022.014.046.014.069a.16.16 0 0 1-.014.069.179.179 0 0 1-.039.059 1.808 1.808 0 0 1-1.108.369 1.775 1.775 0 0 1-1.267-.496 1.774 1.774 0 0 1-.541-1.248Zm3.96.013a1.69 1.69 0 0 1 2.845-1.306c.33.305.524.729.541 1.178a.156.156 0 0 1-.017.063.163.163 0 0 1-.096.082.16.16 0 0 1-.065.008h-2.864a1.372 1.372 0 0 0 1.349 1.337 1.276 1.276 0 0 0 1.133-.637.166.166 0 0 1 .229 0 .176.176 0 0 1 0 .242 1.665 1.665 0 0 1-1.413.789 1.735 1.735 0 0 1-1.176-.546 1.735 1.735 0 0 1-.466-1.21Zm.369-.281h2.648a1.338 1.338 0 0 0-2.648 0Z" fill="#263238"/><path d="M191.753 355.308h-10.07v-10.083h10.083l-.013 10.083Zm-8.81-1.274h7.537v-7.536h-7.524l-.013 7.536Z" fill="#EBEBEB"/><path d="M335.727 229.093a1.861 1.861 0 0 1-1.147 1.717 1.854 1.854 0 0 1-2.026-.403 1.861 1.861 0 0 1 .282-2.859 1.874 1.874 0 0 1 1.746-.176 1.854 1.854 0 0 1 1.007 1.008c.093.226.14.469.138.713Z" fill="#A6A6A6"/><path d="M337.077 234.186h-6.442a3.218 3.218 0 0 1 5.419-2.146 3.225 3.225 0 0 1 1.01 2.146h.013Zm-6.442 38.587-1.095-.879h8.593l-1.094.879c-.37.293-.739.586-1.095.891l-1.21 1.019-.904.763-.904-.763-1.209-1.019-1.082-.891Z" fill="#A6A6A6"/><path d="M338.159 271.945v5.449h-8.594v-5.449l1.044.981 1.07.955 1.107.98h-.063a7.768 7.768 0 0 0-.701.433 16.99 16.99 0 0 0-.865.573l-.828.598c-.28.216-.547.42-.815.649.306-.165.599-.344.892-.534.292-.191.572-.37.853-.573.28-.204.572-.395.84-.599.267-.203.445-.344.662-.534l.942.814.942-.814c.216.19.433.356.649.534l.841.599c.28.203.572.394.852.573.281.178.586.369.892.534-.255-.229-.535-.433-.802-.649l-.841-.598c-.28-.204-.56-.395-.853-.573a7.961 7.961 0 0 0-.713-.433h-.063l1.12-.98 1.057-.955 1.375-.981Zm-4.303 44.47a6.273 6.273 0 0 0-4.291 2.126 5.43 5.43 0 0 0 6.691 1.557 5.442 5.442 0 0 0 1.903-1.557 6.284 6.284 0 0 0-4.303-2.126Zm0 3.628a1.518 1.518 0 0 1-1.4-.935 1.51 1.51 0 0 1 .328-1.651 1.512 1.512 0 0 1 2.331.229 1.53 1.53 0 0 1 .144 1.424 1.514 1.514 0 0 1-.821.821 1.493 1.493 0 0 1-.582.112Z" fill="#A6A6A6"/><path d="M334.823 318.528a.965.965 0 0 1-1.683.754.952.952 0 0 1-.2-.351.968.968 0 1 1 1.883-.403Z" fill="#A6A6A6"/><path d="M303.837 376.963h-73.7v22.228h73.7v-22.228Z" fill="#6D55F1"/><path d="M243.683 389.859a.582.582 0 0 1 .827-.076 3.727 3.727 0 0 0 2.177.878 2.422 2.422 0 0 0 1.426-.42 1.037 1.037 0 0 0 .497-.827.694.694 0 0 0-.102-.357 1.276 1.276 0 0 0-.344-.343 4.612 4.612 0 0 0-1.566-.535 6.148 6.148 0 0 1-1.464-.446 2.54 2.54 0 0 1-1.069-.891 1.826 1.826 0 0 1-.255-.942 2.083 2.083 0 0 1 .904-1.655 3.337 3.337 0 0 1 1.973-.611 4.462 4.462 0 0 1 2.546.917.586.586 0 0 1 .153.802.58.58 0 0 1-.802.178 3.283 3.283 0 0 0-1.846-.726 2.165 2.165 0 0 0-1.273.382.924.924 0 0 0-.433.713.58.58 0 0 0 .077.318c.081.12.185.224.305.306.44.252.924.421 1.426.496a6.82 6.82 0 0 1 1.579.484c.462.196.856.523 1.133.942.182.29.279.625.28.968a2.19 2.19 0 0 1-.981 1.769 3.586 3.586 0 0 1-2.113.65 4.928 4.928 0 0 1-2.915-1.133.6.6 0 0 1-.14-.841Zm7.931-5.372a.603.603 0 0 1 .179-.445.62.62 0 0 1 .445-.179.635.635 0 0 1 .637.624v6.734a.627.627 0 0 1-.637.624.606.606 0 0 1-.58-.383.6.6 0 0 1-.044-.241v-6.734Zm3.043 3.31a4.219 4.219 0 0 1 2.408-3.702 4.212 4.212 0 0 1 4.39.481.65.65 0 0 1 .233.683.651.651 0 0 1-1.022.348 2.955 2.955 0 0 0-1.808-.624 2.807 2.807 0 0 0-1.112.208c-.352.145-.671.36-.938.633a2.712 2.712 0 0 0 0 3.946c.269.269.589.48.941.623.352.142.729.211 1.109.205a3.115 3.115 0 0 0 1.566-.433v-1.566h-1.629a.653.653 0 0 1-.6-.896.644.644 0 0 1 .352-.345.638.638 0 0 1 .248-.045h2.266a.652.652 0 0 1 .466.177.648.648 0 0 1 .196.46v2.546a.871.871 0 0 1 0 .191.112.112 0 0 0 0 .063.557.557 0 0 1-.23.268 4.176 4.176 0 0 1-2.546.891 4.147 4.147 0 0 1-3.016-1.148 4.128 4.128 0 0 1-1.274-2.964Zm10.885 3.425a.64.64 0 0 1-.624.623.6.6 0 0 1-.445-.179.596.596 0 0 1-.179-.444v-6.633a.618.618 0 0 1 .254-.535.638.638 0 0 1 .866.14l3.679 5.092v-4.697a.621.621 0 0 1 .612-.611.633.633 0 0 1 .636.611v6.633a.633.633 0 0 1-.636.623.593.593 0 0 1-.459-.229l-.063-.063-3.641-5.093v4.762Zm14.246.623a3.279 3.279 0 0 1-3.038-2.036 3.287 3.287 0 0 1-.247-1.261v-4.061a.62.62 0 0 1 .383-.58.606.606 0 0 1 .241-.044.635.635 0 0 1 .637.624v4.061a2.02 2.02 0 0 0 .534 1.543 2.033 2.033 0 0 0 2.313.484 2.03 2.03 0 0 0 1.108-1.2c.092-.265.128-.547.106-.827v-4.061a.63.63 0 0 1 .394-.58.608.608 0 0 1 .242-.044.6.6 0 0 1 .445.179.603.603 0 0 1 .179.445v4.061a3.284 3.284 0 0 1-3.297 3.297Zm8.644-3.106h-1.401v2.482a.636.636 0 1 1-1.273 0v-6.734a.639.639 0 0 1 .624-.624h2.05c.335-.024.671.021.988.132a2.444 2.444 0 0 1-.988 4.744Zm-1.401-1.273h1.401a1.166 1.166 0 0 0 1.082-.723 1.17 1.17 0 0 0-1.082-1.62h-1.401v2.343Z" fill="#fff"/><path d="M299.801 141.861c8.099 0 14.666-6.566 14.666-14.666 0-8.1-6.567-14.666-14.666-14.666-8.1 0-14.666 6.566-14.666 14.666 0 8.1 6.566 14.666 14.666 14.666Z" fill="#455A64"/><path d="M231.97 191.817c5.682 0 10.287-4.605 10.287-10.287 0-5.681-4.605-10.286-10.287-10.286-5.681 0-10.286 4.605-10.286 10.286 0 5.682 4.605 10.287 10.286 10.287Z" fill="#EBEBEB"/><path d="M287.884 187.387a39.1 39.1 0 0 1-11.457 4.786 39.682 39.682 0 1 1 11.457-4.786Z" fill="#6D55F1"/><path d="M279.087 149.079a12.084 12.084 0 0 1-7.452 11.16 12.084 12.084 0 0 1-16.476-8.787 12.088 12.088 0 0 1 .677-6.979 12.077 12.077 0 0 1 11.144-7.475 12.058 12.058 0 0 1 8.563 3.525 12.077 12.077 0 0 1 3.544 8.556Z" fill="#fff"/><path d="M287.884 182.409v4.978a39.117 39.117 0 0 1-11.458 4.786 39.47 39.47 0 0 1-30.299-4.799v-4.965a20.872 20.872 0 0 1 12.763-19.755 20.877 20.877 0 0 1 28.981 19.755h.013Z" fill="#fff"/><path d="M314.263 220.792a27.477 27.477 0 0 1-.472-5.385 26.58 26.58 0 0 1 .472-5.385c.343 1.774.506 3.578.483 5.385a27.55 27.55 0 0 1-.483 5.385Zm-7.652 3.4a27.956 27.956 0 0 1-4.137-3.463 27.315 27.315 0 0 1-3.476-4.15 30.532 30.532 0 0 1 7.639 7.638l-.026-.025Zm-3.004 7.816c-1.771.334-3.57.492-5.372.471a26.502 26.502 0 0 1-5.385-.471 30.945 30.945 0 0 1 10.757 0Zm3.412 7.652a31.192 31.192 0 0 1-7.639 7.638 26.552 26.552 0 0 1 3.463-4.15 28.032 28.032 0 0 1 4.176-3.488Zm7.804 3.004a30.147 30.147 0 0 1 0 10.758 30.95 30.95 0 0 1 0-10.758Zm7.651-3.399a30.274 30.274 0 0 1 7.639 7.639 26.461 26.461 0 0 1-4.138-3.463 27.906 27.906 0 0 1-3.501-4.176Zm3.068-7.817a30.22 30.22 0 0 1 10.771 0 31.025 31.025 0 0 1-10.771 0Zm-3.462-7.651a27.94 27.94 0 0 1 3.462-4.15 27.287 27.287 0 0 1 4.151-3.463 31.192 31.192 0 0 1-7.639 7.638l.026-.025Z" fill="#263238"/><path d="M379.496 110.835s8.912 61.987 8.313 67.882c-.598 5.894-7.867 63.031-7.867 63.031s-16.321-3.514-21.032-6.366c-3.386-2.024-15.379-12.362-15.379-12.362s20.37-39.847 22.05-47.932c1.681-8.084 2.788-47.282 4.736-55.175a16.046 16.046 0 0 1 9.37-10.593" fill="#6D55F1"/><path d="M360.323 196.833a13.46 13.46 0 0 0 5.016 5.461c1.108.751 3.247 2.356 3.921.28a3.727 3.727 0 0 0-.28-2.406 13.338 13.338 0 0 0-2.317-3.934c-1.197-1.464-3.183-3.386-5.27-3.03-2.088.357-1.694 2.177-1.07 3.629Zm13.05 9.955a12.738 12.738 0 0 0 3.004 7.372c.879.916 1.897 1.209 2.687.572.789-.636 1.209-2.011 1.273-3.106a13.72 13.72 0 0 0-1.401-7.638c-.751-1.465-2.075-3.501-4.023-3.056-2.444.637-1.782 4.061-1.54 5.856Zm-9.956-1.044c-1.107.866 0 4.202 1.031 5.78 1.274 2.012 3.476 4.303 5.297 3.438.916-.446 1.043-2.928-.968-6.048-1.884-2.864-4.443-3.857-5.36-3.17Zm-5.576 18.384c.433.853 1.375 2.355 2.482 2.406 1.108.051 1.273-1.069 1.273-1.884a12.362 12.362 0 0 0-.7-3.73c-.522-1.63-1.489-3.043-3.055-3.132-3.094-.166-.56 5.245 0 6.34Z" fill="#263238"/><path d="M455.78 399.764s27.753 49.141 27.766 49.141c4.456 9.892 8.186 18.651 9.701 23.361a.2.2 0 0 1 0 .077 7.64 7.64 0 0 1 .649 3.386v.089c-2.05 3.323-80.103 41.261-83.273 41.669-3.17.407-4.57-8.594-2.712-12.489 1.859-3.896 25.259-31.828 25.259-31.828l-27.257-49.268 49.867-24.138Z" fill="#EB9481"/><path d="M411.871 517.168c3.157-.407 79.976-38.052 82.013-41.375v-.089a7.645 7.645 0 0 0-.65-3.387.067.067 0 0 0 .007-.031.071.071 0 0 0-.007-.032c-1.514-4.711-5.245-13.482-9.688-23.374 0 0-4.685-8.581-6.543-11.56l-49.651 25.666 5.78 10.184s-22.139 27.601-23.998 31.497c-1.859 3.895-.446 12.985 2.737 12.501Z" fill="#EBEBEB"/><path d="M410.432 516.112c3.196-.484 80.969-40.548 82.955-43.96.777-1.273-4.405-12.947-11.063-26.875 0-.14-.14-.293-.216-.433l-50.453 25.284.458.84s-22.915 28.657-24.711 32.629c-1.795 3.972-.152 13.011 3.03 12.515Z" fill="#6D55F1"/><path d="M409.77 512.649c12.935-7.078 65.819-34.374 79.148-40.408.102 0 .14 0 0 .076-12.73 7.295-65.768 34.183-79.084 40.536-.267.14-.344-.064-.064-.204Z" fill="#fff"/><path d="M427.975 473.298c4.66-3.616 11.382-6.086 17.213-4.431.229.064.127.382-.064.408a81.705 81.705 0 0 0-16.792 4.659.37.37 0 0 1-.357-.636Zm-2.571 4.163c4.659-3.629 11.381-6.086 17.212-4.431.229.064.14.382 0 .408a82.12 82.12 0 0 0-16.792 4.659.378.378 0 0 1-.528-.108.382.382 0 0 1-.056-.287.376.376 0 0 1 .164-.241Zm-2.572 4.163c4.672-3.629 11.382-6.086 17.225-4.431.217 0 .127.382-.064.408a82.102 82.102 0 0 0-16.804 4.659.37.37 0 0 1-.357-.636Z" fill="#263238"/><path d="M473.756 460.172c4.189-5.729 13.087.764 8.912 6.506-4.176 5.741-13.1-.777-8.912-6.506Z" fill="#fff"/><path opacity=".1" d="m428.663 475.271-5.589 34.921a138.061 138.061 0 0 1-12.654 5.92c-3.183.496-4.813-8.555-3.043-12.515 1.388-3.004 14.921-20.178 21.286-28.326Z" fill="#000"/><path d="M407.81 513.935c-1.108 1.273 1.604 5.78 2.801 5.627 1.196-.153 85.793-44.202 87.066-45.259 1.274-1.056-1.909-5.97-3.73-5.372-1.82.598-86.137 45.004-86.137 45.004Z" fill="#263238"/><path d="m477.13 432.737-55.94 29.867s-70.606-100.575-72.006-127.055c-1.961-36.512 29.217-152.427 29.217-152.427l49.727-.331s-20.217 119.199-18.562 139.531c.853 10.643 67.564 110.415 67.564 110.415Z" fill="#37474F"/><path d="M416.314 451.044c2.877-2.075 29.396-17.441 49.587-27.257.127 0 .216.127.102.204-6.124 4.048-45.704 25.729-49.536 27.269-.128.051-.28-.127-.153-.216Zm-13.66-154.184c2.304-17.442 4.85-34.87 7.753-52.197 2.902-17.327 5.971-34.857 9.624-52.197.442-2.113.896-4.235 1.363-6.365a.256.256 0 0 1 .11-.165.255.255 0 0 1 .195-.039.26.26 0 0 1 .204.305c-3.056 17.162-6.213 34.31-9.026 51.51-2.814 17.199-5.449 34.373-7.817 51.713-.586 4.277-1.146 8.555-1.706 12.833-.685 4.41-1.11 8.856-1.273 13.316-.081 4.26.64 8.496 2.126 12.489a72.27 72.27 0 0 0 5.729 11.229c9.001 15.213 49.281 81.72 50.325 83.655.076.127-.102.254-.178.127-9.676-14.997-39.67-62.916-48.785-78.384-4.125-6.977-8.835-14.004-10.185-22.177-1.375-8.416.42-17.264 1.541-25.653Z" fill="#263238"/><path d="m416.976 432.737.56 56.767c-.292 10.847-.751 20.37-1.451 25.258a.167.167 0 0 1 0 .077 7.567 7.567 0 0 1-.891 3.335h-.064c-3.284 2.101-90.071 2.228-93.101 1.273-3.03-.955-.382-9.726 2.992-12.412 3.373-2.687 36.576-17.607 36.576-17.607v-56.691h55.379Z" fill="#EB9481"/><path d="m417.422 477.855.114 11.649c-.292 10.847-.751 20.37-1.451 25.258a.167.167 0 0 1 0 .077 14.014 14.014 0 0 1-.891 3.335h-.064c-3.284 2.101-90.071 2.228-93.101 1.273-3.03-.954-.382-9.726 2.992-12.412 3.373-2.687 36.576-17.607 36.576-17.607v-11.827l55.825.254Z" fill="#EBEBEB"/><path d="M321.978 519.345c3.068.968 90.542-.56 93.827-2.737 1.273-.815 1.782-13.571 1.973-29.001v-.509l-56.449.356v.968s-33.215 15.557-36.588 18.333c-3.374 2.775-5.844 11.623-2.763 12.59Z" fill="#6D55F1"/><path d="M322.907 515.933c14.73-.623 74.234-1.744 88.849-1.273.128 0 .128.09 0 .102-14.589.93-74.094 1.566-88.849 1.375-.318.038-.318-.191 0-.204Z" fill="#fff"/><path d="M356.631 488.702c5.78-1.197 12.897-.42 17.404 3.628.178.166 0 .408-.242.344a82.314 82.314 0 0 0-17.123-3.246.374.374 0 0 1-.225-.115.371.371 0 0 1 .186-.611Zm-4.137 2.597c5.78-1.196 12.896-.42 17.39 3.629.179.165 0 .407-.229.343a82.425 82.425 0 0 0-17.135-3.246.374.374 0 0 1-.222-.119.373.373 0 0 1-.016-.472.369.369 0 0 1 .212-.135Zm-4.15 2.597c5.78-1.184 12.896-.42 17.403 3.629.178.165 0 .407-.242.356a81.513 81.513 0 0 0-17.123-3.259.372.372 0 0 1-.322-.347.367.367 0 0 1 .284-.379Zm-27.767 22.33c-1.553.637-1.12 5.882 0 6.289 1.12.408 96.501-1.693 98.117-2.087 1.617-.395.917-6.2-.967-6.468-1.884-.267-97.15 2.266-97.15 2.266Z" fill="#263238"/><path d="M403.507 497.168c6.289-3.272 11.394 6.48 5.092 9.777-6.302 3.298-11.394-6.48-5.092-9.777Z" fill="#fff"/><path d="M379.012 183.007c.331 1.031 18.193 49.994 19.886 50.784 1.897.878-39.466 70.389-41.936 102.675-1.566 20.662 1.515 137.494 1.515 137.494h60.498s-2.916-105.081-4.291-138.386c-.534-12.909 41.541-77.187 42.012-117.226.166-12.616-8.911-35.647-8.911-35.647l-68.773.306Z" fill="#37474F"/><path d="M414.379 334.785c0-.535.42-.713.458-.165 1.363 18.027 1.681 35.939 2.547 53.992.865 18.052.369 22.342 1.171 40.331.458 10.185 0 20.37.255 30.554a.131.131 0 0 1-.047.064.133.133 0 0 1-.074.024.134.134 0 0 1-.075-.024.124.124 0 0 1-.046-.064c-1.885-17.899-4.176-114.514-4.189-124.712Zm-57.378 2.444c.099-4.447.524-8.88 1.273-13.265a66.369 66.369 0 0 1 3.743-12.451c3.335-8.428 7.294-16.652 11.075-24.889 3.782-8.237 7.728-16.665 11.764-24.914a3076.96 3076.96 0 0 1 6.836-13.89c2.33-4.672 4.838-9.268 7.27-13.889.089-.178.382 0 .292.14-3.882 8.326-7.702 16.677-11.585 25.003-3.883 8.326-7.638 16.691-11.458 25.042-3.819 8.352-7.498 16.448-11.037 24.762a82.172 82.172 0 0 0-4.316 12.234 71.763 71.763 0 0 0-1.859 13.215c-.585 10.325-.865 20.7-1.884 31 0 .127-.229.114-.229 0-.306-9.358-.166-18.766.115-28.098Zm5.894 124.878c3.514-.458 30.325-1.388 52.744-.433.03 0 .06.012.081.034a.114.114 0 0 1-.081.195c-7.307.65-48.607.93-52.719.459-.14-.013-.191-.242-.025-.255Z" fill="#263238"/><path d="M390.572 231.117a115.822 115.822 0 0 1 18.918 6.557.211.211 0 0 1 .128.267.21.21 0 0 1-.268.127c-6.365-1.986-12.807-3.819-19.032-6.187a.406.406 0 0 1-.2-.491.41.41 0 0 1 .176-.221.41.41 0 0 1 .278-.052Zm-6.111-41.477c0-.204.37-.293.382 0 .701 7.231 1.808 13.533 3.107 20.217.611 3.106 4.901 20.165 10.184 18.345.892-.306 1.274-1.273 1.274-2.636a21.626 21.626 0 0 0-1.274-5.232c-.967-3.565-1.833-7.155-2.546-10.783a100.835 100.835 0 0 1-1.871-20.51c0-.047.019-.092.052-.126a.18.18 0 0 1 .252 0 .177.177 0 0 1 .052.126 189.083 189.083 0 0 0 4.545 28.11c1.146 4.431 4.112 10.974-.534 12.158-4.647 1.184-8.989-9.841-9.892-12.896a104.38 104.38 0 0 1-3.731-26.773Z" fill="#263238"/><path d="M398.109 228.66a28.359 28.359 0 0 1 1.591 3.463c.446.904.718 1.885.802 2.89 0 .191-.242.242-.369.127a10.772 10.772 0 0 1-1.553-2.75c-.522-1.069-1.07-2.126-1.566-3.208a.613.613 0 0 1 .748-.781.614.614 0 0 1 .347.259Zm10.07 123.898c-.305-8.594-1.273-17.62 1.553-25.921a86.244 86.244 0 0 1 5.526-11.776 747.289 747.289 0 0 0 6.174-12.196c8.084-16.321 15.697-32.909 22.496-49.816 3.284-8.135 6.212-16.487 7.384-25.22a77.535 77.535 0 0 0-1.694-27.448 150.644 150.644 0 0 0-1.667-6.684c0-.152.203-.254.254-.089a90.473 90.473 0 0 1 4.723 26.251 74.412 74.412 0 0 1-4.557 25.08c-2.903 8.454-6.531 16.652-10.109 24.838a899.36 899.36 0 0 1-11.458 25.08c-3.959 8.25-8.186 16.36-12.361 24.507a44.795 44.795 0 0 0-4.647 12.362 64.146 64.146 0 0 0-.497 13.533c.713 19.033 2.356 82.356 2.547 101.338 0 2.406.063 4.813.089 7.231 0 .204-.319.242-.331 0-1.197-18.918-2.737-82.101-3.425-101.07Z" fill="#263238"/><path d="M421.75 195.331c0-.128.216-.102.229 0 .713 5.245 1.12 10.668 3.654 15.417 2.317 4.366 6.365 7.18 10.77 9.141a81.867 81.867 0 0 0 7.855 2.902c.191 0 .153.357-.064.306-5.003-1.031-10.083-2.203-14.437-5.016-4.659-3.005-7.053-7.817-7.816-13.202a45.29 45.29 0 0 1-.191-9.548Z" fill="#263238"/><path d="M450.942 186.839c-.114.242-79.695 21.923-80.587 21.35-.089 0-3.373-1.833-4.086-7.983-.204-1.693 2.062-8.911 2.126-14.347.178-18.855-.56-53.865 4.57-72.668 1.375-5.093 12.26-10.847 18.231-7.168 26.9 16.538 59.899 80.498 59.746 80.816Z" fill="#EBEBEB"/><path d="M387.198 104.546s2.954 40.141 4.023 44.8c.739 3.26 9.752 36.029 14.386 59.709 1.986 10.184 1.057 26.111 1.057 26.111s27.715-9.001 36.207-14.781c4.914-3.348 15.875-17.823 15.875-17.823s-17.543-38.919-27.537-53.534c-9.993-14.615-28.988-39.911-37.887-43.603-4.01-1.681-6.124-.879-6.124-.879Z" fill="#6D55F1"/><path d="M436.811 172.097a4.442 4.442 0 0 0-2.368 3.513 13.99 13.99 0 0 0-.598 6.302c.165 1.146.674 2.839 2.164 2.546 1.489-.292 2.317-2.839 2.712-4.137.394-1.299 1.565-9.701-1.91-8.224Zm-11.802 9.751c-1.629 1.35-1.451 4.125-1.107 5.971a13.049 13.049 0 0 0 1.477 4.316 3.805 3.805 0 0 0 1.655 1.782c2.024.828 2.177-1.833 2.329-3.17a13.437 13.437 0 0 0-.904-7.358c-.662-1.388-1.947-2.788-3.45-1.541Zm5.717-15.506c-1.274-.153-1.948.802-2.305 2.063a11.61 11.61 0 0 0-.496 4.532c.102.929.305 2.546 1.336 2.928 1.032.382 1.859-.675 2.228-1.502.662-1.515 1.986-7.664-.763-8.021Zm-19.301 64.864c-.98 1.999-2.979.344-4.583-1.604 0-2.304.064-5.092 0-8.097l.433.357a14.174 14.174 0 0 1 3.679 5.092 4.477 4.477 0 0 1 .471 4.252Zm9.154-.891-2.915 1.057a12.618 12.618 0 0 1-3.705-5.36c-.255-.866-.369-2.228.7-2.546 1.07-.318 2.241.713 2.928 1.337a11.606 11.606 0 0 1 2.546 3.755c.301.536.455 1.142.446 1.757Zm-7.499-68.747c1.21-.064 2.343 1.655 2.878 2.546a12.455 12.455 0 0 1 1.578 4.838c.128.98.484 3.055-.433 3.819-1.107.904-2.177-.127-2.966-1.54a11.202 11.202 0 0 1-2.355-7.066c.013-.891.115-2.52 1.298-2.597Zm9.065 35.647c-1.604 1.184-.917 3.513-.293 5.028a13.777 13.777 0 0 0 4.876 5.997c.904.611 2.266 1.349 3.234.993.967-.357 1.426-1.146 1.273-2.419a12.735 12.735 0 0 0-3.679-7.053c-1.172-1.299-3.336-4.036-5.411-2.495v-.051Zm10.083.433c1.069 3.577 3.042 5.092 3.972 4.672 1.833-.828 1.515-3.959.827-6.264-.534-1.808-2.355-4.812-3.743-4.532-1.133.28-2.075 2.877-1.056 6.174v-.05Zm-36.818-62.382a13.03 13.03 0 0 1-2.101 4.048 9.707 9.707 0 0 1-2.979 2.865 396.371 396.371 0 0 1-.662-7.104 21.086 21.086 0 0 1 1.986-1.706c1.07-.827 3.107-2.546 3.909-.509a3.822 3.822 0 0 1-.153 2.457v-.051Zm5.945-1.197c1.961.344 3.17-1.757 3.82-3.259a13.639 13.639 0 0 0 .967-7.638c-.178-1.07-.586-2.547-1.502-3.03-.917-.484-1.821-.229-2.648.725a12.793 12.793 0 0 0-2.546 7.537c-.153 1.821-.637 5.283 1.909 5.716v-.051Zm-6.645-7.638c-1.706 2.992-4.214 4.125-5.169 3.463a1.016 1.016 0 0 1-.369-.51c0-.496-.089-1.005-.14-1.515a10.872 10.872 0 0 1 1.209-3.819c1.197-2.088 3.247-4.481 5.093-3.717.954.483 1.222 2.953-.624 6.187v-.089Zm53.699 70.16c-.955 1.273-.509 2.89.407 4.341a11.786 11.786 0 0 0 2.381 2.966c.611.535 1.604 1.083 2.253.255.65-.827.153-2.546-.216-3.45-.471-1.057-2.928-6.493-4.825-4.023v-.089Zm-24.953-42.751c-.48.42-.82.978-.973 1.597-.152.62-.11 1.271.12 1.866a9.589 9.589 0 0 0 1.044 2.928c.331.586.955 1.273 1.681.815.725-.458.802-1.948.751-2.737-.051-.942-.497-5.78-2.623-4.379v-.09Z" fill="#263238"/><path d="M378.694 125.145c4.494-1.069 8.275-12.884 8.504-19.224 0-.433-1.68-2.546-4.315-6.709-1.605-2.546-3.31-5.41-4.685-8.135l-15.048 12.731a48.523 48.523 0 0 1 6.938 9.663c.185.375.334.767.446 1.171.022.069.047.137.076.204.764 2.355 3.743 11.33 8.084 10.299Z" fill="#EB9481"/><path d="M372.532 117.379c-.305.166-.611.306-.904.446a56.072 56.072 0 0 1-1.031-2.928 2.089 2.089 0 0 0-.063-.204 7.25 7.25 0 0 0-.446-1.184 48.685 48.685 0 0 0-6.938-9.65l15.048-12.731c.292.573.585 1.146.904 1.731 1.744 6.213 3.73 19.046-6.57 24.52Z" fill="#263238"/><path d="M370.941 72.63c4.94 5.092 10.681 24.189 8.364 30.35-3.361 8.848-13.316 14.615-21.961 9.561-8.364-4.901-15.404-29.981-12.4-35.977 4.431-8.848 18.702-11.484 25.997-3.934Z" fill="#EB9481"/><path d="M359.356 92.58s.114 0 .14.076c.42 1.273 1.12 2.673 2.419 2.673 0 0 .063 0 0 .077-1.452.318-2.356-1.54-2.559-2.827Z" fill="#263238"/><path d="M359.992 90.848c1.974-.904 3.641 3.119 1.808 3.946-1.833.828-3.463-3.182-1.808-3.946Zm-7.714 4.749s-.064.101 0 .152c.547 1.273.98 2.725 0 3.603 0 0 0 .09 0 0 1.273-.7.662-2.673 0-3.755Z" fill="#263238"/><path d="M350.572 94.756c-2.063.675-.561 4.762 1.349 4.125 1.91-.636.357-4.685-1.349-4.125Zm9.993-7.155c-.591.08-1.186.126-1.782.14a2.825 2.825 0 0 1-1.833-.19.914.914 0 0 1-.331-1.083 2.29 2.29 0 0 1 1.998-1.146 3.35 3.35 0 0 1 2.356.535.985.985 0 0 1 .362 1.005.984.984 0 0 1-.77.74Zm-12.934 4.419c.496-.329.972-.686 1.425-1.07.548-.42 1.019-.688 1.273-1.375a.914.914 0 0 0-.483-1.006 2.24 2.24 0 0 0-2.254.471 3.337 3.337 0 0 0-1.4 1.96.977.977 0 0 0 .401.96.98.98 0 0 0 1.038.06Zm15.086 7.778a4.62 4.62 0 0 1-2.05 3.055c-.46.304-.962.54-1.49.7l-.305.077-.293.076a.343.343 0 0 1-.369-.178v-.242c-.42-.942-.93-2.444-.93-2.444-.28.318-1.731 1.858-1.909 1.349a68.832 68.832 0 0 1-3.654-13.495.129.129 0 0 1 .046-.063.129.129 0 0 1 .15 0 .129.129 0 0 1 .046.063c1.566 4.023 2.419 8.3 3.934 12.362a8.41 8.41 0 0 1 1.744-1.439c.153 0 .929 2.916 1.158 3.323a6.36 6.36 0 0 0 3.82-3.17c0-.153.14-.102.102.026Z" fill="#263238"/><path d="M377.969 91.064c-3.667.675-6.684-8.211-6.684-8.211s-4.927-.204-8.975-7.843c0 0-.37 8.912-15.57 12.006a13.2 13.2 0 0 1-1.439-7.97 55.247 55.247 0 0 0-1.095 9.09s-7.498-11 1.464-18.702c3.565-3.055 9.956-4.774 21.044-3.195 0 0 0-6.366 1.274-5.92 1.273.446.98 6.365.98 6.365s3.755-2.673 4.748-2.024c.993.65-2.826 2.928-2.826 2.928a8.735 8.735 0 0 1 8.441 7.639c1.273 7.193.458 15.506-1.362 15.837Z" fill="#263238"/><path d="M369.719 67.92a7.982 7.982 0 0 1 9.841 3.819 14.85 14.85 0 0 1 1.197 6.607 28.159 28.159 0 0 1-1.133 6.977c0 .127-.23 0-.191-.077.535-2.077.75-4.223.636-6.365a19.93 19.93 0 0 0-.98-6.124 7.64 7.64 0 0 0-9.306-4.596c-.115.013-.179-.19-.064-.242Zm-16.36-3.247a30.777 30.777 0 0 1 8.021.28 22.388 22.388 0 0 1 7.295 2.177c.114 0 0 .242-.077.191a40.732 40.732 0 0 0-14.462-1.617c-4.507.178-9.37 1.783-11.458 6.162 0 .076-.14 0-.114 0 1.693-4.52 6.365-6.696 10.795-7.193Z" fill="#263238"/><path d="M374.519 89.435s1.273-7.639 4.506-7.499c3.234.14 4.303 9.918 1.808 12.527a3.464 3.464 0 0 1-4.965.357l-1.349-5.385Z" fill="#EB9481"/><path d="M379.241 84.8s.089 0 .064.077c-1.719 1.91-1.884 4.43-1.668 6.862a1.896 1.896 0 0 1 2.33-1.706c.076 0 .064.127 0 .14a2.142 2.142 0 0 0-1.782 1.68 10.51 10.51 0 0 0-.179 2.19c0 .242-.407.306-.432 0-1.388-2.775-1.108-7.613 1.667-9.242Z" fill="#263238"/><path d="M403.379 124.012c6.455 22.61 10.554 65.195 7.282 72.935-2.902 6.85-24.71 22.763-37.25 31.268-4.087 2.775-23.871-28.492-19.351-31.217 6.161-3.692 28.25-18.294 28.784-19.873.535-1.578 2.547-33.584 5.946-51.929 3.055-16.627 12.158-9.739 14.589-1.184Z" fill="#EB9481"/><path d="M312.328 233.867c3.093 3.157 10.185-5.092 10.185-5.092a8.168 8.168 0 0 0 .751 5.487c1.706 2.89 6.976 1.489 6.976 1.489a10.107 10.107 0 0 0 1.732 5.653c1.909 2.546 7.435 1.948 7.435 1.948a8.798 8.798 0 0 0 4.646 4.01c5.373 1.757 11.624-4.278 16.232-7.257a66.186 66.186 0 0 0 14.272-13.393l-18.46-30.223s-26.277 6.544-30.695 11.343c-3.781 4.036-17.785 21.223-13.074 26.035Z" fill="#EB9481"/><path d="M322.525 228.66c2.916-5.232 7.091-9.777 11.153-14.106.089-.089.241 0 .152.14-4.099 4.265-7.154 9.727-11.076 14.144a.153.153 0 0 1-.232-.084.151.151 0 0 1 .003-.094Zm7.563 6.633a15.077 15.077 0 0 1 2.737-3.03 136.409 136.409 0 0 1 3.183-2.966 166.805 166.805 0 0 1 6.62-5.666c.102-.076.242 0 .14.14a348.38 348.38 0 0 0-6.366 5.946 356.454 356.454 0 0 0-3.081 3.068 18.898 18.898 0 0 1-3.004 2.788.205.205 0 0 1-.2-.07.203.203 0 0 1-.029-.21Zm9.459 7.944a10.989 10.989 0 0 1 2.609-2.546l2.992-2.546c1.986-1.757 3.96-3.514 5.882-5.322a.102.102 0 0 1 .072-.033.098.098 0 0 1 .074.027.099.099 0 0 1 .034.072.106.106 0 0 1-.027.074c-1.948 1.859-3.82 3.743-5.818 5.589-.955.904-1.923 1.795-2.903 2.686a10.172 10.172 0 0 1-2.839 2.215s-.076-.165-.076-.216Z" fill="#263238"/><path d="m414.888 176.209-35.099.433s4.507-38.69 9.357-55.533c4.074-14.157 12.553-12.858 17.212 5.424 4.405 17.288 8.53 49.676 8.53 49.676Z" fill="#6D55F1"/><path d="m414.251 171.371-.114-.191a11.202 11.202 0 0 1-2.355-7.066c0-.802.101-2.253 1.056-2.546.548 3.896 1.057 7.257 1.413 9.803Zm-27.307-32.273a13.453 13.453 0 0 1 4.71-5.716c1.069-.828 3.106-2.546 3.908-.509.213.801.16 1.65-.152 2.419a13.062 13.062 0 0 1-2.101 4.048c-1.108 1.528-2.979 3.565-5.092 3.323-2.114-.242-1.808-2.088-1.273-3.539v-.026Zm12.489-10.694a12.793 12.793 0 0 1 2.546-7.537c.827-.954 1.833-1.273 2.648-.725.815.547 1.273 1.96 1.502 3.03a13.639 13.639 0 0 1-.967 7.638c-.675 1.502-1.885 3.603-3.82 3.259-2.533-.382-2.049-3.844-1.96-5.639l.051-.026Zm-9.892 1.553c-1.159-.815-.229-4.201.7-5.831 1.197-2.087 3.246-4.481 5.092-3.717.942.382 1.21 2.852-.636 6.085-1.681 3.018-4.227 4.138-5.156 3.489v-.026Zm-2.075 35.927c-.191.929-.713 2.623-1.783 2.966-1.069.344-1.515-.7-1.706-1.502a11.712 11.712 0 0 1-.28-3.819c.077-1.719.649-3.323 2.139-3.82 2.954-.891 1.897 4.991 1.63 6.2v-.025Zm-2.992 3.45a54.194 54.194 0 0 1 6.722-.509c2.317-.128 4.634-.166 6.951-.217 2.317-.051 11.534.102 13.838.14.102 0 .089.179 0 .191-2.317.128-11.521.65-13.787.688-2.266.038-4.532.102-6.799.063a59.093 59.093 0 0 1-6.9-.241s-.089-.102-.025-.115Z" fill="#263238"/><path d="M407.823 132.86c.84 3.565 1.591 7.155 2.304 10.745.713 3.59 1.362 7.206 2.012 10.808.649 3.603 1.196 7.219 1.731 10.847.28 1.808.496 3.628.7 5.449.204 1.82.408 3.654.458 5.5v.152h-.152l-3.539-.101 3.526-.191-.14.152c-.42-3.628-1.057-7.231-1.668-10.834l-1.833-10.821c-.573-3.615-1.273-7.218-1.782-10.834-.51-3.615-1.146-7.231-1.617-10.872Z" fill="#263238"/><path d="M409.401 134.795c.304 1.086.458 2.208.459 3.336a11.012 11.012 0 0 1-.459 3.335 29.733 29.733 0 0 1-.178-3.335 22.82 22.82 0 0 1 .178-3.336Z" fill="#263238"/><path d="M75.01 440.872s21.77-4.94 33.699-15.926c11.929-10.987 18.6-30.695 18.6-30.695a188.326 188.326 0 0 0-24.418 6.366 41.365 41.365 0 0 0-7.384 10.439 50.206 50.206 0 0 1 0-7.46 32.628 32.628 0 0 0-7.753 4.71c-9.955 8.772-12.744 32.566-12.744 32.566Z" fill="#6D55F1"/><path d="M113.713 403.825c2.966-2.05 5.983-4.036 8.911-6.098a.174.174 0 0 0 .078-.106.172.172 0 0 0-.256-.187 290.005 290.005 0 0 0-16.55 10.681c-1.872 1.273-3.692 2.661-5.513 4.049l.382-.637c.649-1.095 1.35-2.164 2.037-3.246a45.333 45.333 0 0 1 4.621-6.162c.064-.076 0-.178-.114-.102-1.693 1.948-3.387 3.883-4.927 5.958a44.488 44.488 0 0 0-2.075 3.056 49.782 49.782 0 0 0-.98 1.642l-.319.56c-2.813 2.215-5.563 4.52-8.173 6.951a95.484 95.484 0 0 0-4.672 4.672c.84-2.635 1.566-5.296 2.546-7.893 0-.089-.115-.127-.14 0-.955 2.725-1.986 5.462-2.725 8.25a72.185 72.185 0 0 0-4.76 5.614l.075-.356c.255-1.019.51-2.05.777-3.068.535-1.961 1.108-3.921 1.782-5.857a33.979 33.979 0 0 1 5.844-11.037c.064-.077 0-.178-.115-.102a42.382 42.382 0 0 0-8.326 17.403c-.242.929-.458 1.859-.674 2.788-.102.497-.242 1.006-.319 1.515-.662.879-1.273 1.782-1.922 2.699a94.344 94.344 0 0 0-9.217 18.065 213.102 213.102 0 0 0-6.977 21.757c0 .14.178.191.23 0 4.252-12.73 8.605-25.652 15.888-37.047 1.54-2.4 3.201-4.72 4.977-6.951a41.061 41.061 0 0 0 10.733-2.1 46.906 46.906 0 0 0 10.617-5.093 67.61 67.61 0 0 0 5.436-4.112.075.075 0 0 0 .026-.052.08.08 0 0 0-.019-.056.084.084 0 0 0-.053-.026.08.08 0 0 0-.056.02 43.01 43.01 0 0 1-9.968 6.034 54.717 54.717 0 0 1-10.987 3.692 62.685 62.685 0 0 1-4.863.828 91.509 91.509 0 0 1 6.365-7.117c.739-.726 1.49-1.426 2.254-2.139a50.345 50.345 0 0 1 8.046-4.608c3.565-1.732 7.078-3.552 10.605-5.347 1.998-1.019 3.972-2.05 5.983-3.03.077 0 0-.166-.076-.128-3.578 1.732-7.219 3.336-10.834 4.991-3.387 1.566-6.837 3.132-10.096 4.952l-.407.255a170.844 170.844 0 0 1 9.128-7.371 187.256 187.256 0 0 1 8.772-6.404Z" fill="#263238"/><path d="M112.478 415.054c-1.77.776-3.577 1.464-5.334 2.279-1.757.814-3.501 1.833-5.22 2.839-.076 0 0 .152.076.114 1.732-.827 3.489-1.604 5.207-2.47 1.719-.865 3.501-1.833 5.309-2.622.089-.038.051-.178-.038-.14Z" fill="#263238"/><path d="M4.29 331.17a31.11 31.11 0 0 1 6.506 18.078c0 1.947-.242 4.672-.471 7.867a51.688 51.688 0 0 1 14.207 12.146 25.627 25.627 0 0 0-14.348-3.438 42.39 42.39 0 0 0 .828 6.506c3.165.003 6.3.621 9.23 1.82a20.776 20.776 0 0 0-8.326 1.655c3.883 12.349 15.417 25.029 47.27 30.414a66.784 66.784 0 0 0-5.64-44.812C43.998 342.627 4.29 331.17 4.29 331.17Z" fill="#6D55F1"/><path d="M70.211 459.09c-.547-5.271-1.273-10.541-2.062-15.774a312.639 312.639 0 0 0-6.366-31.178 123.246 123.246 0 0 0-4.596-14.207c.093-.846.136-1.696.128-2.547v-3.055c0-2.037-.128-4.074-.293-6.111a72.996 72.996 0 0 0-1.96-11.941c-.586-2.267-1.274-4.507-1.923-6.748a.078.078 0 0 0-.07-.046.078.078 0 0 0-.07.046 88.21 88.21 0 0 1 2.342 11.929c.57 3.963.932 7.953 1.082 11.954v4.685a102.215 102.215 0 0 0-5.36-11.101A134.855 134.855 0 0 0 40.129 368.7a7.532 7.532 0 0 0-.267-1.769l-.459-2.139c-.33-1.451-.7-2.903-1.095-4.341-.789-2.89-1.833-5.678-2.737-8.53 0-.089-.165 0-.14 0 .84 2.814 1.4 5.742 2.05 8.619.318 1.413.624 2.839.942 4.265.153.7.305 1.413.446 2.126v.165c-1.274-1.629-2.547-3.233-3.947-4.812-6.085-7.129-12.731-13.711-19.466-20.242a116.516 116.516 0 0 0-2.546-2.381c-.064-.064-.165 0-.102.115 6.366 6.696 12.731 13.456 18.715 20.547a262.251 262.251 0 0 1 4.188 5.093l-2.164-1.439c-1.859-1.209-3.73-2.393-5.665-3.475-1.935-1.082-3.82-2.139-5.87-3.119-2.049-.981-4.226-1.834-6.2-2.992-.076 0-.152.102-.063.14a45.323 45.323 0 0 1 5.805 3.221c1.948 1.146 3.82 2.304 5.78 3.514a270.168 270.168 0 0 1 5.615 3.564c1.553 1.006 3.08 2.101 4.685 3.03a149.772 149.772 0 0 1 10.184 14.857 110.436 110.436 0 0 1 5.284 10.007l-1.146-.497-2.916-1.273-5.64-2.457c-3.564-1.553-7.192-2.979-10.706-4.685a47.293 47.293 0 0 1-5.716-3.183c-.077 0-.14.077 0 .14 6.53 4.494 13.851 7.639 21.082 10.873l3.132 1.374c.853.382 1.719.815 2.546 1.146a112.88 112.88 0 0 1 5.385 14.755 300.291 300.291 0 0 1 6.926 30.822c1.833 10.401 3.068 20.879 4.023 31.394.115 1.274.23 2.623.382 3.934a.418.418 0 0 0 .828 0c.038-5.359-.51-10.706-1.07-15.977Z" fill="#263238"/><path d="M50.834 371.094c-.585-3.246-1.45-6.366-2.317-9.586 0-.09-.165 0-.14 0 .802 3.106 1.375 6.276 1.961 9.446.586 3.17 1.12 6.442 1.579 9.688h.089a86.632 86.632 0 0 0-1.172-9.548Zm-13.724 8.771a57.754 57.754 0 0 0-6.925-3.895c-1.171-.599-2.342-1.171-3.513-1.744-1.172-.573-2.547-1.07-3.68-1.681a.08.08 0 0 0-.06-.006.078.078 0 0 0-.048.038.08.08 0 0 0 .032.108c1.171.573 2.279 1.273 3.424 1.91 1.146.636 2.343 1.273 3.527 1.935 2.33 1.273 4.621 2.635 7.066 3.654a.2.2 0 0 0 .067.022.188.188 0 0 0 .135-.038.183.183 0 0 0-.024-.303Z" fill="#263238"/><path opacity=".1" d="M75.406 403.163s20.14-4.812 29.395-18.32c8.823-12.909 11.687-34.908 11.904-36.843-.357 1.769-4.52 21.006-18.231 29.956-10.503 6.862-20.65 12.502-23.069 25.207Z" fill="#263238"/><path d="M93.992 368.357a25.779 25.779 0 0 0-7.422 12.234s0 .064 0 0a30.019 30.019 0 0 1 7.46-12.145c.128-.038.026-.153-.038-.089Z" fill="#263238"/><path d="M75.405 403.163s20.14-4.812 29.396-18.32c8.822-12.909 11.687-34.908 11.903-36.843a.547.547 0 0 0 0-.14s-9.65 13.737-19.809 17.238c-10.16 3.501-24.405 15.62-21.49 38.065Z" fill="#6D55F1"/><path d="M113.165 355.435a83.167 83.167 0 0 1-6.225 10.656 42.745 42.745 0 0 1-8.288 8.517c-2.737 2.177-5.627 4.15-8.402 6.276a.723.723 0 0 0 0-.102 40.882 40.882 0 0 1 1.642-2.253c1.158-1.477 2.419-2.865 3.692-4.24 2.546-2.711 5.092-5.372 7.295-8.313a30.121 30.121 0 0 0 3.233-5.207c0-.089-.102-.127-.14 0-3.272 6.811-9.79 11.165-14.45 16.919a28.325 28.325 0 0 0-1.858 2.547 9.79 9.79 0 0 0-1.159 2.049 42.211 42.211 0 0 0-6.874 6.939c.176-1.32.444-2.626.802-3.909a19.996 19.996 0 0 1 2.139-5.092c0-.076-.077-.153-.128-.076a24.057 24.057 0 0 0-2.342 5.092 18.228 18.228 0 0 0-.739 4.354 39.648 39.648 0 0 0-2.711 4.227c.076-.433.165-.853.242-1.274.407-2.011.853-4.01 1.362-5.996a35.72 35.72 0 0 1 4.868-11.372.078.078 0 0 0-.008-.066.075.075 0 0 0-.025-.024.076.076 0 0 0-.032-.011.078.078 0 0 0-.063.024.074.074 0 0 0-.017.03 42.59 42.59 0 0 0-5.36 11.101c-.649 1.973-1.158 3.985-1.617 6.009-.216.993-.42 1.986-.61 2.992-.09.509-.204 1.031-.293 1.566a73.54 73.54 0 0 0-4.647 13.66 200.544 200.544 0 0 0-4.29 25.462 211.013 211.013 0 0 0-1.337 26.989c0 1.133.089 2.266.14 3.387 0 .293.458.343.47 0 .204-4.469.319-8.912.586-13.419.268-4.506.65-8.911 1.12-13.38a240.146 240.146 0 0 1 4.202-26.047c1.63-7.359 3.755-14.768 7.778-21.223 2-3.213 4.448-6.124 7.27-8.644 2.826-2.546 5.907-4.761 8.911-7.104a49.106 49.106 0 0 0 8.161-7.842 63.612 63.612 0 0 0 6.366-10.401c.471-.917.967-1.821 1.451-2.725.051-.076-.077-.153-.115-.076Z" fill="#263238"/><path d="M109.69 358.388a69.481 69.481 0 0 1-4.494 7.855s0 .115.089.064a55.632 55.632 0 0 0 4.545-7.868c.038-.089-.102-.127-.14-.051Z" fill="#263238"/><path d="M1.477 394.251s-.318 28.632 16.805 36.92 26.29 1.375 37.925 4.15c-.458-.687-8.759-12.616-21.96-15.901-13.597-3.424-28.645-13.24-32.77-25.169Z" fill="#6D55F1"/><path opacity=".1" d="M1.477 394.251s-.318 28.632 16.805 36.92 26.29 1.375 37.925 4.15a64.605 64.605 0 0 0-19.465-5.741c-10.809-1.337-31.433-8.377-35.265-35.329Z" fill="#000"/><path d="M57.327 435.805a28.389 28.389 0 0 0-6.773-4.608c-.369-.179-.738-.319-1.12-.484a7.063 7.063 0 0 0-.573-.65 23.102 23.102 0 0 0-1.604-1.54 25.391 25.391 0 0 0-3.488-2.533c-2.826-1.668-5.933-2.827-8.835-4.38-.09 0-.166.089-.077.127 1.439.752 2.827 1.566 4.214 2.381 1.388.815 2.75 1.553 4.061 2.406a28.648 28.648 0 0 1 3.387 2.546c.305.268.598.548.891.841a45.694 45.694 0 0 0-5.767-1.503c-3.132-.623-6.366-1.082-9.434-1.744a46.529 46.529 0 0 1-4.532-1.273c-1.426-1.146-2.839-2.279-4.188-3.526a33.648 33.648 0 0 1-4.444-4.787c0-.076-.19 0-.127.076a52.528 52.528 0 0 0 7.015 7.741 35.993 35.993 0 0 1-2.19-.904 35.418 35.418 0 0 1-14.59-12.133c0-.076-.178 0-.127.077a40.38 40.38 0 0 0 11.802 11.33 36.002 36.002 0 0 0 7.46 3.527 69.63 69.63 0 0 0 9.268 2.189 66.547 66.547 0 0 1 9.065 2.101 27.423 27.423 0 0 1 7.638 4.01 35.653 35.653 0 0 1 10.185 12.731 63.785 63.785 0 0 1 5.653 20.93c0 .305.509.305.483 0-.764-12.069-3.972-24.596-13.253-32.948Z" fill="#263238"/><path d="M37.467 426.473a9.781 9.781 0 0 0-3.462-3.195 12.63 12.63 0 0 1-4.176-3.463c-.064-.076-.191 0-.128.077a13.883 13.883 0 0 0 3.692 3.31 12.915 12.915 0 0 1 4.023 3.335c-.012.064.09 0 .051-.064Z" fill="#263238"/><path d="m46.544 456.939.777 15.735 2.393 48.097h35.901l2.394-48.097.776-15.735h-42.24Z" fill="#455A64"/><path d="m46.544 456.939.777 15.735h40.688l.776-15.735h-42.24Z" fill="#263238"/><path d="M44.036 465.379h47.27v-15.022h-47.27v15.022Z" fill="#455A64"/></svg>