<svg width="503" height="497" fill="none" xmlns="http://www.w3.org/2000/svg"><path d="M106.046 11.858H9.921V170.96h96.125V11.858Z" fill="#E0E0E0"/><path d="M102.852 11.858H6.727V170.96h96.125V11.858Z" fill="#EBEBEB"/><path d="M98.757 15.086H10.82v152.658h87.937V15.086Z" fill="#fff"/><path d="M81.627 34.916h-54.07v112.986h54.07V34.916Z" fill="#EBEBEB"/><path d="M27.558 107.916c-.124-10.551 9.37-20.854 19.819-22.328 4.983-.697 10.28.293 14.937-1.62 8.312-3.374 10.956-14.453 19.324-17.726l.383 81.66H27.558v-39.986Zm459.02-87.994v76.296H377l-3.948-75.767 113.526-.529Z" fill="#E0E0E0"/><path d="M373.052 20.451V96.05H482.63V20.451H373.052Z" fill="#fff"/><path d="M483.158 96.578H372.534V19.934h110.624v76.644ZM373.58 95.532h108.532V20.98H373.58v74.552Z" fill="#E0E0E0"/><path d="M470.763 29.843h-85.845v56.814h85.845V29.843Z" fill="#fff"/><path d="M470.763 29.843h-6.355l-17.693.068-61.797.112.259-.247v56.813l-.27-.27h85.845l-.214.214c0-17.288.09-31.494.112-41.336 0-4.927 0-8.785.057-11.428v-4.05 3.96c0 2.632 0 6.479.056 11.383 0 9.91.067 24.127.112 41.471v.225h-86.328V29.551h.247l61.966.123 17.625.068h6.254l.124.101Z" fill="#E0E0E0"/><path d="M373.052 20.237c.675.334 1.31.745 1.889 1.226 1.125.81 2.644 1.957 4.297 3.273 1.654 1.316 3.105 2.565 4.117 3.51a8.31 8.31 0 0 1 1.563 1.597 75.63 75.63 0 0 1-6.017-4.68 61.635 61.635 0 0 1-5.849-4.926Zm109.577.214a51.32 51.32 0 0 1-5.804 4.915 52.078 52.078 0 0 1-6.107 4.5 54.424 54.424 0 0 1 5.77-4.904 53.707 53.707 0 0 1 6.141-4.511Z" fill="#E0E0E0"/><path d="m482.551 96.06-12.227-9.898 12.227 9.898Z" fill="#fff"/><path d="M470.324 86.162a57.507 57.507 0 0 1 6.288 4.747 58.97 58.97 0 0 1 5.939 5.151 54.81 54.81 0 0 1-6.288-4.735 59.676 59.676 0 0 1-5.939-5.163Zm-97.272 9.887a53.25 53.25 0 0 1 5.714-4.848 50.05 50.05 0 0 1 6.04-4.432 53.336 53.336 0 0 1-5.714 4.848 50.039 50.039 0 0 1-6.04 4.432Zm29.301-48.49v19.02h54.013V47.56h-54.013Zm-5.838 295.08a39.844 39.844 0 0 0-17.018-5.86c-2.778-.281-5.827-.203-8.054 1.485a1.673 1.673 0 0 0-.832 1.473c.133.418.412.774.787 1.001 6.929 5.287 17.401 5.95 25.117 1.901Zm-.439-.483a82.528 82.528 0 0 1-10.989-9.663 27.927 27.927 0 0 1-6.895-12.744 5.179 5.179 0 0 1 .54-4.263c8.762 6.839 15.646 15.748 17.344 26.67Z" fill="#E0E0E0"/><path d="M396.425 342.572a39.626 39.626 0 0 1 .203-14.432 19.502 19.502 0 0 1 7.682-11.9c1.518 3.532.866 7.615-.203 11.316a54.497 54.497 0 0 1-7.626 16.039m8.527 14.398c-5.208.63-9.752 3.374-13.644 6.906a25.787 25.787 0 0 0-7.806 13.34c5.117-.315 9.448-3.925 12.597-7.963 3.15-4.038 5.332-8.481 8.785-12.261m1.935 2.407a33.634 33.634 0 0 1 3.892-31.832c2.969 10.562 1.878 22.496-3.892 31.832Zm11.349 13.52a24.313 24.313 0 0 0-23.272 13.397 1.79 1.79 0 0 0-.158 1.822 1.695 1.695 0 0 0 1.541.45c4.589-.293 8.65-3.048 12.013-6.198 3.363-3.149 6.276-6.749 9.977-9.482m-.461-.731a43.337 43.337 0 0 1-.439-24.206c.855-3.115 2.25-6.4 5.174-7.873a.986.986 0 0 1 .788-.135c.234.119.411.325.495.573a14.63 14.63 0 0 1 1.226 6.952 43.86 43.86 0 0 1-1.125 7.03c-.911 4.296-1.395 8.919-3.746 12.62a25.509 25.509 0 0 0-1.507 2.778c-.439.934-.439 1.271-.855 2.014m30.021 4.724c-2.25-8.459.135-18.728 5.478-25.668.393-.506.911-1.058 1.552-1.001.979.09 1.237 1.406 1.192 2.384a46.332 46.332 0 0 1-8.222 24.285Zm2.711 1.856c10.292 2.677 22.08.067 30.64-6.232a24.75 24.75 0 0 0-16.591-2.036c-5.534 1.26-10.595 3.746-14.049 8.268Zm2.284-5.636c5.759-9.392 16.804-15.522 27.805-16.084-1.26 4.499-4.938 7.952-9.089 10.055-4.15 2.104-8.784 3.015-13.351 3.904-1.777.348-4.207.731-5.365 2.125Zm-4.421-27.355a80.358 80.358 0 0 0 3.61-16.287c.428-5.545-.36-11.338-3.239-16.107-5.377 10.416-5.928 22.575-.473 32.957m18.222-9.719c6.288-11.439 19.122-20.572 32.113-21.855-5.005 12.486-18.671 22.125-32.113 21.855Zm-3.959 2.239c9.381 1.428 17.378 7.423 26.151 11.057a11.753 11.753 0 0 0 5.906 1.124 4.635 4.635 0 0 0 2.902-8.188 12.618 12.618 0 0 0-4.297-2.599c-9.55-3.981-19.797-4.083-29.852-1.664" fill="#E0E0E0"/><path d="M457.198 346.205c2.126.607 2.846 1.71 4.499 3.149a48.922 48.922 0 0 0 19.831 10.18c.753.191 1.754.27 2.126-.416.371-.687-.09-1.328-.518-1.856a27.333 27.333 0 0 0-11.934-8.133c-4.578-1.698-8.537-3.757-14.004-3.318m-6.13-39.357a37.515 37.515 0 0 0 28.773 9.797c.478.008.942-.161 1.305-.472.731-.787-.135-2.002-.979-2.666-8.459-6.591-18.705-9.324-29.099-6.659Z" fill="#E0E0E0"/><path d="M458.334 303.8a40.144 40.144 0 0 1 35.904-5.928 28.488 28.488 0 0 1-17.109 7.514c-6.309.57-12.67.033-18.795-1.586Zm-2.88-18.267c-.821-8.447-.292-15.106-.877-23.621 0-.675-.191-1.496-.821-1.743-.889-.338-1.62.753-1.912 1.653a26.997 26.997 0 0 0 3.599 23.486" fill="#E0E0E0"/><path d="M454.836 286.467a49.688 49.688 0 0 0 13.992-13.599c2.756-3.78 5.085-8.301 4.5-12.947a13.431 13.431 0 0 0-10.124 5.017 28.119 28.119 0 0 0-5.151 10.348c-1.125 3.712-1.901 7.525-3.217 11.181Zm13.745-3.836A112.967 112.967 0 0 0 503 262.385c-4.117-1.654-8.819-.664-12.935 1.001-9.381 3.79-17.064 10.19-21.664 19.2m-9.695 8.504c6.355.686 12.811 1.124 19.121.09 6.31-1.035 12.047-3.499 17.84-5.928a2.117 2.117 0 0 0 1.214-.923 1.393 1.393 0 0 0-.438-1.529 3.708 3.708 0 0 0-1.519-.709c-6.299-1.766-13.093-.933-19.279 1.125a88.877 88.877 0 0 0-16.928 7.874m-36.287 15.657c-4.341-8.751-4.06-18.964-.314-27.974 2.632 4.016 2.958 9.122 2.474 13.903-.484 4.78-1.935 9.707-2.025 14.509m-17.457-9.167a38.967 38.967 0 0 0-28.997 12.373c5.399.844 10.967-.551 15.882-2.947a80.156 80.156 0 0 0 13.599-9.111m-12.125-4.218c-5.298-.427-10.393-1.125-15.477.484a18.523 18.523 0 0 0-11.8 9.999 27.903 27.903 0 0 0 14.51-2.744 82.14 82.14 0 0 0 12.767-7.739Zm17.232.18c-4.758-3.116-9.651-6.299-15.196-7.592-5.546-1.294-11.968-.338-15.837 3.847 4.499 2.632 9.932 2.947 15.139 2.935 5.208-.011 11.586 0 16.49 1.676" fill="#E0E0E0"/><path d="M410.732 294.554c-8.143-7.997-11.248-22.361-7.952-33.294a50.704 50.704 0 0 1 7.952 33.294Zm22.395-22.665c1.53-3.565 2.61-7.311 3.993-10.944a31.32 31.32 0 0 1 5.692-10.123 14.976 14.976 0 0 1 10.123-5.219 40.603 40.603 0 0 1-19.572 26.331m-4.296 4.679c-2.542-3.498-5.478-8.245-8.92-10.854-3.442-2.61-7.929-4.196-12.136-3.194a28.286 28.286 0 0 0 8.868 9.512 28.287 28.287 0 0 0 12.188 4.536Zm.81-4.431a60.338 60.338 0 0 1-4.016-13.003 20.323 20.323 0 0 1 2.036-13.228c4.499 8.447 5.916 17.513 2.25 26.332m3.014-26.332c2.53-8.38 10.202-14.543 18.48-17.378a7.006 7.006 0 0 1 3.24-.484 2.831 2.831 0 0 1 2.395 1.991c.304 1.429-.877 2.711-1.979 3.656a63.08 63.08 0 0 1-22.136 12.215Zm.09-6.85c.326-5.399.663-10.877 2.418-15.994 1.755-5.118 5.14-9.921 10.067-12.16.844 5.456-1.563 10.877-4.499 15.579s-6.4 9.122-8.144 14.352m.034 1.935c-2.092-6.096-2.317-13.857-5.973-19.122-2.553-3.723-6.647-6.253-8.84-10.19a15.486 15.486 0 0 0 .506 11.563 33.506 33.506 0 0 0 6.749 9.684c2.699 2.88 5.016 5.062 7.536 8.11" fill="#E0E0E0"/><path d="M433.161 422.579c-.158 0-.304-40.718-.315-90.94-.011-50.223.112-90.952.281-90.952.169 0 .304 40.718.315 90.952.011 50.233-.112 90.94-.281 90.94Z" fill="#E0E0E0"/><path d="M468.75 300.628a10.28 10.28 0 0 1-1.53.574l-4.218 1.417a246.324 246.324 0 0 0-13.722 5.14c-5.287 2.171-10.191 4.072-13.014 6.513a9.51 9.51 0 0 0-2.61 3.453c-.405.956-.484 1.541-.529 1.541-.045 0 0-.158 0-.428.064-.406.166-.805.304-1.192a9.134 9.134 0 0 1 2.553-3.689 22.716 22.716 0 0 1 5.624-3.498c2.25-1.058 4.77-2.16 7.424-3.251 5.309-2.171 10.225-3.869 13.824-4.983 1.788-.562 3.262-.967 4.274-1.248a8.238 8.238 0 0 1 1.62-.349Z" fill="#E0E0E0"/><path d="M480.414 271.957a2.848 2.848 0 0 1-.428.45l-1.304 1.226-4.882 4.431-16.242 14.465c-6.333 5.624-11.81 11.023-15.601 15.084-1.901 2.025-3.374 3.712-4.421 4.882-.483.539-.866.989-1.181 1.349-.315.36-.427.461-.438.439-.011-.023.101-.191.348-.517.248-.327.608-.81 1.125-1.418.968-1.226 2.419-2.947 4.286-5.016a205.696 205.696 0 0 1 15.533-15.241 2381.737 2381.737 0 0 1 16.344-14.33l5.005-4.297 1.383-1.125c.259-.281.462-.405.473-.382Z" fill="#E0E0E0"/><path d="M450.719 298.266c-.169-.079 1.125-3.138 2.475-6.996 1.349-3.859 1.968-7.132 2.137-7.109a24.168 24.168 0 0 1-1.575 7.288 47.452 47.452 0 0 1-1.968 4.893 7.914 7.914 0 0 1-1.069 1.924Zm-17.513 24.644a7.236 7.236 0 0 1-.979-1.125l-2.508-3.16a1106.677 1106.677 0 0 0-8.256-10.573c-3.251-4.106-6.254-7.784-8.425-10.45l-2.576-3.217a7.785 7.785 0 0 1-.888-1.215c.385.322.739.68 1.057 1.069.652.697 1.575 1.743 2.7 3.037a318.597 318.597 0 0 1 8.571 10.359c3.262 4.117 6.107 7.874 8.132 10.686a116.695 116.695 0 0 1 2.351 3.318c.308.401.583.826.821 1.271Z" fill="#E0E0E0"/><path d="M425.4 312.888a14.235 14.235 0 0 1-3.273-6.119 17.825 17.825 0 0 1-.742-6.164h.258c-.112.473-.191.72-.247.709-.056-.011 0-.27 0-.754h.259c.126 2.03.473 4.041 1.034 5.996a45.378 45.378 0 0 0 2.711 6.332Zm-10.078-12.665a9.992 9.992 0 0 0-2.25-1.327 15.132 15.132 0 0 0-6.332-.506 38.649 38.649 0 0 0-6.378 1.034c-.863.267-1.742.477-2.632.63a8.783 8.783 0 0 1 2.52-1.035 29.125 29.125 0 0 1 6.445-1.214 13.71 13.71 0 0 1 6.535.708 3.937 3.937 0 0 1 2.092 1.71Zm-2.385-3.071c0 .09-1.328-.54-3.499-1.271a35.463 35.463 0 0 0-8.717-1.799 36.229 36.229 0 0 0-8.897.449c-2.25.405-3.622.833-3.656.732.287-.184.603-.317.934-.394.862-.3 1.741-.548 2.632-.742a31.13 31.13 0 0 1 17.851 1.361c.854.323 1.688.699 2.497 1.124.311.135.599.317.855.54Zm20.191-12.991a71.472 71.472 0 0 1-2.554-8.852 72.83 72.83 0 0 1-1.979-8.999 74.32 74.32 0 0 1 2.553 8.864 72.974 72.974 0 0 1 1.98 8.987Z" fill="#E0E0E0"/><path d="M433.284 284.161a44.073 44.073 0 0 0-2.823-5.298 23.458 23.458 0 0 0-4.162-4.297c.594.15 1.144.435 1.609.833a13.257 13.257 0 0 1 3.037 3.126 11.756 11.756 0 0 1 2.339 5.636Zm-.123 116.709c-.056 0-.18-.978-.641-2.711a38.287 38.287 0 0 0-2.722-7.041c-2.812-5.748-7.93-13.048-14.431-20.348-3.228-3.678-6.355-7.153-8.999-10.483a72.575 72.575 0 0 1-6.433-9.279 43.73 43.73 0 0 1-3.251-6.895c-.304-.855-.518-1.508-.641-1.969a2.78 2.78 0 0 1-.169-.708c.056 0 .349.933 1.024 2.598a48.626 48.626 0 0 0 3.374 6.749 75.432 75.432 0 0 0 6.501 9.156c2.666 3.295 5.793 6.748 8.999 10.438 6.524 7.322 11.63 14.701 14.375 20.55a35.557 35.557 0 0 1 2.564 7.176c.157.672.277 1.351.36 2.036.059.239.089.485.09.731Zm32.158-36.32a13.22 13.22 0 0 1-1.687.945 36.45 36.45 0 0 0-4.365 2.891 50.323 50.323 0 0 0-5.747 5.241c-2.014 2.126-4.083 4.601-6.209 7.244-4.23 5.32-8.189 10.022-10.562 13.768a68.035 68.035 0 0 0-2.655 4.499 13.928 13.928 0 0 1-.933 1.698c.032-.163.085-.322.157-.472.124-.304.293-.765.563-1.327a45.287 45.287 0 0 1 2.508-4.646c2.306-3.847 6.242-8.616 10.46-13.925 2.126-2.643 4.23-5.129 6.277-7.255a47.666 47.666 0 0 1 5.883-5.185 30.163 30.163 0 0 1 4.499-2.767c.551-.281 1.012-.45 1.316-.574a1.67 1.67 0 0 1 .495-.135Z" fill="#E0E0E0"/><path d="M465.949 376.338a26.445 26.445 0 0 1-3.565.518 46.995 46.995 0 0 0-8.448 1.664 25.283 25.283 0 0 0-7.558 3.971c-1.744 1.338-2.565 2.452-2.655 2.396.129-.302.308-.579.529-.821a13.343 13.343 0 0 1 1.856-1.901 22.98 22.98 0 0 1 7.648-4.207 38.471 38.471 0 0 1 8.594-1.519 19.586 19.586 0 0 1 3.599-.101Z" fill="#E0E0E0"/><path d="M444.769 383.593c-.191-.112 1.417-2.564 2.666-5.86 1.248-3.296 1.44-6.243 1.653-6.209.08.637.057 1.283-.067 1.912a20.292 20.292 0 0 1-1.035 4.499 21.2 21.2 0 0 1-2.07 4.128 5.904 5.904 0 0 1-1.147 1.53Zm30.933-50.672c-.177.127-.37.229-.574.304l-1.676.753c-.731.315-1.62.72-2.621 1.249-1.001.528-2.182 1.057-3.374 1.788l-1.935 1.125c-.675.394-1.35.844-2.058 1.294-1.429.866-2.869 1.934-4.398 3.037a75.782 75.782 0 0 0-16.94 17.524c-1.046 1.575-2.058 3.037-2.879 4.499-.416.731-.855 1.406-1.226 2.092l-1.035 1.991c-.686 1.237-1.181 2.43-1.676 3.453a28.366 28.366 0 0 0-1.125 2.666c-.27.742-.517 1.26-.697 1.699a2.177 2.177 0 0 1-.293.584c.039-.211.1-.419.18-.618.158-.461.349-1.035.596-1.744.248-.708.597-1.676 1.069-2.71.472-1.035.922-2.25 1.597-3.521l1.013-2.013c.348-.698.787-1.384 1.192-2.126.81-1.474 1.822-2.97 2.857-4.556a72.358 72.358 0 0 1 17.074-17.659c1.553-1.125 3.004-2.149 4.5-3.015.719-.438 1.394-.888 2.08-1.271l1.98-1.124c1.237-.709 2.43-1.226 3.453-1.721a25.538 25.538 0 0 1 2.677-1.125l1.721-.664c.165-.084.338-.148.518-.191Z" fill="#E0E0E0"/><path d="M450.281 349.973a4.136 4.136 0 0 1 1.406-2.081 8.831 8.831 0 0 1 5.624-2.171c2.033-.012 4.05.37 5.939 1.125a8.36 8.36 0 0 1 2.249 1.125 13.829 13.829 0 0 1-2.384-.698 17.895 17.895 0 0 0-5.77-.956c-1.952.038-3.84.7-5.388 1.89a16.747 16.747 0 0 0-1.676 1.766Zm-3.824 3.925a21.392 21.392 0 0 0 1.608-5.207 21.561 21.561 0 0 0-.36-5.444c.333.448.556.968.652 1.518.69 2.624.365 5.412-.911 7.806-.472.923-.911 1.361-.989 1.327Zm-41.416 52.81c.877 15.567 5.567 31.393 12.777 47.388h31.371c6.873-15.837 11.248-31.641 12.013-47.388h-56.161Z" fill="#E0E0E0"/><path d="M456.118 431.892c0 .158-10.325.293-23.058.293s-23.07-.135-23.07-.293c0-.157 10.326-.292 23.07-.292s23.058.123 23.058.292Zm-.663 5.635c0 .158-9.685.293-21.619.293s-21.63-.135-21.63-.293c0-.157 9.685-.292 21.63-.292 11.945 0 21.619.135 21.619.292Zm-37.119-20.606c.39 4.81.39 9.644 0 14.454-.39-4.81-.39-9.644 0-14.454Z" fill="#FAFAFA"/><path d="M435.129 416.921c.39 4.983.39 9.988 0 14.971a95.929 95.929 0 0 1 0-14.971Zm15.827-.124a99.97 99.97 0 0 1 0 15.264 99.714 99.714 0 0 1 0-15.264Z" fill="#FAFAFA"/><path d="M460.213 416.921c0 .169-12.114.304-27.052.304-14.937 0-27.051-.135-27.051-.304 0-.169 12.103-.292 27.051-.292 14.949 0 27.052.135 27.052.292Z" fill="#FAFAFA"/><path d="M487.77 460.35c0 .157-108.926.292-243.272.292-134.347 0-243.295-.135-243.295-.292 0-.158 108.903-.293 243.295-.293 134.391 0 243.272.124 243.272.293Z" fill="#263238"/><path d="M321.761.306h-32.282a8.032 8.032 0 0 0-7.874 8.222v5.883a8.027 8.027 0 0 1-2.228 5.747 8.035 8.035 0 0 1-5.646 2.475h-62.988a8.039 8.039 0 0 1-7.33-5.128 8.04 8.04 0 0 1-.544-3.094V8.483a8.036 8.036 0 0 0-2.228-5.751A8.033 8.033 0 0 0 194.995.25H155.56a25.445 25.445 0 0 0-25.421 25.499l-.078 409a25.465 25.465 0 0 0 25.398 25.511l166.2.101a25.436 25.436 0 0 0 17.997-7.48 25.44 25.44 0 0 0 7.424-18.019l.079-409.012A25.459 25.459 0 0 0 321.761.306Z" fill="#fff"/><path d="M321.761.306h.877a19.15 19.15 0 0 1 2.576.202 23.985 23.985 0 0 1 9.549 3.375 24.735 24.735 0 0 1 5.793 4.724 25.4 25.4 0 0 1 4.814 7.626 26.37 26.37 0 0 1 1.89 10.337v12.002c0 33.935 0 83.044.067 143.716.068 60.671 0 132.929 0 213.149v38.176c0 1.282-.078 2.599-.135 3.903a27.913 27.913 0 0 1-.731 3.858 25.868 25.868 0 0 1-8.289 13.183 27.624 27.624 0 0 1-6.749 4.139 25.917 25.917 0 0 1-7.773 1.822l-2.013.102H157.382a26.615 26.615 0 0 1-16.534-4.612 25.981 25.981 0 0 1-10.011-13.948 28.254 28.254 0 0 1-1.046-8.604V26.514c0-1.024.079-2.059.112-3.082.034-1.024.281-2.036.45-3.037a26.446 26.446 0 0 1 5.174-10.866 25.76 25.76 0 0 1 20.73-9.504h38.12a8.154 8.154 0 0 1 8.256 5.23 9.11 9.11 0 0 1 .562 2.497c.068.866 0 1.676 0 2.508v4.927a8.217 8.217 0 0 0 1.766 4.342 7.662 7.662 0 0 0 3.836 2.564c1.525.301 3.083.4 4.634.293h61.066a7.308 7.308 0 0 0 3.138-1.125 8.082 8.082 0 0 0 3.622-5.118c.198-1.018.273-2.057.225-3.093v-2.913c-.038-.992.003-1.985.123-2.97a8.2 8.2 0 0 1 .923-2.733A8.064 8.064 0 0 1 286.532.79a12.214 12.214 0 0 1 5.039-.563l16.535.079h13.576-30.1a12.155 12.155 0 0 0-4.971.574 7.873 7.873 0 0 0-3.903 3.565 8.275 8.275 0 0 0-.889 2.666 19.453 19.453 0 0 0-.113 2.936v3.048c.052 1.05-.02 2.104-.213 3.138a8.354 8.354 0 0 1-3.712 5.275 7.618 7.618 0 0 1-3.251 1.125c-1.125.079-2.317 0-3.498 0h-59.896a8.507 8.507 0 0 1-2.384-.303 8.064 8.064 0 0 1-4.016-2.677 8.72 8.72 0 0 1-1.856-4.5c-.09-1.664 0-3.284 0-4.96V7.718a8.33 8.33 0 0 0-.551-2.395A7.76 7.76 0 0 0 194.456.34h-38.199a25.363 25.363 0 0 0-20.246 9.37 26.121 26.121 0 0 0-5.084 10.685c-.158.99-.338 1.98-.428 2.98a24.803 24.803 0 0 0-.112 3.049v406.93a27.599 27.599 0 0 0 1.024 8.436 25.346 25.346 0 0 0 9.785 13.633 25.967 25.967 0 0 0 16.197 4.499h164.21l1.969-.101c2.612-.197 5.177-.8 7.603-1.788a26.456 26.456 0 0 0 6.648-4.038 25.14 25.14 0 0 0 8.132-12.767c.33-1.237.57-2.496.72-3.768 0-1.282.158-2.553.135-3.847v-38.176c0-80.22.067-152.466.101-213.149.034-60.684.09-109.781.124-143.716V26.57a26.335 26.335 0 0 0-1.811-10.28 25.516 25.516 0 0 0-4.769-7.582 24.319 24.319 0 0 0-5.748-4.724A24.058 24.058 0 0 0 325.225.61a20.407 20.407 0 0 0-2.576-.237l-.888-.067Z" fill="#263238"/><path d="M310.276 296.781H157.123a6.49 6.49 0 0 0-6.49 6.49v23.239a6.49 6.49 0 0 0 6.49 6.49h153.153a6.49 6.49 0 0 0 6.49-6.49v-23.239a6.49 6.49 0 0 0-6.49-6.49Z" fill="#6D55F1"/><path d="M158.968 168.542v.608h-4.701v-6.648h4.566v.608h-3.869v2.362h3.442v.607h-3.442v2.463h4.004Zm.957-2.26h2.486v.596h-2.486v-.596Zm12.248-.023v2.891h-.675v-2.823c0-1.058-.529-1.609-1.428-1.609a1.626 1.626 0 0 0-1.257.518 1.622 1.622 0 0 0-.419 1.293v2.621h-.675v-2.823c0-1.058-.529-1.609-1.44-1.609a1.625 1.625 0 0 0-1.256.518c-.16.173-.28.377-.352.601a1.607 1.607 0 0 0-.068.692v2.621h-.675v-4.994h.641v.911a2.053 2.053 0 0 1 1.834-.956 1.804 1.804 0 0 1 1.777 1.057 2.246 2.246 0 0 1 1.98-1.057 1.898 1.898 0 0 1 1.521.592 1.899 1.899 0 0 1 .492 1.556Zm5.613-.202v3.093h-.641v-.776a1.877 1.877 0 0 1-1.721.832c-1.125 0-1.822-.596-1.822-1.462s.484-1.417 1.923-1.417h1.586v-.304c0-.855-.483-1.316-1.417-1.316a2.578 2.578 0 0 0-1.665.585l-.303-.506a3.19 3.19 0 0 1 2.036-.675 1.774 1.774 0 0 1 2.024 1.946Zm-.675 1.597v-.821h-1.563c-.967 0-1.282.382-1.282.9 0 .517.461.933 1.259.933a1.587 1.587 0 0 0 1.586-1.012Zm2.362-5.084a.49.49 0 0 1 .306-.457.491.491 0 0 1 .675.36.491.491 0 0 1-.211.508.501.501 0 0 1-.628-.058.477.477 0 0 1-.142-.353Zm.147 1.586h.686v4.994h-.686v-4.994Zm2.565-2.059h.674v7.053h-.674v-7.053Z" fill="#263238" fill-opacity=".4"/><path d="M156.932 230.305c0 1.418-1.023 2.25-2.722 2.25h-1.788v2.103h-.664v-6.659h2.486c1.665.023 2.688.889 2.688 2.306Zm-.697 0c0-1.057-.709-1.664-2.036-1.664h-1.777v3.374h1.777c1.327 0 2.059-.664 2.059-1.71h-.023Zm5.804 1.283v3.093h-.641v-.776a1.865 1.865 0 0 1-1.721.821c-1.125 0-1.833-.585-1.833-1.451 0-.866.495-1.417 1.934-1.417h1.586v-.304c0-.855-.483-1.316-1.417-1.316a2.578 2.578 0 0 0-1.665.585l-.303-.506a3.188 3.188 0 0 1 2.036-.675 1.76 1.76 0 0 1 .799.066 1.779 1.779 0 0 1 1.225 1.88Zm-.675 1.597v-.821h-1.563c-.979 0-1.294.382-1.294.888s.473.945 1.271.945a1.596 1.596 0 0 0 1.586-1.057v.045Zm1.822.922.304-.529c.517.373 1.14.57 1.777.563.945 0 1.338-.326 1.338-.821 0-1.305-3.239-.27-3.239-2.25 0-.821.697-1.428 1.968-1.428.625-.01 1.24.153 1.778.472l-.304.54a2.54 2.54 0 0 0-1.474-.427c-.899 0-1.293.348-1.293.821 0 1.349 3.239.337 3.239 2.249 0 .866-.765 1.417-2.069 1.417a3.259 3.259 0 0 1-2.025-.607Zm4.646 0 .303-.529c.517.373 1.14.57 1.777.563.957 0 1.339-.326 1.339-.821 0-1.305-3.239-.27-3.239-2.25 0-.821.708-1.428 1.979-1.428a3.374 3.374 0 0 1 1.766.472l-.292.54a2.59 2.59 0 0 0-1.474-.427c-.911 0-1.305.348-1.305.821 0 1.349 3.24.337 3.24 2.249 0 .866-.754 1.418-2.059 1.418a3.276 3.276 0 0 1-2.035-.608Zm12.586-4.42-1.89 4.994h-.641l-1.574-4.094-1.575 4.094h-.641l-1.879-4.994h.641l1.575 4.24 1.609-4.24h.573l1.597 4.24 1.586-4.24h.619Zm.371 2.497a2.558 2.558 0 0 1 1.569-2.367 2.555 2.555 0 0 1 3.345 3.33 2.551 2.551 0 0 1-2.36 1.579 2.472 2.472 0 0 1-1.83-.716 2.468 2.468 0 0 1-.724-1.826Zm4.41 0a1.869 1.869 0 0 0-3.704-.251 1.866 1.866 0 0 0 1.848 2.197c.253.005.504-.042.737-.14a1.81 1.81 0 0 0 1.014-1.063c.086-.238.122-.491.105-.743Zm4.578-2.542v.652h-.158a1.62 1.62 0 0 0-1.687 1.845v2.542h-.675v-4.994h.653v.978a1.855 1.855 0 0 1 1.867-1.023Zm5.736-2.014v7.053h-.652v-.99a2.16 2.16 0 0 1-1.923 1.035 2.542 2.542 0 1 1 0-5.084 2.244 2.244 0 0 1 1.9.99v-3.004h.675Zm-.663 4.556a1.871 1.871 0 0 0-2.282-1.742 1.872 1.872 0 0 0-1.422 1.491 1.874 1.874 0 0 0 .816 1.892c.307.201.665.307 1.032.305.253.005.504-.042.737-.14a1.81 1.81 0 0 0 1.014-1.063c.086-.238.122-.491.105-.743Z" fill="#000" fill-opacity=".4"/><path d="m212.002 317.736.664-1.473a4.937 4.937 0 0 0 2.778.877c1.125 0 1.62-.382 1.62-.9 0-1.575-4.893-.495-4.893-3.622 0-1.428 1.125-2.621 3.543-2.621a5.632 5.632 0 0 1 2.925.743l-.596 1.485a4.722 4.722 0 0 0-2.34-.664c-1.125 0-1.597.427-1.597.956 0 1.552 4.893.484 4.893 3.577 0 1.406-1.125 2.609-3.566 2.609a6.01 6.01 0 0 1-3.431-.967Zm7.976-7.592a1.123 1.123 0 0 1 1.124-1.046 1.044 1.044 0 0 1 1.125 1.001 1.164 1.164 0 0 1-2.328 0l.079.045Zm.225 1.946h1.878v6.467h-1.878v-6.467Zm10.951-.023v5.411c0 2.407-1.293 3.509-3.633 3.509a5.263 5.263 0 0 1-3.172-.889l.743-1.349c.653.478 1.44.737 2.249.742 1.328 0 1.901-.607 1.901-1.777v-.236a2.662 2.662 0 0 1-2.036.81 3.145 3.145 0 0 1-3.068-1.889 3.132 3.132 0 0 1 .729-3.529 3.145 3.145 0 0 1 2.339-.848 2.596 2.596 0 0 1 2.137.934v-.832l1.811-.057Zm-1.844 3.026a1.718 1.718 0 0 0-.977-1.659 1.707 1.707 0 0 0-2.398 1.176 1.707 1.707 0 0 0 1.676 2.08 1.585 1.585 0 0 0 1.575-.957 1.58 1.58 0 0 0 .124-.64Zm9.458-.236v3.7h-1.867v-3.374c0-1.058-.484-1.53-1.316-1.53-.832 0-1.552.551-1.552 1.744v3.194h-1.879v-6.468h1.8v.754a2.812 2.812 0 0 1 2.137-.855 2.54 2.54 0 0 1 2.005.788 2.525 2.525 0 0 1 .672 2.047Zm5.044-4.713a1.123 1.123 0 0 1 1.125-1.046 1.039 1.039 0 0 1 .775.261 1.05 1.05 0 0 1 .35.74 1.164 1.164 0 0 1-2.329 0l.079.045Zm.225 1.946h1.879v6.467h-1.924l.045-6.467Zm10.236 2.767v3.7h-1.868v-3.374c0-1.058-.483-1.53-1.316-1.53-.832 0-1.552.551-1.552 1.744v3.194h-1.878v-6.468h1.788v.754a2.862 2.862 0 0 1 2.148-.855 2.54 2.54 0 0 1 2.006.788 2.536 2.536 0 0 1 .672 2.047Z" fill="#fff"/><path d="M308.882 176.36H158.518a7.885 7.885 0 0 0-7.885 7.885v20.167a7.885 7.885 0 0 0 7.885 7.885h150.364a7.884 7.884 0 0 0 7.884-7.885v-20.167a7.884 7.884 0 0 0-7.884-7.885Z" fill="#EBEBEB"/><path d="M308.893 212.297h.248c.168 0 .427 0 .753-.067a7.613 7.613 0 0 0 2.767-.934 7.866 7.866 0 0 0 3.217-3.374 7.671 7.671 0 0 0 .765-2.913v-3.487c0-4.938 0-11.001-.09-17.997a7.806 7.806 0 0 0-2.25-4.713 7.68 7.68 0 0 0-5.072-2.25h-12.598l-138.126.09a7.629 7.629 0 0 0-7.266 5.366 17.809 17.809 0 0 0-.338 4.859v17.142c-.027.781.06 1.561.259 2.317a7.57 7.57 0 0 0 2.407 3.847 7.655 7.655 0 0 0 4.128 1.788c1.519.079 3.127 0 4.679 0h27.209l62.078.056 41.854.102h15.354-15.354l-41.854.089-62.078.068h-31.921a8.146 8.146 0 0 1-7.03-5.804 8.704 8.704 0 0 1-.27-2.463v-19.628c.002-.86.123-1.715.36-2.542a8.22 8.22 0 0 1 7.873-5.782l138.092.079h12.609a8.033 8.033 0 0 1 7.66 7.233c.067 7.052 0 13.07 0 17.996v3.499a7.923 7.923 0 0 1-.81 2.98 7.806 7.806 0 0 1-3.318 3.442 7.407 7.407 0 0 1-2.823.889 6.72 6.72 0 0 1-1.114.112Z" fill="#263238"/><path d="M308.882 241.216H158.518a7.885 7.885 0 0 0-7.885 7.885v20.167a7.885 7.885 0 0 0 7.885 7.885h150.364a7.884 7.884 0 0 0 7.884-7.885v-20.167a7.884 7.884 0 0 0-7.884-7.885Z" fill="#EBEBEB"/><path d="M308.893 277.153h.248c.252-.011.504-.038.753-.078a7.748 7.748 0 0 0 2.767-.923 7.946 7.946 0 0 0 3.217-3.374 7.671 7.671 0 0 0 .765-2.913v-3.499c0-4.926 0-11-.09-17.996a7.733 7.733 0 0 0-2.249-4.702 7.636 7.636 0 0 0-5.073-2.193h-12.598l-138.126.033a7.639 7.639 0 0 0-7.266 5.377 17.692 17.692 0 0 0-.337 4.848v17.142a7.87 7.87 0 0 0 .258 2.317 7.57 7.57 0 0 0 2.407 3.847 7.655 7.655 0 0 0 4.128 1.788c1.519.09 3.127 0 4.68 0h27.209l62.077.068 41.854.09 11.383.056h3.971-3.971l-11.383.056-41.854.101-62.077.057h-27.187c-1.575 0-3.104.056-4.735 0a8.146 8.146 0 0 1-7.03-5.872 8.7 8.7 0 0 1-.27-2.463v-19.662a9.382 9.382 0 0 1 .36-2.553 8.225 8.225 0 0 1 7.873-5.782l138.092.079 12.542.011a7.988 7.988 0 0 1 5.309 2.318 8.092 8.092 0 0 1 2.351 4.915c.067 7.052 0 13.07 0 17.997v3.509a7.976 7.976 0 0 1-4.128 6.423 7.553 7.553 0 0 1-2.824.877 6.664 6.664 0 0 1-1.046.101Z" fill="#263238"/><path d="M310.276 409.52s.349 0 1.013-.113a6.516 6.516 0 0 0 2.699-1.124 6.395 6.395 0 0 0 2.554-3.926c.14-1.013.181-2.038.123-3.059v-3.532c0-4.983 0-11.068-.056-18.132a6.337 6.337 0 0 0-2.25-4.668 6.153 6.153 0 0 0-2.474-1.26 10.63 10.63 0 0 0-2.891-.202h-12.71l-139.127.079a6.24 6.24 0 0 0-4.364 1.799 6.14 6.14 0 0 0-1.834 4.331v22.282c-.037.787.012 1.575.147 2.351a6.17 6.17 0 0 0 2.497 3.745 6.258 6.258 0 0 0 2.069.945 9.07 9.07 0 0 0 2.306.191h32.158l62.551.068 42.168.09 11.462.056h3.993-3.993l-11.462.056-42.202.237-62.55.067h-32.159a9.09 9.09 0 0 1-2.44-.202 6.516 6.516 0 0 1-2.25-1.024 6.749 6.749 0 0 1-2.733-4.094 10.976 10.976 0 0 1-.158-2.475v-22.293a6.746 6.746 0 0 1 6.749-6.749l139.127.09h12.71c.999-.066 2.003.01 2.981.225.96.243 1.852.701 2.609 1.338a6.759 6.759 0 0 1 2.362 4.927v21.675c.05 1.033.001 2.069-.146 3.093a6.581 6.581 0 0 1-2.666 3.993 6.476 6.476 0 0 1-2.755 1.125 5.076 5.076 0 0 1-1.058.09Z" fill="#E0E0E0"/><path d="M270.661 391.411c0 .157-16.816.292-37.557.292-20.741 0-37.546-.135-37.546-.292 0-.158 16.805-.293 37.546-.293s37.557.135 37.557.293Z" fill="#E0E0E0"/><path d="M249.906 82.423c5.499-5.5 5.499-14.416 0-19.916-5.5-5.5-14.416-5.5-19.916 0-5.499 5.5-5.499 14.416 0 19.916 5.5 5.5 14.416 5.5 19.916 0Z" fill="#F5F5F5"/><path d="M249.053 83.147a8.998 8.998 0 0 0-9.099-7.997 9.244 9.244 0 0 0-9.1 8.031 12.468 12.468 0 0 0 9.1 3.375 12.9 12.9 0 0 0 9.099-3.409Z" fill="#E0E0E0"/><path d="M239.954 76.118a5.523 5.523 0 1 0 0-11.047 5.523 5.523 0 0 0 0 11.047Z" fill="#E0E0E0"/><path d="M248.986 82.664a11.113 11.113 0 0 0-.855-2.598 8.744 8.744 0 0 0-1.991-2.453 10.926 10.926 0 0 0-3.599-2.013l-.281-.101.258-.135a5.486 5.486 0 0 0 2.194-2.25 5.385 5.385 0 0 0-1.125-6.557 5.331 5.331 0 0 0-7.154 0 5.233 5.233 0 0 0-1.732 3.194 5.327 5.327 0 0 0 .562 3.375c.255.474.581.907.968 1.282a6.33 6.33 0 0 0 1.215.933l.247.158-.281.079a8.442 8.442 0 0 0-3.6 1.99 8.932 8.932 0 0 0-1.878 2.543 9.751 9.751 0 0 0-.742 1.9c-.054.17-.099.343-.135.518a.81.81 0 0 1-.057.18v-.191c0-.124 0-.293.102-.529.161-.67.391-1.323.686-1.946a9.222 9.222 0 0 1 1.878-2.632 8.49 8.49 0 0 1 3.667-2.08v.224a7.024 7.024 0 0 1-1.271-.945 6.084 6.084 0 0 1-1.023-1.35 5.7 5.7 0 0 1-.619-3.531 5.622 5.622 0 0 1 1.822-3.375 5.738 5.738 0 0 1 3.791-1.45 5.623 5.623 0 0 1 4.96 8.39 5.754 5.754 0 0 1-2.328 2.25v-.236a11.15 11.15 0 0 1 3.667 2.103 8.704 8.704 0 0 1 1.979 2.542c.18.361.327.738.439 1.125.098.273.166.556.202.843l.079.54c-.034.147-.034.203-.045.203Z" fill="#263238"/><path d="M254.036 72.462a.607.607 0 0 1 0-.225v-1.159c0-.18-.056-.382-.09-.596a9.839 9.839 0 0 0-.304-1.45 13.551 13.551 0 0 0-1.563-3.724 13.952 13.952 0 0 0-3.566-3.96 13.8 13.8 0 0 0-5.995-2.552 14.027 14.027 0 0 0-9.156 1.417c-.592.334-1.159.71-1.698 1.125a14.88 14.88 0 0 0-1.586 1.35 14.846 14.846 0 0 0-3.375 5.455 14.014 14.014 0 0 0 0 8.796 13.924 13.924 0 0 0 1.991 3.847c.421.566.88 1.103 1.373 1.608a16.107 16.107 0 0 0 3.284 2.474c.589.306 1.198.573 1.822.8a14.15 14.15 0 0 0 7.334.618 14.104 14.104 0 0 0 9.448-6.57 13.585 13.585 0 0 0 1.564-3.722c.137-.476.239-.96.303-1.451 0-.214.068-.405.09-.585.023-.18 0-.349 0-.495v-.675a.653.653 0 0 1 0-.225v1.395c0 .18 0 .382-.078.596a9.306 9.306 0 0 1-.27 1.462 13.102 13.102 0 0 1-1.541 3.79 13.768 13.768 0 0 1-3.577 4.05 14.09 14.09 0 0 1-5.973 2.688 14.354 14.354 0 0 1-7.48-.607 15.004 15.004 0 0 1-1.856-.81 15.326 15.326 0 0 1-1.754-1.125 18.56 18.56 0 0 1-1.609-1.372 16.578 16.578 0 0 1-1.406-1.653 14.024 14.024 0 0 1-2.036-3.926c-.99-2.918-.99-6.08 0-8.998a14.023 14.023 0 0 1 2.036-3.926c.432-.578.902-1.126 1.406-1.642a14.323 14.323 0 0 1 1.71-1.44 13.08 13.08 0 0 1 1.743-1.125c.6-.311 1.22-.582 1.856-.81a14.174 14.174 0 0 1 17.075 6.13 13.102 13.102 0 0 1 1.541 3.791c.129.48.219.969.27 1.462 0 .214.067.417.078.597.012.18 0 .348 0 .495v.9l-.011-.023Z" fill="#263238"/><path d="M326.957 131.03c0 .169-39.559.293-88.342.293-48.782 0-88.353-.124-88.353-.293 0-.168 39.548-.292 88.353-.292 48.805 0 88.342.135 88.342.292Zm0 222.295c0 .157-39.559.292-88.342.292-48.782 0-88.353-.135-88.353-.292 0-.158 39.548-.293 88.353-.293 48.805 0 88.342.135 88.342.293Z" fill="#E0E0E0"/><path d="m167.337 258.605 2.508 1.418-.652 1.124-2.565-1.507v2.88h-1.271v-2.88l-2.553 1.507-.664-1.124 2.542-1.418-2.542-1.394.664-1.125 2.553 1.496v-2.857h1.271v2.857l2.565-1.496.652 1.125-2.508 1.394Zm8.886 0 2.531 1.418-.664 1.124-2.553-1.507v2.88h-1.282v-2.88l-2.565 1.507-.652-1.124 2.53-1.418-2.53-1.394.652-1.125 2.565 1.496v-2.857h1.271v2.857l2.553-1.496.663 1.125-2.519 1.394Zm8.886 0 2.519 1.418-.652 1.124-2.598-1.462v2.88h-1.271v-2.88l-2.565 1.507-.652-1.124 2.542-1.418-2.542-1.394.652-1.125 2.565 1.496v-2.857h1.271v2.857l2.564-1.496.653 1.125-2.486 1.349Zm8.885 0 2.52 1.418-.652 1.124-2.565-1.507v2.88h-1.271v-2.88l-2.553 1.507-.664-1.124 2.542-1.418-2.474-1.394.663-1.125 2.554 1.496v-2.857h1.282v2.857l2.564-1.496.653 1.125-2.599 1.394Zm-26.151-64.316v2.857h-.675v-2.834a1.414 1.414 0 0 0-.37-1.161 1.406 1.406 0 0 0-1.137-.437 1.647 1.647 0 0 0-1.664 1.106 1.638 1.638 0 0 0-.08.705v2.621h-.675v-4.949h.641v.922a2.105 2.105 0 0 1 1.901-.967 1.918 1.918 0 0 1 1.533.583 1.933 1.933 0 0 1 .526 1.554Zm5.613-.191v3.048h-.653v-.776a1.865 1.865 0 0 1-1.721.832c-1.124 0-1.822-.596-1.822-1.462s.495-1.417 1.924-1.417h1.597v-.304c0-.855-.484-1.316-1.417-1.316a2.534 2.534 0 0 0-1.665.585l-.304-.506a3.152 3.152 0 0 1 2.036-.675c.272-.041.55-.018.812.068a1.788 1.788 0 0 1 1.132 1.112c.089.26.117.538.081.811Zm-.675 1.597v-.798h-1.575c-.967 0-1.282.382-1.282.888s.461.945 1.26.945a1.611 1.611 0 0 0 1.597-1.035Zm10.764-1.406v2.857h-.675v-2.834c0-1.046-.54-1.598-1.44-1.598a1.614 1.614 0 0 0-1.608 1.119 1.622 1.622 0 0 0-.067.692v2.621h-.675v-2.834c0-1.046-.529-1.598-1.44-1.598a1.626 1.626 0 0 0-1.608 1.119 1.607 1.607 0 0 0-.068.692v2.621h-.675v-4.949h.641v.911a2.043 2.043 0 0 1 1.834-.956 1.82 1.82 0 0 1 1.788 1.057c.202-.337.492-.613.839-.799a2.167 2.167 0 0 1 1.129-.258 1.89 1.89 0 0 1 2.025 2.137Zm6.209.608h-4.184a1.824 1.824 0 0 0 .62 1.28 1.84 1.84 0 0 0 1.349.452 1.973 1.973 0 0 0 1.529-.653l.383.439a2.645 2.645 0 0 1-3.997-.322 2.643 2.643 0 0 1-.502-1.41 2.414 2.414 0 0 1 .667-1.803 2.407 2.407 0 0 1 1.773-.739 2.377 2.377 0 0 1 2.282 1.573c.112.31.159.64.137.969l-.057.214Zm-4.184-.507h3.543a1.775 1.775 0 0 0-2.977-1.164 1.78 1.78 0 0 0-.566 1.164Zm13.958.282c0 1.619-.596 2.575-1.574 2.575a1 1 0 0 1-.413-.063 1.001 1.001 0 0 1-.584-.571 1.002 1.002 0 0 1-.072-.412 2.113 2.113 0 0 1-1.901 1.046 2.461 2.461 0 0 1-1.633-4.139 2.458 2.458 0 0 1 1.633-.776 2.127 2.127 0 0 1 1.878 1.001v-.956h.619v3.644c0 .529.27.72.585.72.596 0 .979-.731.979-2.013a3.615 3.615 0 0 0-1.129-2.73 3.62 3.62 0 0 0-2.786-.982 3.831 3.831 0 0 0-2.837 1.042 3.832 3.832 0 0 0-1.194 2.777 3.83 3.83 0 0 0 1.194 2.776 3.813 3.813 0 0 0 2.837 1.042 4.255 4.255 0 0 0 1.822-.416l.158.461a4.504 4.504 0 0 1-1.98.439 4.308 4.308 0 0 1 0-8.616 4.107 4.107 0 0 1 3.107 1.113 4.115 4.115 0 0 1 1.291 3.038Zm-2.654.112a1.813 1.813 0 0 0-2.216-1.674 1.805 1.805 0 0 0-1.375 1.443 1.81 1.81 0 0 0 1.78 2.132 1.777 1.777 0 0 0 1.811-1.901Zm12.339-.495v2.857h-.675v-2.834c0-1.046-.528-1.598-1.44-1.598a1.62 1.62 0 0 0-1.253.519 1.592 1.592 0 0 0-.348.601 1.586 1.586 0 0 0-.063.691v2.621h-.675v-2.834c0-1.046-.54-1.598-1.451-1.598a1.626 1.626 0 0 0-1.609 1.119 1.622 1.622 0 0 0-.067.692v2.621h-.675v-4.949h.652v.911a2.041 2.041 0 0 1 1.834-.956 1.798 1.798 0 0 1 1.777 1.057 2.254 2.254 0 0 1 1.98-1.057 1.885 1.885 0 0 1 1.516.589 1.89 1.89 0 0 1 .497 1.548Zm5.613-.191v3.048h-.652v-.776a1.868 1.868 0 0 1-1.721.832c-1.125 0-1.823-.596-1.823-1.462s.495-1.417 1.935-1.417h1.586v-.304c0-.855-.484-1.316-1.417-1.316a2.534 2.534 0 0 0-1.665.585l-.304-.506a3.197 3.197 0 0 1 2.036-.675c.273-.041.551-.018.812.068a1.788 1.788 0 0 1 1.132 1.112c.089.26.117.538.081.811Zm-.675 1.597v-.798h-1.575c-.967 0-1.282.382-1.282.888s.472.945 1.271.945a1.61 1.61 0 0 0 1.586-1.035Zm2.362-5.084a.495.495 0 0 1 .309-.44.474.474 0 0 1 .186-.032.463.463 0 0 1 .206.013.47.47 0 0 1 .307.263.483.483 0 0 1-.513.68.485.485 0 0 1-.495-.484Zm.146 1.586h.675v4.949h-.675v-4.949Zm2.587-2.058h.675v7.007h-.675v-7.007Zm2.093 6.58a.507.507 0 0 1 .506-.518.52.52 0 0 1 .36.884.53.53 0 0 1-.36.162.513.513 0 0 1-.506-.528Zm1.811-2.025a2.467 2.467 0 0 1 1.58-2.381c.317-.122.656-.177.996-.161a2.25 2.25 0 0 1 1.957.99l-.506.349a1.683 1.683 0 0 0-1.451-.743 1.944 1.944 0 0 0-1.376 3.322c.365.365.859.57 1.376.57a1.677 1.677 0 0 0 1.451-.731l.506.349a2.248 2.248 0 0 1-1.957.989 2.474 2.474 0 0 1-2.576-2.553Zm5.264 0a2.536 2.536 0 0 1 1.577-2.34 2.534 2.534 0 0 1 2.766.558 2.537 2.537 0 0 1 .546 2.769 2.535 2.535 0 0 1-2.347 1.566 2.453 2.453 0 0 1-1.826-.724 2.444 2.444 0 0 1-.548-.84 2.438 2.438 0 0 1-.168-.989Zm4.398 0a1.852 1.852 0 0 0-1.206-1.649 1.857 1.857 0 0 0-2.355 2.469 1.86 1.86 0 0 0 1.705 1.126 1.818 1.818 0 0 0 1.752-1.202 1.83 1.83 0 0 0 .104-.744Zm10.325-.405v2.857h-.674v-2.834c0-1.046-.54-1.598-1.44-1.598a1.626 1.626 0 0 0-1.609 1.119 1.622 1.622 0 0 0-.067.692v2.621h-.675v-2.834c0-1.046-.529-1.598-1.44-1.598a1.614 1.614 0 0 0-1.608 1.119 1.607 1.607 0 0 0-.068.692v2.621h-.675v-4.949h.641v.911a2.046 2.046 0 0 1 1.834-.956 1.824 1.824 0 0 1 1.788 1.057 2.184 2.184 0 0 1 1.969-1.057 1.887 1.887 0 0 1 2.024 2.137Z" fill="#fff"/><path d="M157.258 46.187a.507.507 0 0 1-.36-.147l-5.286-4.634a.547.547 0 0 1-.145-.654.546.546 0 0 1 .145-.19l5.286-4.386a.545.545 0 0 1 .61-.07.549.549 0 0 1 .167.137.557.557 0 0 1 .071.618.563.563 0 0 1-.139.17L152.883 41l4.792 4.207a.547.547 0 0 1 .194.382.555.555 0 0 1-.352.555.589.589 0 0 1-.259.042Zm153.412-5.073a2.824 2.824 0 1 1-5.648.002 2.824 2.824 0 0 1 5.648-.002Zm8.144 0a2.821 2.821 0 0 1-3.37 2.77 2.828 2.828 0 0 1-2.221-2.213 2.825 2.825 0 0 1 4.76-2.558 2.836 2.836 0 0 1 .831 2Zm8.144 0a2.821 2.821 0 0 1-3.379 2.768 2.821 2.821 0 0 1-2.05-3.856 2.826 2.826 0 0 1 4.606-.905c.527.53.823 1.246.823 1.993Z" fill="#263238"/><path d="M462.743 144.067h-67.342a10.614 10.614 0 0 0-10.618 10.618v16.759a10.621 10.621 0 0 0 10.618 10.619h.698v9.572l10.787-9.572h55.857a10.619 10.619 0 0 0 10.618-10.619v-16.759a10.614 10.614 0 0 0-10.618-10.618Z" fill="#fff"/><path d="M462.744 144.067h.585a9.74 9.74 0 0 1 1.552.146c.337.067.72.169 1.125.27.445.142.88.311 1.305.506a10.494 10.494 0 0 1 2.902 1.957 10.915 10.915 0 0 1 2.508 3.6c.648 1.636.936 3.393.843 5.151v16.422a10.846 10.846 0 0 1-6.748 9.381 11.415 11.415 0 0 1-4.275.799h-55.632l.191-.079-10.776 9.583-.495.428v-10.225l.293.293a11.43 11.43 0 0 1-6.04-1.406 11.125 11.125 0 0 1-4.286-4.376 11.946 11.946 0 0 1-1.046-2.879 14.333 14.333 0 0 1-.236-3.003v-14.432c0-.933 0-1.867.079-2.823a10.937 10.937 0 0 1 6.276-8.638 11.431 11.431 0 0 1 5.219-1.001h32.271l25.184.09h9.201-9.201l-25.184.101h-32.282a10.759 10.759 0 0 0-4.994.956 10.357 10.357 0 0 0-5.95 8.211c-.074.92-.096 1.844-.068 2.767v14.431c-.027.969.048 1.938.225 2.891.217.946.554 1.86 1.001 2.722a10.483 10.483 0 0 0 4.061 4.139 10.863 10.863 0 0 0 5.747 1.327h.293v9.876l-.495-.214 10.787-9.572.078-.078h51.303c3.003-.09 5.995.371 8.548-.743a10.39 10.39 0 0 0 6.502-8.998c.067-1.215 0-2.452 0-3.633v-12.767a12.117 12.117 0 0 0-.777-5.061 10.684 10.684 0 0 0-2.418-3.543 10.247 10.247 0 0 0-2.823-1.958 12.167 12.167 0 0 0-1.271-.517l-1.125-.292c-.655.031-1.308.095-1.957.191Z" fill="#263238"/><path d="m405.536 162.401 2.16 1.125-1.227 2.025-2.249-1.328.067 2.43h-2.407l.057-2.43-2.25 1.328-1.204-2.025 2.149-1.125-2.149-1.181 1.204-2.036 2.25 1.361-.057-2.463h2.407l-.067 2.463 2.249-1.361 1.227 2.036-2.16 1.181Zm10.011 0 2.16 1.125-1.226 2.025-2.25-1.328.068 2.43h-2.407v-2.43l-2.25 1.328-1.204-2.025 2.149-1.125-2.149-1.181 1.204-2.036 2.25 1.361v-2.463h2.407l-.068 2.463 2.25-1.361 1.226 2.036-2.16 1.181Zm10.01 0 2.16 1.125-1.226 2.025-2.25-1.328.057 2.43h-2.407l.056-2.43-2.25 1.328-1.203-2.025 2.148-1.125-2.148-1.181 1.203-2.036 2.25 1.361-.056-2.463h2.407l-.057 2.463 2.25-1.361 1.226 2.036-2.16 1.181Zm10.011 0 2.16 1.125-1.226 2.025-2.25-1.328.056 2.43h-2.407l.057-2.43-2.25 1.328-1.204-2.025 2.16-1.125-2.16-1.181 1.204-2.036 2.25 1.361-.057-2.463h2.407l-.056 2.463 2.25-1.361 1.226 2.036-2.16 1.181Zm10.011 0 2.159 1.125-1.226 2.025-2.249-1.328.056 2.43h-2.362l.056-2.43-2.249 1.328-1.204-2.025 2.16-1.125-2.137-1.181 1.203-2.036 2.25 1.361-.057-2.463h2.408l-.057 2.463 2.25-1.361 1.226 2.036-2.227 1.181Zm10.011 0 2.16 1.125-1.17 2.126-2.25-1.328v2.43h-2.407l.056-2.43-2.148 1.328-1.204-2.025 2.16-1.125-2.16-1.181 1.204-2.036 2.25 1.361-.057-2.463h2.306v2.463l2.25-1.361 1.226 2.036-2.216 1.08Z" fill="#E0E0E0"/><path d="M22.519 205.728c13.272 6.873 23.44 18.706 30.752 31.731 7.31 13.025 12.035 27.321 16.703 41.516l4.083 73.191c-15.432-26.253-27.828-57.162-31.168-87.408l10.27-.911c-6.885-1.057-12.666-6.04-16.344-11.957-3.678-5.916-5.624-12.744-7.424-19.459l12.53 1.834a46.447 46.447 0 0 1-19.402-28.537Z" fill="#455A64"/><path d="M22.519 205.728c13.272 6.873 23.44 18.706 30.752 31.731 7.31 13.025 12.035 27.321 16.703 41.516l4.083 73.191c-15.432-26.253-27.828-57.162-31.168-87.408l10.27-.911c-6.885-1.057-12.666-6.04-16.344-11.957-3.678-5.916-5.624-12.744-7.424-19.459l12.53 1.834a46.447 46.447 0 0 1-19.402-28.537Z" fill="#000" opacity=".3"/><path d="M76.396 369.32s33.508-40.1 33.126-78.388H96.024s14.701-9.673 13.498-15.083c-1.204-5.411-1.552-25.871-1.552-25.871l-12.373 3.093s9.279-4.645 10.438-11.99c1.158-7.345-2.7-41.382-2.7-41.382s-15.083 15.86-19.729 32.102c-4.645 16.242-16.872 35.184-13.238 84.687C74 365.99 76.396 369.32 76.396 369.32Zm-17.04 3.79s-36.298-24.183-44.362-55.048l10.876-2.969s-13.925-4.556-14.183-9.156c-.259-4.6-4.42-21.169-4.42-21.169l10.629-.225s-8.481-1.698-11.023-7.356C4.33 271.529 0 243.331 0 243.331s15.59 9.448 22.878 21.494c7.29 12.047 21.225 24.611 29.178 65.183 7.952 40.571 7.3 43.102 7.3 43.102Z" fill="#455A64"/><path d="M94.123 234.636a2.438 2.438 0 0 1-.056.427l-.236 1.249c-.225 1.125-.54 2.733-.957 4.78a458.103 458.103 0 0 0-1.484 7.57c-.551 2.958-1.226 6.31-1.879 10.033-1.383 7.446-2.857 16.332-4.375 26.231-1.519 9.898-2.97 20.786-4.32 32.259-1.35 11.473-2.339 22.429-3.16 32.405a744.933 744.933 0 0 0-1.721 26.535c-.214 3.779-.337 7.198-.461 10.202a559.1 559.1 0 0 0-.27 7.704c-.056 2.081-.135 3.723-.169 4.871 0 .54 0 .956-.056 1.271.012.142.012.285 0 .427a2.495 2.495 0 0 1 0-.427v-6.142c0-2.092.079-4.713.18-7.716.101-3.003.18-6.434.371-10.213.304-7.57.855-16.568 1.597-26.557.743-9.988 1.811-20.943 3.127-32.428 1.316-11.484 2.846-22.383 4.353-32.281a691.561 691.561 0 0 1 4.5-26.208c.674-3.735 1.372-7.086 1.968-10.033a408.149 408.149 0 0 1 1.586-7.548c.461-2.069.81-3.644 1.057-4.758l.293-1.237c.025-.142.062-.281.112-.416Z" fill="#263238"/><path d="M80.997 393.874s30.662-34.79 40.178-55.813l-7.187-3.07c5.207.854 10.55-1.384 14.622-4.781 4.072-3.397 7.007-7.873 9.909-12.283l-9.493-1.552a35.23 35.23 0 0 0 20.685-16.028c-11.18 1.844-21.281 7.975-29.616 15.646a147.955 147.955 0 0 0-17.94 20.741 70.477 70.477 0 0 0-6.963 11.462c-5.151 10.652-14.217 32.911-14.195 45.678Z" fill="#455A64"/><path d="M14.532 263.577c.077.103.145.212.203.326.123.259.303.574.517.99.473.9 1.125 2.182 1.969 3.813 1.71 3.307 4.105 8.132 6.973 14.15a711.816 711.816 0 0 1 9.696 21.281c3.52 8.065 7.21 17.03 10.888 26.501 3.678 9.47 6.918 18.604 9.775 26.939a600.094 600.094 0 0 1 7.142 22.271 690.327 690.327 0 0 1 4.364 15.162l1.125 4.139.281 1.125a1.6 1.6 0 0 1 .068.371 1.126 1.126 0 0 1-.124-.36c-.09-.258-.202-.618-.337-1.057-.282-.979-.686-2.362-1.204-4.117-1.035-3.577-2.576-8.739-4.499-15.095-1.923-6.355-4.42-13.891-7.266-22.226-2.846-8.334-6.153-17.412-9.809-26.894-3.655-9.482-7.367-18.413-10.831-26.5a731.385 731.385 0 0 0-9.584-21.371 1256.418 1256.418 0 0 0-6.748-14.218l-1.868-3.858c-.202-.427-.36-.753-.472-1.012-.1-.11-.186-.231-.259-.36Zm63.855 145.212a3.181 3.181 0 0 1 0-.653c0-.494.113-1.124.18-1.867a48.11 48.11 0 0 1 .383-2.935c.18-1.136.349-2.453.63-3.881.495-2.868 1.248-6.254 2.25-9.977 1-3.723 2.249-7.75 3.824-11.912a131.942 131.942 0 0 1 5.005-11.484c1.698-3.453 3.374-6.479 4.927-8.998.73-1.26 1.462-2.351 2.092-3.375.63-1.023 1.125-1.788 1.653-2.452.529-.663.799-1.125 1.125-1.518.117-.189.257-.363.416-.518a3.468 3.468 0 0 1-.315.585l-1 1.575c-.45.686-.98 1.518-1.576 2.508-.596.99-1.304 2.092-2.013 3.375-1.462 2.497-3.104 5.545-4.792 8.998a134.33 134.33 0 0 0-4.938 11.451c-1.563 4.139-2.823 8.166-3.858 11.855a124.291 124.291 0 0 0-2.34 9.909c-.303 1.418-.505 2.711-.708 3.847a118.46 118.46 0 0 0-.483 2.925c-.124.81-.214 1.361-.293 1.844a2.969 2.969 0 0 1-.169.698Z" fill="#263238"/><path d="M105.034 400.6H37.929v13.689h67.105V400.6Z" fill="#6D55F1"/><path d="m98.645 414.289-7.255 46.049H50.84l-6.77-46.049h54.575Z" fill="#6D55F1"/><path d="M42.045 414.289c0-.157 12.699-.292 28.356-.292 15.657 0 28.356.135 28.356.292 0 .158-12.699.292-28.356.292-15.657 0-28.356-.123-28.356-.292Zm334.876-5.23s80.659-42.023 98.15-18.841c17.49 23.182-17.558 41.393-24.33 45.487-6.771 4.095-75.283 27.367-75.283 27.367l-18.075-19.291 19.538-34.722Z" fill="#263238"/><path d="m408.73 431.544 32.158 17.31 29.391 6.367a3.741 3.741 0 0 1 2.417 1.745 3.766 3.766 0 0 1 .384 2.956 3.68 3.68 0 0 1-2.351 2.486c-7.3 2.542-34.171 11.754-36.454 10.36-2.644-1.62-35.139-16.018-35.139-16.018l9.594-25.206Z" fill="#6D55F1"/><path d="m473.081 459.922-40.999 11.676 1.372.708a5.624 5.624 0 0 0 3.869.462c3.476-.822 13.037-3.375 33.35-10.304a3.735 3.735 0 0 0 2.408-2.587v.045Zm-48.097-.303a2.248 2.248 0 0 1 2.913.787 2.182 2.182 0 0 1-.753 2.902 2.397 2.397 0 0 1-3.082-.855 2.247 2.247 0 0 1 1.125-2.924" fill="#fff" opacity=".6"/><path d="M455.072 460.114c.18-.135-1.125-1.744-1.125-4.14s1.372-3.97 1.192-4.117c-.18-.146-.528.214-1.023.923a5.86 5.86 0 0 0-.967 3.183 5.799 5.799 0 0 0 .877 3.206c.517.72.978 1.012 1.046.945Zm5.534-.102c.225-.078-.304-1.664.068-3.588.371-1.923 1.394-3.228 1.214-3.374-.18-.146-1.608 1.035-2.002 3.239-.394 2.205.551 3.858.72 3.723Zm-13.317 1.575c.225-.079-.596-2.508-.27-5.556.326-3.049 1.552-5.287 1.338-5.4-.213-.112-1.833 2.048-2.137 5.321-.303 3.273.9 5.748 1.069 5.635Zm-10.214-4.454c.236 0 .394-2.16 1.507-4.5 1.114-2.339 2.61-3.948 2.453-4.128-.158-.18-2.025 1.215-3.184 3.791-1.158 2.576-.99 4.87-.776 4.837Zm-9.572-4.837c.236 0 .079-2.373 1.451-4.78s3.374-3.566 3.273-3.768c-.101-.203-.63.067-1.44.596a7.95 7.95 0 0 0-2.542 2.778 8.08 8.08 0 0 0-1.012 3.633c-.011.968.169 1.552.27 1.541Zm-.405-5.646s-.371-.338-1.203-.675a9.576 9.576 0 0 0-3.723-.664 4.295 4.295 0 0 0-2.644.697 1.543 1.543 0 0 0-.472 1.665c.237.558.669 1.01 1.215 1.271a5.283 5.283 0 0 0 6.456-1.912 6.122 6.122 0 0 0-.124-6.828 2.124 2.124 0 0 0-.665-.618 2.121 2.121 0 0 0-.864-.281 1.483 1.483 0 0 0-1.395 1.023 5.215 5.215 0 0 0 0 2.711 10.57 10.57 0 0 0 1.395 3.509c.483.754.832 1.125.877 1.125a16.914 16.914 0 0 1-1.71-4.69 4.818 4.818 0 0 1 0-2.362.779.779 0 0 1 .754-.563 1.452 1.452 0 0 1 .979.653 5.451 5.451 0 0 1 0 5.916 4.598 4.598 0 0 1-2.431 1.802 4.597 4.597 0 0 1-3.025-.103 1.813 1.813 0 0 1-.888-.844.817.817 0 0 1 .247-.922 3.857 3.857 0 0 1 2.25-.642 14.13 14.13 0 0 1 4.971.732Zm-6.839-10.99s-76.003-46.049-86.272-51.741c-8.83-4.915-36.725-15.747-46.556 10.967-9.83 26.714 43.103 66.184 43.103 66.184l44.924 2.013 14.994-5.725 17.029 5.241 12.778-26.939Z" fill="#263238"/><path d="m366.82 464.005-34.07 13.217-23.936 18.188a3.741 3.741 0 0 1-4.319.154 3.732 3.732 0 0 1-1.08-1.077 3.728 3.728 0 0 1-.36-3.374c2.812-7.187 13.295-33.598 15.837-34.419 2.947-.956 35.015-16.276 35.015-16.276l12.913 23.587Z" fill="#6D55F1"/><path d="m303.415 494.431 17.761-38.772-1.429.585a5.622 5.622 0 0 0-2.868 2.632c-1.631 3.183-5.95 12.081-13.869 32.046a3.762 3.762 0 0 0 .405 3.509Zm31.506-36.331a2.254 2.254 0 0 1-2.497 1.699 2.172 2.172 0 0 1-1.71-2.452 2.396 2.396 0 0 1 2.655-1.789 2.254 2.254 0 0 1 1.496 2.756" fill="#fff" opacity=".6"/><path d="M314.978 480.596c0 .236 2.07.259 3.847 1.879 1.777 1.619 2.126 3.621 2.351 3.576.225-.045.18-.539 0-1.372a5.956 5.956 0 0 0-4.792-4.218c-.889-.09-1.406.068-1.406.135Zm-3.498 4.297c-.079.225 1.462.855 2.677 2.396s1.563 3.149 1.788 3.115c.225-.033.259-1.889-1.124-3.621-1.384-1.733-3.341-2.104-3.341-1.89Zm7.446-11.136c-.09.225 2.249 1.181 4.398 3.375 2.148 2.193 3.003 4.611 3.228 4.499.225-.113-.36-2.722-2.655-5.084-2.294-2.362-4.949-2.992-4.971-2.79Zm10.022-4.87c-.168.169 1.384 1.71 2.475 4.105 1.091 2.396 1.305 4.556 1.541 4.5.236-.057.382-2.329-.81-4.882-1.192-2.553-3.093-3.903-3.206-3.723Zm9.898-4.117c-.146.18 1.755 1.586 2.7 4.207.945 2.621.484 4.893.72 4.938.236.045.36-.518.495-1.485a7.882 7.882 0 0 0-.473-3.734 8.016 8.016 0 0 0-2.092-3.138c-.731-.642-1.293-.878-1.35-.788Zm4.556 3.363a3.03 3.03 0 0 0 1.293-.483 9.515 9.515 0 0 0 2.925-2.396 4.208 4.208 0 0 0 1.181-2.463 1.488 1.488 0 0 0-.956-1.44 2.437 2.437 0 0 0-1.744.101 5.295 5.295 0 0 0-2.755 6.153 6.142 6.142 0 0 0 5.275 4.341 2.125 2.125 0 0 0 1.676-.584 1.49 1.49 0 0 0 .124-1.721 5.1 5.1 0 0 0-2.07-1.744 10.917 10.917 0 0 0-3.577-1.226 3.391 3.391 0 0 0-1.383 0c1.636.351 3.212.938 4.679 1.744a4.861 4.861 0 0 1 1.766 1.574c.093.141.138.31.126.479a.77.77 0 0 1-.194.455 1.448 1.448 0 0 1-1.125.326 5.49 5.49 0 0 1-4.499-3.824 4.597 4.597 0 0 1 2.25-5.253 1.737 1.737 0 0 1 1.215-.124.81.81 0 0 1 .54.788 3.833 3.833 0 0 1-.957 2.103 14.113 14.113 0 0 1-3.79 3.194Z" fill="#263238"/><path d="M351.973 472.509c.956-.495 39.435-16.164 39.435-16.164l-38.243-18.941-23.014 11.934 21.822 23.171Z" fill="#263238"/><path d="m304.45 426.201.529.157 1.518.506 5.816 2.014 21.371 7.502 70.469 24.87 3.374 1.046-.349.157 12.834-26.849.113.349-44.329-27.108-12.755-7.874-3.374-2.114-.866-.563c-.192-.123-.293-.191-.282-.202l.304.169.9.517 3.431 2.036 12.845 7.727 44.429 26.928.214.135-.101.225-12.8 26.883-.113.225-.236-.079-3.374-1.046c-1.766-.506-3.454-1.125-5.152-1.744l-5.062-1.799-9.932-3.543-18.683-6.67-31.64-11.248-21.315-7.683-5.782-2.114-1.496-.563a4.548 4.548 0 0 1-.506-.247Z" fill="#455A64"/><path d="M351.973 472.509a15.962 15.962 0 0 1-1.428-1.361l-3.734-3.858c-3.139-3.273-7.447-7.874-12.182-12.879l-4.758-5.096-.259-.281.338-.169 11.675-5.624 3.375-1.597a9.06 9.06 0 0 1 1.248-.517c-.35.267-.727.497-1.125.686l-3.273 1.665-11.585 5.849.078-.45 4.781 5.084c4.735 5.05 8.998 9.651 12.058 13.003l3.599 3.981a10.64 10.64 0 0 1 1.192 1.564Zm77.611-74.597c.068.146-9.403 4.263-21.146 9.178-11.743 4.916-21.304 8.796-21.371 8.65-.068-.146 9.403-4.263 21.146-9.19 11.743-4.926 21.371-8.795 21.371-8.638Zm-58.489-115.9c-.799 0-28.548-.258-34.149 5.343-5.602 5.602-17.232 91.39-17.232 91.39 5.984 1.125 9.876 3.375 13.497 5.152l47.163 27.501 20.416-10.607a5.124 5.124 0 0 0 2.476-5.801 5.118 5.118 0 0 0-1.037-1.993l27.164-98.184a50.13 50.13 0 0 0-13.227-7.199c-7.953-2.925-45.071-5.602-45.071-5.602Z" fill="#455A64"/><path d="M420.26 291.123s8.346 1.845 11.54 6.997c7.492 12.069 30.505 54.935 34.374 65.238 4.095 10.877-.303 17.063-3.262 21.653-3.183 4.937-20.673 4.926-28.603-3.544-3.375-3.644-22.339-20.82-22.339-20.82l8.29-69.524Z" fill="#455A64"/><path d="M429.753 307.039a5.674 5.674 0 0 1-.315.844l-1.023 2.384a227.425 227.425 0 0 0-3.375 8.886c-2.722 7.57-6.051 18.155-9.583 29.898-3.532 11.743-6.603 22.372-8.886 30.133a361.56 361.56 0 0 1-2.778 9.111l-.81 2.463a4.786 4.786 0 0 1-.315.844c.044-.297.112-.591.202-.877.18-.623.417-1.455.709-2.498.63-2.249 1.507-5.331 2.598-9.155 2.182-7.739 5.197-18.425 8.718-30.19 3.52-11.766 6.928-22.327 9.752-29.864a173.373 173.373 0 0 1 3.565-8.841l1.125-2.339c.112-.28.251-.547.416-.799Z" fill="#263238"/><path d="M338.273 286.377s-8.762 4.982-11.968 7.873c-3.206 2.891-36.32 50.144-40.56 64.868-2.464 8.526 6.928 26.162 17.052 25.308 13.238-1.125 62.91-20.168 62.91-20.168l-11.147-24.262-28.12 4.499 20.415-20.516-7.615-38.154" fill="#455A64"/><path d="M456.084 358.296a2.609 2.609 0 0 1-.494-.303l-1.373-.945-4.983-3.554a1954.505 1954.505 0 0 1-16.287-11.991l-4.24-3.161.393-.056c-4.038 5.276-7.637 9.876-10.258 13.127a39.014 39.014 0 0 1-4.375 5.05l4.083-5.287 10.123-13.238.169-.225.225.168 4.251 3.15a1950.758 1950.758 0 0 1 16.186 12.136l4.826 3.701 1.305 1.035c.164.114.315.246.449.393Z" fill="#263238"/><path d="m377.472 331.414-22.271 9.977 8.886 19.313 13.925-9.19-.54-20.1Z" fill="#B2655F"/><path d="m398.517 333.303 14.904-10.123a2.741 2.741 0 0 1 1.788-.472l19.482 1.664a1.499 1.499 0 0 1 1.372 1.53 2.652 2.652 0 0 1-.821 2.07l-31.641 22.012-23.621-3.745 18.537-12.936Z" fill="#E0E0E0"/><path d="M377.472 331.414s8.042-5.962 9.932-6.288c1.89-.326 10.382-.292 10.382-.292l7.154 4.083-4.432 3.003c-3.071-.675-3.948-1.867-3.948-1.867l-4.949.326-14.139 1.035Z" fill="#B2655F"/><path d="m386.516 328.827 12.699 4.42 18.266 2.576a3.993 3.993 0 0 1-3.644 4.105c-2.25.237-6.051.495-6.051.495s-.934 3.375-3.78 4.106a9.333 9.333 0 0 1-2.744 3.251 2.263 2.263 0 0 1-.563.247c-1.754.506-5.252 5.264-7.592 5.905s-15.117-2.373-15.117-2.373l-.54-20.089 9.066-2.643Z" fill="#B2655F"/><path d="M390.216 339.197c0-.056 1.013.214 2.621.54 2.113.419 4.251.697 6.4.833 2.142.148 4.292.148 6.434 0 1.654-.113 2.666-.259 2.677-.203a3.375 3.375 0 0 1-.709.169c-.449.09-1.124.191-1.945.281-2.153.221-4.32.259-6.479.113a37.743 37.743 0 0 1-6.423-.945 23.447 23.447 0 0 1-1.901-.518 3.248 3.248 0 0 1-.675-.27Zm2.497 5.208c.053.424.011.855-.124 1.26a2.666 2.666 0 0 1-.686 1.226 2.24 2.24 0 0 1-1.654.551 4.318 4.318 0 0 1-1.642-.472c-.461-.236-.843-.484-1.181-.664-.652-.394-1.125-.54-1.125-.596.422.026.831.153 1.193.371a7.528 7.528 0 0 0 2.733 1.012 1.93 1.93 0 0 0 1.417-.438c.309-.294.538-.662.664-1.069.112-.401.247-.795.405-1.181Zm9.392 1.215c-.447.18-.916.301-1.394.36a31.637 31.637 0 0 1-3.375.416c-1.15.065-2.303.065-3.453 0a5.625 5.625 0 0 1-1.428-.157c0-.113 2.182 0 4.859-.237 2.677-.236 4.769-.449 4.791-.382Zm-9.639 5.309a4.496 4.496 0 0 1-4.364.686c0-.112 1.012.079 2.249-.112 1.237-.192 2.115-.664 2.115-.574Zm4.578-.225c0 .09-.596.247-1.361.36-.466.11-.951.11-1.417 0 .422-.227.892-.35 1.372-.36.765-.09 1.395-.101 1.406 0Zm2.171-17.457a34.536 34.536 0 0 1-5.95-1.991c-1.62-.63-3.071-1.226-4.106-1.698a7.355 7.355 0 0 1-1.631-.855c.588.17 1.163.38 1.721.63l4.14 1.597 4.128 1.608c1.079.372 1.698.619 1.698.709Z" fill="#8E4842"/><path d="M417.875 337.746s-1.406-.483.113-2.699c1.518-2.216 5.77.472 5.77.472l5.433 3.228s1.214 2.824-.293 3.577l-1.125 1.373s2.126 2.148 1.271 4.026a2.918 2.918 0 0 1-2.958 1.62s.248 3.802-.99 5.264a4.142 4.142 0 0 1-2.362 1.597 6.735 6.735 0 0 1-1.847 2.614 6.733 6.733 0 0 1-2.843 1.469c-3.645.934-5.557 1.001-6.547-.54a16.783 16.783 0 0 1-1.608-3.475s-7.817-4.106-7.986-6.187c-.169-2.08.191-2.249.191-2.249a3.899 3.899 0 0 1 .158-3.003c.787-1.271 3.891-.158 3.891-.158l9.977 2.34s-7.986-3.746-8.931-4.972c-.944-1.226.068-2.733 3.274-2.351 3.205.383 12.89 2.194 12.89 2.194a2.969 2.969 0 0 0-1.125-1.238c-.641-.27-2.643-1.428-2.643-1.428l-1.71-1.474Z" fill="#B2655F"/><path d="M420.259 352.897c0 .09-4.071-.944-8.998-2.305-4.927-1.361-8.998-2.554-8.942-2.644.056-.09 4.072.945 8.998 2.306 4.927 1.361 8.965 2.553 8.942 2.643Zm-4.758 5.433a11.506 11.506 0 0 1-2.913-.742 20.58 20.58 0 0 1-1.991-.765 3.747 3.747 0 0 1-.585-.315.792.792 0 0 1-.135-.124v-.078c0 .022 1.238.427 2.801.944.974.267 1.92.629 2.823 1.08Zm8.549-9.819c0 .09-1.968-.304-4.375-.698-2.407-.393-4.376-.652-4.364-.753a20.501 20.501 0 0 1 4.42.416c1.474.182 2.923.529 4.319 1.035Zm2.441-5.141c-.068.09-.855-.472-1.957-.866-1.103-.393-2.059-.495-2.059-.596a3.686 3.686 0 0 1 2.182.27 3.746 3.746 0 0 1 1.834 1.192Z" fill="#8E4842"/><path d="M435.208 326.183h-.36l-1.046-.123c-.899-.124-2.249-.293-3.813-.473a140.738 140.738 0 0 0-12.665-.877 7.006 7.006 0 0 0-3.464.405c-.49.283-.964.595-1.418.933l-1.349.957-4.668 3.295-3.161 2.194-.877.584c-.191.135-.304.192-.315.18.089-.084.183-.163.281-.236l.832-.63 3.105-2.249 4.623-3.375 1.338-.967c.466-.348.951-.671 1.451-.967a4.068 4.068 0 0 1 1.789-.45h1.844c4.24.105 8.471.432 12.677.978 1.62.214 2.924.428 3.813.585l1.035.191c.118-.003.235.012.348.045Z" fill="#263238"/><path d="M423.004 327.916a.941.941 0 0 0-.934-.36h-.157a1.322 1.322 0 0 0-.765.427.81.81 0 0 0 0 1.024c.15.145.344.236.551.258a1.369 1.369 0 0 0 1.125-.281.943.943 0 0 0 .18-1.068Z" fill="#fff"/><path d="m378.721 219.755-2.16-1.125a4.592 4.592 0 0 0-3.296-.765c-1.068.304-1.81 1.327-2.913 1.44-1.282.146-2.339-1.013-3.622-.945-1.282.067-2.17 1.125-3.374 1.125-.9 0-1.856-.641-2.632-.203-.158.09-.292.214-.439.315a3.188 3.188 0 0 1-2.992-.169 4.129 4.129 0 0 0-2.992-.517 4.772 4.772 0 0 0-1.552 1.249 2.145 2.145 0 0 1-1.811.742c-.371-.079-.675-.315-1.046-.405-1.125-.292-2.126.945-3.307 1.26-1.181.315-2.362-.248-3.374.247a1.718 1.718 0 0 0-.833 2.115 2.606 2.606 0 0 0 1.958 1.473 5.413 5.413 0 0 0 2.643-.191 6.406 6.406 0 0 1 2.126-.483c1.676.056 2.992 1.788 4.634 1.428a5.78 5.78 0 0 0 2.025-1.282 5.624 5.624 0 0 1 3.262-1.058c.769.102 1.551.06 2.305-.123.889-.36 1.395-1.294 2.317-1.541.923-.248 1.98.348 3.004.247.663-.056 1.282-.427 1.957-.461.956-.056 1.822.562 2.778.484.956-.079 1.8-.889 2.778-.81.384.068.76.169 1.125.304a1.228 1.228 0 0 0 1.125-.169c.214-.203.281-.529.54-.675a1.13 1.13 0 0 1 .652-.068l3.172.327-2.058-1.766Z" fill="#263238"/><path d="M382.128 219.642c-1.068-.787-2.497-1.608-3.7-.945-.439.237-.765.63-1.204.844-1.012.472-2.25-.146-3.307.146-.911.259-1.518 1.125-2.362 1.519-1.361.675-3.374.281-4.207 1.473-.461.653-.54 1.699-1.338 1.879a1.987 1.987 0 0 1-.855-.102 7.15 7.15 0 0 0-2.97-.09 3.162 3.162 0 0 0-1.541.653c-.809.731-.832 1.979-1.608 2.744-1.125 1.125-3.228.596-4.713 1.328a9.247 9.247 0 0 0-1.811 1.495 20.515 20.515 0 0 1-3.824 2.329 8.3 8.3 0 0 0-3.375 2.846 3.012 3.012 0 0 0 .428 3.858 1.528 1.528 0 0 0 1.901.09c.168-.158.281-.383.438-.563.39-.306.838-.532 1.316-.663.462-.18.945-.529.945-1.001 0-.293-.168-.642.068-.844a.717.717 0 0 1 .348-.113c1.193-.123 2.655-.067 3.296-1.034.213-.457.375-.936.484-1.429a2.67 2.67 0 0 1 1.934-1.597c.732-.169 1.553-.056 2.138-.506.584-.45.686-1.474 1.282-2.036 1.001-.945 2.981-.259 3.88-1.282.225-.259.349-.585.63-.777.81-.528 1.789.563 2.745.383.956-.18 1.125-1.125 1.698-1.665a9.833 9.833 0 0 1 2.779-1.282c1.181-.574 2.035-1.687 3.284-2.058 1.125-.327 2.407-.102 3.206-.867.303-.292.517-.708.933-.843.245-.051.498-.051.743 0a5.63 5.63 0 0 0 3.565-.72l-1.226-1.17Z" fill="#263238"/><path d="M380.307 222.499a9.002 9.002 0 0 0-7.627 2.25 6.019 6.019 0 0 1-1.439 1.125 8.102 8.102 0 0 1-2.812.315 5.535 5.535 0 0 0-4.646 3.756c-.427 1.294-.585 2.992-1.833 3.442a3.875 3.875 0 0 0-.686.248c-.833.517-.259 1.844-.27 2.868 0 1.687-1.89 2.846-1.957 4.499.017.621.167 1.23.438 1.789a61.246 61.246 0 0 0 2.149 4.724c.348.686.81 1.451 1.552 1.552 1.125.146 1.732-1.125 2.047-2.25a3.274 3.274 0 0 0 .068-2.35c-.315-.597-.957-.945-1.238-1.564-.438-.978.27-2.07.776-3.003a8.994 8.994 0 0 0 .866-6.198c1.125-.213 1.721-1.811 2.891-2.036.329-.018.656-.059.979-.123.776-.315.866-1.496 1.552-1.98s2.25-.113 2.632-1.069c.112-.303.056-.663.247-.911a.959.959 0 0 1 .619-.326l2.835-.709a3.276 3.276 0 0 0 1.507-.663c.731-.698.843-2.025 1.766-2.385l-.416-1.001Zm3.003-5.635c-.112-1.665-.427-3.667-1.901-4.342-.866-.405-1.923-.191-2.778-.63-1.642-.821-1.777-3.475-3.375-4.319-1.597-.844-3.734.461-5.016-.776-.664-.641-.754-1.71-1.294-2.463a3.76 3.76 0 0 0-2.89-1.238 9.09 9.09 0 0 1-3.172-.427c-1.688-.742-2.767-2.835-4.578-2.981-1.541-.112-2.745 1.238-3.712 2.475a2.36 2.36 0 0 0-.551 1.035 1.807 1.807 0 0 0 1.001 1.698c1.226.72 2.801.607 3.937 1.451.385.358.794.689 1.226.99.652.349 1.473.27 2.103.664 1.226.753 1.204 2.812 2.43 3.576 1.226.765 2.654-.135 3.981.169 1.8.428 2.79 2.936 4.635 3.003a17.828 17.828 0 0 0 2.384-.528 2.639 2.639 0 0 1 2.553 1.507c.293.63.338 1.372.687 1.98a2.872 2.872 0 0 0 2.125 1.338 8.07 8.07 0 0 0 2.542-.146l-.337-2.036Z" fill="#263238"/><path d="M381.915 222.049c-1.124-2.126-2.508-4.398-4.814-5.388a29.987 29.987 0 0 1-3.577-1.248c-.922-.54-1.574-1.406-2.44-2.025-2.014-1.428-4.792-1.338-7.267-.945-2.474.394-5.027 1.013-7.457.417-2.182-.54-4.083-2.014-6.321-2.149a10.912 10.912 0 0 0-3.589.619l-4.071 1.125a1.886 1.886 0 0 0-1.125.675c-.439.731.416 1.574 1.226 1.912 1.33.552 2.79.708 4.207.45a10.332 10.332 0 0 1 3.374-.507c.762.2 1.513.441 2.25.72a8.432 8.432 0 0 0 2.913 0l4.499-.472a6.321 6.321 0 0 1 3.431.292c.81.394 1.451 1.125 2.351 1.238.899.112 1.957-.63 2.958-.484 1.192.191 1.788 1.518 2.879 2.025 1.283.596 2.97-.102 4.207.585.844.461 1.204 1.406 1.744 2.182a5.44 5.44 0 0 0 1.721 1.597c.912.478 1.884.834 2.89 1.057l.011-1.676Zm2.384-9.448c-.539-.742-1.361-1.496-1.124-2.396.112-.439.472-.798.551-1.248.135-.81-.686-1.44-.99-2.25-.304-.81 0-2.025-.517-2.857-.518-.832-1.71-1.001-2.7-1.249a3.379 3.379 0 0 1-2.52-1.968 11.605 11.605 0 0 1-.135-2.25 4.245 4.245 0 0 0-4.083-3.486 4.442 4.442 0 0 1-1.687-.192c-.956-.45-1.125-1.676-1.721-2.587a3.577 3.577 0 0 0-3.678-1.721c-.675.135-1.417.844-1.023 1.406.157.225.45.315.663.495.765.653.214 1.969.664 2.857.45.889 1.89 1.125 2.328 2.07.338.731-.056 1.642.259 2.384.394.912 1.575 1.125 2.564 1.125.99 0 2.171.27 2.543 1.125.114.418.178.849.191 1.282a2.505 2.505 0 0 0 1.293 1.789c.956.483 2.25.393 2.869 1.305.618.911-.282 2.474.292 3.543.416.776 1.417.978 2.171 1.451a.852.852 0 0 1 .394.45.96.96 0 0 1-.135.596c-.597 1.215-1.35 2.609-.777 3.824.275.474.624.899 1.035 1.26a10.65 10.65 0 0 1 2.61 4.499l1.046-4.578a4.691 4.691 0 0 0-.383-4.679Z" fill="#263238"/><path d="M390.104 197.146a3.074 3.074 0 0 0-1.327-3.543 2.422 2.422 0 0 0-3.375 1.271c-.45 1.496.81 3.251 0 4.601a4.778 4.778 0 0 0-.686 1.068c-.281.99.956 1.822.967 2.857.012 1.035-1.428 1.766-1.721 2.868-.292 1.103.934 2.599.473 3.825-.16.33-.361.64-.596.922-1.316 1.935-.641 4.499.078 6.749l2.981-.439c-.551-2.07 2.362-4.139 1.372-6.029-.472-.9-1.765-1.552-1.473-2.531.1-.254.254-.484.45-.675l2.778-3.036c.456-.404.768-.945.889-1.541.123-1.316-1.519-2.171-1.732-3.487-.09-1.035.618-1.946.922-2.88Z" fill="#263238"/><path d="M391.128 214.018c-.282-.978-1.553-1.271-2.554-1.125-2.767.428-4.791 2.745-6.557 4.905a58.54 58.54 0 0 0-5.467 7.434 4.94 4.94 0 0 0-.765 1.89 1.911 1.911 0 0 0 .698 1.822 1.195 1.195 0 0 0 1.415-.026c.135-.102.247-.231.328-.379l.821-.202a40.124 40.124 0 0 1 10.506-11.721c.866-.674 1.867-1.585 1.575-2.598Z" fill="#6D55F1"/><path d="M375.909 256.333a96.372 96.372 0 0 1-1.024-16.489 33.487 33.487 0 0 1 4.41-15.748c.438-.719 3.88-5.399 4.679-5.162.573.168-1.868 4.69-1.665 5.252 1.867 5.388 1.496 11.361 0 16.872a74.371 74.371 0 0 1-6.366 15.309" fill="#263238"/><path d="M400.418 292.259c.787-3.813 1.417-6.816 1.451-6.816.034 0 13.374 1.237 16.771-11.597 1.642-6.197 3.97-19.234 5.95-31.055a24.744 24.744 0 0 0-18.357-28.12l-1.249-.315c-13.587-2.576-23.373 7.513-25.577 21.168l-9.235 47.512 21.169 22.249 9.077-13.026Z" fill="#B2655F"/><path d="M401.869 285.443a32.041 32.041 0 0 1-15.511-9.167s1.732 10.393 14.859 12.463l.652-3.296Z" fill="#8E4842"/><path d="M418.021 253.004a1.887 1.887 0 0 1-2.249 1.406 1.821 1.821 0 0 1-1.188-.758 1.799 1.799 0 0 1-.286-1.379 1.903 1.903 0 0 1 2.25-1.406c.239.039.468.126.673.255a1.815 1.815 0 0 1 .801 1.162 1.8 1.8 0 0 1-.001.72Zm2.475-5.568c-.281.18-1.417-1.192-3.375-1.687-1.957-.495-3.678.135-3.835-.169-.068-.135.27-.506 1.012-.81a5.31 5.31 0 0 1 3.15-.157 4.995 4.995 0 0 1 2.632 1.642c.506.619.562 1.102.416 1.181Zm-20.416 2.115a1.901 1.901 0 0 1-2.249 1.417 1.804 1.804 0 0 1-1.188-.758 1.802 1.802 0 0 1-.286-1.379 1.889 1.889 0 0 1 2.25-1.406 1.799 1.799 0 0 1 1.473 2.126Zm.844-6.187c-.292.18-1.428-1.192-3.374-1.687-1.946-.495-3.678.135-3.836-.169-.078-.123.259-.506 1.013-.798a5.164 5.164 0 0 1 3.138-.169 4.903 4.903 0 0 1 2.632 1.642c.472.619.562 1.08.427 1.181Zm3.273 16.985a13.5 13.5 0 0 1 3.375.225c.517.078 1.023.101 1.192-.225a2.618 2.618 0 0 0 0-1.586c-.169-1.339-.337-2.745-.529-4.218-.697-5.995-1.057-10.877-.821-10.9.236-.022 1.001 4.815 1.699 10.81.168 1.473.315 2.879.461 4.229a3.02 3.02 0 0 1-.236 2.047 1.344 1.344 0 0 1-1.013.529 2.99 2.99 0 0 1-.888-.101 13.405 13.405 0 0 1-3.24-.81Zm-6.107-.09c.326.056-.214 2.249 1.248 4.195 1.462 1.946 3.802 2.317 3.734 2.621-.067.304-.607.292-1.586.079a5.558 5.558 0 0 1-3.149-2.081 4.78 4.78 0 0 1-.911-3.476c.09-.922.461-1.394.664-1.338Zm4.746-24.948c-.337.495-2.249-.259-4.634-.563-2.385-.303-4.432-.146-4.612-.708-.078-.259.372-.686 1.26-1.013a8.027 8.027 0 0 1 7.041.968c.765.551 1.091 1.079.945 1.316Zm18.503 5.342c-.461.36-1.709-.438-3.374-.877s-3.105-.461-3.307-1.012c-.079-.259.247-.653.967-.934a5.028 5.028 0 0 1 5.354 1.53c.495.607.563 1.113.36 1.293Z" fill="#263238"/><path d="M378.069 245.378c-.203-.147-8.189-4.837-10.123 4.026-1.935 8.864 7.378 8.999 7.446 8.729.067-.27 2.677-12.755 2.677-12.755Z" fill="#B2655F"/><path d="M373.412 254.185s-.18.079-.462.135a1.55 1.55 0 0 1-1.124-.225c-.867-.551-1.328-2.25-1.024-3.813.138-.765.45-1.489.911-2.115a1.82 1.82 0 0 1 1.417-.933.798.798 0 0 1 .821.618c.068.27 0 .439 0 .461 0 .023.225-.101.237-.483a1.015 1.015 0 0 0-.225-.63 1.162 1.162 0 0 0-.364-.289 1.161 1.161 0 0 0-.446-.127 2.246 2.246 0 0 0-1.912 1.023 5.47 5.47 0 0 0-1.125 2.351c-.326 1.8.225 3.678 1.428 4.331a1.728 1.728 0 0 0 1.463.067c.337-.157.427-.349.405-.371Z" fill="#8E4842"/><path d="M421.913 226.863c1.608-.494-1.744-6.051-4.938-8.391-4.837-3.531-12.688-6.748-17.907-6.355-6.276.439-11.822 2.362-15.916 7.143a35.71 35.71 0 0 0-7.648 17.029 10.843 10.843 0 0 0 .123 5.692c.833 2.249 2.958 3.959 2.25 6.647a3.775 3.775 0 0 0 .36 2.902c1.26 2.07 3.588.855 4.848-.585 2.677-3.07 3.757-7.176 4.758-11.135a26.198 26.198 0 0 0 1.203-8.56c-.124-1.575-.529-3.127-.574-4.702a5.485 5.485 0 0 1 1.564-4.307c.273-.214.563-.405.866-.574a9.456 9.456 0 0 1 4.803-1.215 9.455 9.455 0 0 1 4.758 1.384c4.634 2.812 12.631 7.232 15.218 6.006 3.724-1.777 4.826-3.206 4.826-3.206l1.406 2.227Zm-94.562 151.309c.227-.132.469-.237.72-.315l2.103-.821 7.941-2.97 27.49-10.123-.157.382c-2.25-4.96-4.769-10.359-7.356-15.949l-3.791-8.268.304.158-27.535 4.229a55.729 55.729 0 0 0-14.229 6.254c-1.575.967-2.756 1.8-3.566 2.362l-.9.653a1.12 1.12 0 0 1-.326.202l.282-.259.866-.697a45.636 45.636 0 0 1 3.509-2.475 53.853 53.853 0 0 1 14.24-6.467l27.524-4.297h.214l.101.191c1.226 2.689 2.508 5.456 3.802 8.268 2.564 5.624 5.05 10.989 7.322 15.96l.135.27-.292.113-27.569 9.898-7.986 2.823-2.137.732-.709.146Z" fill="#263238"/><path d="M343.83 327.623a19.28 19.28 0 0 1-2.25 2.767 233.428 233.428 0 0 1-5.838 6.344c-2.328 2.441-4.499 4.589-6.13 6.063a18.264 18.264 0 0 1-2.047 1.653c-.281.158-.472.315-.72.27a.172.172 0 0 1-.043-.112c0-.042.016-.082.043-.113v-.056s0 .146.068.169c.201-.075.384-.19.54-.338.461-.382 1.124-1.001 1.889-1.766 1.564-1.552 3.678-3.745 5.995-6.175l5.962-6.22a21.849 21.849 0 0 1 2.531-2.486Zm5.353-11.113c-.124 0 .236-1.766.236-4.612a29.538 29.538 0 0 0-.427-4.949 30.68 30.68 0 0 0-4.342-11.304 31.17 31.17 0 0 0-3.014-3.971c-1.912-2.103-3.375-3.16-3.262-3.25.372.19.719.424 1.035.697.395.286.77.598 1.124.934.492.421.961.868 1.406 1.338a27.775 27.775 0 0 1 3.161 3.96 31.158 31.158 0 0 1 2.835 5.511 32.19 32.19 0 0 1 1.597 5.995 27.45 27.45 0 0 1 .303 5.051 18.138 18.138 0 0 1-.146 1.934c-.036.488-.107.973-.213 1.451a5.23 5.23 0 0 1-.293 1.215Zm28.66 83.877c0-.102 1.417 0 3.689 0a33.559 33.559 0 0 0 16.782-4.95c1.935-1.124 3.037-2.069 3.105-1.99.067.078-.225.281-.709.708a22.652 22.652 0 0 1-2.171 1.631 30.363 30.363 0 0 1-8.121 3.802 30.016 30.016 0 0 1-8.886 1.215 21.379 21.379 0 0 1-2.711-.191 3.612 3.612 0 0 1-.978-.225Zm16.737-24.836c-.21.349-.463.67-.753.956-.506.596-1.271 1.428-2.25 2.452a131.375 131.375 0 0 1-7.873 7.615c-3.195 2.846-6.198 5.298-8.436 6.985-1.125.844-2.036 1.518-2.689 1.957-.314.26-.662.475-1.035.641.266-.309.568-.584.9-.821l2.565-2.103a250.017 250.017 0 0 0 8.312-7.087 244.405 244.405 0 0 0 7.964-7.479l2.362-2.318c.573-.539.9-.832.933-.798Z" fill="#263238"/></svg>