<svg width="30" height="30" fill="none" xmlns="http://www.w3.org/2000/svg"><path d="M15.047 4.113c-6.175 0-11.2 4.84-11.203 10.79a10.46 10.46 0 0 0 1.496 5.394l-1.59 5.59 5.94-1.5a11.533 11.533 0 0 0 5.353 1.314h.004c6.175 0 11.2-4.841 11.203-10.79.001-2.881-1.163-5.594-3.279-7.632-2.114-2.04-4.927-3.165-7.924-3.166Zm0 19.765h-.004c-1.67 0-3.31-.432-4.739-1.25l-.341-.194-3.523.89.94-3.31-.22-.339a8.697 8.697 0 0 1-1.425-4.773c.002-4.945 4.18-8.966 9.316-8.966 2.486 0 4.824.935 6.583 2.63 1.758 1.694 2.726 3.948 2.724 6.344-.002 4.945-4.179 8.968-9.312 8.968h.001Zm5.108-6.717c-.28-.134-1.657-.787-1.914-.877-.256-.09-.442-.136-.629.134-.186.27-.723.877-.885 1.057-.164.18-.328.201-.608.067-.28-.135-1.182-.42-2.25-1.338-.833-.714-1.395-1.597-1.558-1.868-.163-.269-.018-.415.123-.55.125-.119.28-.313.42-.47.138-.158.185-.27.28-.45.092-.18.046-.338-.025-.473-.07-.135-.629-1.462-.863-2.002-.227-.525-.458-.455-.63-.463a12.49 12.49 0 0 0-.537-.01 1.05 1.05 0 0 0-.746.338c-.256.27-.98.922-.98 2.248 0 1.328 1.003 2.61 1.143 2.79.14.179 1.975 2.903 4.783 4.071.668.277 1.189.443 1.596.568.67.205 1.28.176 1.763.107.537-.078 1.656-.652 1.888-1.281.234-.63.234-1.17.164-1.282-.068-.113-.255-.18-.535-.316Z" fill="#fff"/></svg>