<svg xmlns="http://www.w3.org/2000/svg" xmlns:xlink="http://www.w3.org/1999/xlink" viewBox="0 0 181.95 232.99"><defs><style>.cls-1{isolation:isolate;}.cls-2{fill:#6d55f1;}.cls-3,.cls-6{fill:#fff;}.cls-4{fill:#323334;}.cls-5{fill:#979797;}.cls-5,.cls-6,.cls-9{mix-blend-mode:screen;}.cls-7{fill:url(#linear-gradient);}.cls-8{fill:#cfd1d2;mix-blend-mode:multiply;}.cls-9{fill:#4a4b4c;}</style><linearGradient id="linear-gradient" x1="165.2" y1="29.48" x2="176.25" y2="22.39" gradientTransform="matrix(1, 0, 0, 1, 0.4, 0.05)" gradientUnits="userSpaceOnUse"><stop offset="0.29" stop-color="#9e9e9e"/><stop offset="0.38" stop-color="#aaa"/><stop offset="0.56" stop-color="#cacaca"/><stop offset="0.69" stop-color="#e6e6e6"/><stop offset="0.74" stop-color="#ececec"/><stop offset="0.87" stop-color="#f9f9f9"/><stop offset="1" stop-color="#fdfdfd"/></linearGradient></defs><g class="cls-1"><g id="Layer_2" data-name="Layer 2"><g id="Layer_1-2" data-name="Layer 1"><path class="cls-2" d="M78.94,233c-40.32,0-63.44-22.86-63.44-62.72v-33.9H0V60.58H15.5V27.4h84.75V60.58h30.51v75.79H100.25v17.19c.74-.29,1.51-.63,2.31-1l27.72-13.25v78.18L120.36,223C108.69,229.54,94.37,233,78.94,233Z"/><path class="cls-3" d="M34.87,170.27V117H19.37V80h15.5V46.77h46V80h30.51V117H80.88v44.31c0,9.2,4.12,13.08,12.59,13.08A40.41,40.41,0,0,0,110.91,170v36.08c-8.24,4.6-19.13,7.51-32,7.51C51.34,213.62,34.87,201.51,34.87,170.27Z"/><path class="cls-4" d="M182,29.72c0,16.44-14,29.79-31.36,29.82s-31.44-13.28-31.47-29.72S133.13,0,150.48,0,181.92,13.28,182,29.72Z"/><path class="cls-3" d="M124.38,27.18a31.39,31.39,0,0,0-2.65,7.89c-.45,2.25-.33,3.13,1.52,5.61,3.52,4.75,4.83,6,6,5.85s6.88-1.36,8.53-1.74c1.26-.29,1.26-.58,1.76-2.65s1.29-5,1.49-6.53-.05-1.54-1.51-3.26-4.93-6.14-5.64-7-1-.57-2.71-.33-4.17.87-5.37,1.16S124.63,26.8,124.38,27.18Z"/><path class="cls-3" d="M126.79,11a48.57,48.57,0,0,0-2.93,4.25c-.77,1.34-.54,3.26-.06,7s.86,3.7,2.33,3.4l6.66-1.34c1.08-.23,1.93-2,2.93-3.56a86.69,86.69,0,0,1,5.83-7.26c.77-.64.54-1.29.31-3s-.78-5.31-1.27-5.44-4.33-.12-5.77-.21S129.72,7.54,126.79,11Z"/><path class="cls-3" d="M141.54,35.76s-1.51,5.78-2,8c-.25,1.31-.3,1.6,2.55,3.39s4.26,2.85,5.17,3.33,1.73.49,4.36-.1a58.78,58.78,0,0,0,6.34-1.56c1.06-.44,2.73-3.93,3.48-6.26s1.36-4.22.3-5a49.35,49.35,0,0,0-4.07-3.19c-1.72-1.11-3.19-2.56-3.85-2.27s-7.47,1.91-10.1,2.58C142.45,35,141.63,35.26,141.54,35.76Z"/><path class="cls-3" d="M146.87,58.61s1.24-4.93,1.44-6.12.64-1.25,2.44-1.54,6.6-1.63,7.45-1.92,1.36-.44,2.81.61,4.7,3.35,5.8,4.06c.81.53-2.9,3.07-7.74,4.32C153.47,59.46,146.82,59.43,146.87,58.61Z"/><path class="cls-3" d="M142.55,12.2s-.67-3.57-.92-5.53,0-1.72,2.71-2.82a61.28,61.28,0,0,1,10.52-2.61c1.39-.12,3,.28,6.51,2S165.76,5.42,166,6.4s.61,5.47.67,7.54c-.06,1.44-.58,1.27-3.15,2.28s-5.15,2-5.77,2.37c-.84.34-2.25-.46-4.57-1.88a43.39,43.39,0,0,0-8.1-3.5C143.22,12.71,142.76,13,142.55,12.2Z"/><path class="cls-3" d="M157.16,20.2s-1.29,5.57-1.9,8.41-.43,3.14,1.31,4.39,3.72,3,4.77,3.78,1.74,1.66,5.08.76c4.21-1.13,5.33-1.43,6.63-1.85s1.55-.89,2-3.14.85-5.63,1.1-7.47-.13-2.13-1.68-3.61-4.47-3.84-5.59-4.91a2.7,2.7,0,0,0-3.28-.7c-1.36.47-5.07,1.78-6.44,2.5S157.35,19.13,157.16,20.2Z"/><path class="cls-3" d="M179.75,22.31s-2,.64-2.64.92-.53,2.17-.77,4.1a61.71,61.71,0,0,1-1.48,7.31c-.28.79.87,1.45,1.82,2.92,1.5,2.29,2.28,3.55,2.61,3.12s2.47-4.9,2.38-12.29C181.41,25.07,180.79,21.76,179.75,22.31Z"/><path class="cls-3" d="M120.81,38.7s.3-.82.56-.39A57.25,57.25,0,0,0,127,45.82a2.73,2.73,0,0,1,1.19,2.44c.11,1.45-.07,1.8-1,1S122,43.25,120.81,38.7Z"/><path class="cls-3" d="M156.94.67s-.44-.14-.63,0,.85.46,2.66,1.2a43.8,43.8,0,0,1,5.81,2.85c.81.46,1.14.56,1.84.28s.92-.39.11-.82S160.74,1.2,156.94.67Z"/><path class="cls-5" d="M156.16,49.9s-3.91.91-6.42,1.44c-1.65.2-1.45,2.84-2.17,5.74,0,0,1-3.36,1.49-4.56S151.61,51.66,156.16,49.9Z"/><path class="cls-6" d="M128.35,9.8s3.57-3.55,5-4.31,7-.26,7-.26-3.86.12-5.67.22S128.35,9.8,128.35,9.8Z"/><path class="cls-3" d="M148.05,3.06a61.29,61.29,0,0,1,7.26-1.6c1.73-.07,5.19,1.3,9,3.36C160.06,3,156.9,1.87,155.6,1.88S148.05,3.06,148.05,3.06Z"/><path class="cls-3" d="M127.32,26.35a45,45,0,0,1,5.7-1.08c.74.12,6.58,7.69,6.58,7.69s-5.09-5.91-6.58-6.62S127.32,26.35,127.32,26.35Z"/><path class="cls-7" d="M170.85,18.53s3.38,3,4.37,3.95.93,1,.07,7.9c.4-4.4.63-6.24-.25-7.35S170.85,18.53,170.85,18.53Z"/><path class="cls-6" d="M140.31,38.48s-.8,3.44-1.24,5-2,1.34-5.94,2.12c4.19-1.2,5.21-1.34,5.58-2.4Z"/><path class="cls-6" d="M140.37,40.88s.87-3.38,1.17-4.74,3.16-1.49,6-2.2c0,0-2.66.83-4.4,1.49S141.42,38.27,140.37,40.88Z"/><path class="cls-3" d="M142,46.88s3.12,2.11,4.5,3,2.13.94,5.7.21A41.13,41.13,0,0,0,156.8,49a63.44,63.44,0,0,1-7.61,1.1C146.6,50.15,142,46.88,142,46.88Z"/><path class="cls-6" d="M155.42,29.5s1.41-7.31,1.86-9,3.67-2.66,7-4c0,0-3.82,1.87-5.32,2.81S157.66,21.33,155.42,29.5Z"/><path class="cls-6" d="M158.55,35.39s2.27,1.76,3,2.4.74,2.28-1.51,7.43c1-3.45,2.31-6.38,1-7.55S158.55,35.39,158.55,35.39Z"/><path class="cls-6" d="M123.64,42s1.8,2.34,3.06,3.66c1.1,1.08,1.33,1.26,1.33,3.45A4.05,4.05,0,0,0,127,46.29C126.25,45.59,123.64,42,123.64,42Z"/><path class="cls-8" d="M150.48,0c-17.35,0-31.39,13.38-31.36,29.82s14.12,29.75,31.47,29.72S182,46.16,182,29.72,167.83,0,150.48,0Zm-.25,53.37c-15.84,0-28.69-11.52-28.72-25.78S134.3,1.75,150.13,1.72s28.69,11.51,28.72,25.78S166.06,53.34,150.23,53.37Z"/><path class="cls-9" d="M145.66,15.28c.87,1,.52,2.62-.78,3.67s-3.08,1.11-4,.13-.52-2.63.79-3.68S144.78,14.3,145.66,15.28Z"/><path class="cls-9" d="M140,20.62a1.16,1.16,0,0,1-.35,1.63,1.3,1.3,0,0,1-1.75.05,1.16,1.16,0,0,1,.34-1.63A1.33,1.33,0,0,1,140,20.62Z"/></g></g></g></svg>